Linden Hill Italic.ufo
<glyph name="exclam" format="1">
  <advance width="285"/>
  <unicode hex="0021"/>
  <outline>
    <contour>
      <point x="100" y="26"/>
      <point x="123" y="-9"/>
      <point x="138" y="-9" type="curve" smooth="yes"/>
      <point x="156" y="-9"/>
      <point x="185" y="26"/>
      <point x="185" y="38" type="curve" smooth="yes"/>
      <point x="185" y="53"/>
      <point x="161" y="85"/>
      <point x="144" y="85" type="curve" smooth="yes"/>
      <point x="131" y="85"/>
      <point x="100" y="57"/>
      <point x="100" y="38" type="curve" smooth="yes"/>
    </contour>
    <contour>
      <point x="135" y="167"/>
      <point x="141" y="159"/>
      <point x="150" y="159" type="curve" smooth="yes"/>
      <point x="166" y="159"/>
      <point x="164" y="178"/>
      <point x="169" y="213" type="curve" smooth="yes"/>
      <point x="214" y="534"/>
      <point x="227" y="600"/>
      <point x="227" y="625" type="curve" smooth="yes"/>
      <point x="227" y="633"/>
      <point x="224" y="636"/>
      <point x="218" y="636" type="curve" smooth="yes"/>
      <point x="214" y="636"/>
      <point x="208" y="634"/>
      <point x="203" y="632" type="curve" smooth="yes"/>
      <point x="167" y="618"/>
      <point x="149" y="613"/>
      <point x="149" y="591" type="curve" smooth="yes"/>
      <point x="149" y="443"/>
      <point x="135" y="207"/>
      <point x="135" y="187" type="curve" smooth="yes"/>
    </contour>
  </outline>
</glyph>
<glyph name="numbersign" format="1">
  <advance width="427"/>
  <unicode hex="0023"/>
  <outline>
    <contour>
      <point x="24" y="257" type="line"/>
      <point x="113" y="257" type="line"/>
      <point x="28" y="-49" type="line"/>
      <point x="69" y="-49" type="line"/>
      <point x="153" y="257" type="line"/>
      <point x="236" y="257" type="line"/>
      <point x="150" y="-49" type="line"/>
      <point x="190" y="-49" type="line"/>
      <point x="276" y="257" type="line"/>
      <point x="402" y="257" type="line"/>
      <point x="402" y="291" type="line"/>
      <point x="286" y="291" type="line"/>
      <point x="307" y="366" type="line"/>
      <point x="403" y="366" type="line"/>
      <point x="403" y="400" type="line"/>
      <point x="316" y="400" type="line"/>
      <point x="396" y="687" type="line"/>
      <point x="356" y="687" type="line"/>
      <point x="276" y="400" type="line"/>
      <point x="193" y="400" type="line"/>
      <point x="273" y="687" type="line"/>
      <point x="232" y="687" type="line"/>
      <point x="153" y="400" type="line"/>
      <point x="25" y="400" type="line"/>
      <point x="25" y="366" type="line"/>
      <point x="143" y="366" type="line"/>
      <point x="122" y="291" type="line"/>
      <point x="24" y="291" type="line"/>
    </contour>
    <contour>
      <point x="163" y="291" type="line"/>
      <point x="184" y="366" type="line"/>
      <point x="266" y="366" type="line"/>
      <point x="245" y="291" type="line"/>
    </contour>
  </outline>
</glyph>
<glyph name="dollar" format="1">
  <advance width="476"/>
  <unicode hex="0024"/>
  <outline>
    <contour>
      <point x="40" y="124"/>
      <point x="43" y="102"/>
      <point x="44" y="78" type="curve" smooth="yes"/>
      <point x="47" y="36"/>
      <point x="44" y="33"/>
      <point x="66" y="22" type="curve" smooth="yes"/>
      <point x="116" y="-3"/>
      <point x="216" y="-8"/>
      <point x="216" y="-8" type="curve"/>
      <point x="205" y="-164" type="line"/>
      <point x="234" y="-164" type="line"/>
      <point x="246" y="-8" type="line"/>
      <point x="352" y="-4"/>
      <point x="436" y="46"/>
      <point x="436" y="157" type="curve" smooth="yes"/>
      <point x="436" y="244"/>
      <point x="362" y="280"/>
      <point x="271" y="330" type="curve"/>
      <point x="286" y="556" type="line"/>
      <point x="286" y="556"/>
      <point x="357" y="551"/>
      <point x="391" y="498" type="curve" smooth="yes"/>
      <point x="400" y="484"/>
      <point x="406" y="469"/>
      <point x="419" y="469" type="curve" smooth="yes"/>
      <point x="425" y="469"/>
      <point x="426" y="473"/>
      <point x="426" y="478" type="curve" smooth="yes"/>
      <point x="426" y="486"/>
      <point x="425" y="500"/>
      <point x="425" y="511" type="curve"/>
      <point x="421" y="561"/>
      <point x="427" y="573"/>
      <point x="415" y="573" type="curve" smooth="yes"/>
      <point x="414" y="573"/>
      <point x="391" y="566"/>
      <point x="385" y="566" type="curve" smooth="yes"/>
      <point x="377" y="566"/>
      <point x="385" y="571"/>
      <point x="288" y="583" type="curve"/>
      <point x="293" y="662" type="line"/>
      <point x="264" y="662" type="line"/>
      <point x="259" y="583" type="line"/>
      <point x="259" y="583"/>
      <point x="79" y="582"/>
      <point x="79" y="441" type="curve" smooth="yes"/>
      <point x="79" y="358"/>
      <point x="169" y="318"/>
      <point x="235" y="273" type="curve"/>
      <point x="219" y="22" type="line"/>
      <point x="66" y="22"/>
      <point x="74" y="144"/>
      <point x="54" y="144" type="curve" smooth="yes"/>
      <point x="46" y="144"/>
      <point x="41" y="141"/>
      <point x="40" y="129" type="curve"/>
    </contour>
    <contour>
      <point x="146" y="552"/>
      <point x="237" y="556"/>
      <point x="254" y="556" type="curve" smooth="yes"/>
      <point x="257" y="556" type="line"/>
      <point x="242" y="346" type="line"/>
      <point x="242" y="346"/>
      <point x="146" y="392"/>
      <point x="146" y="471" type="curve" smooth="yes"/>
    </contour>
    <contour>
      <point x="265" y="261" type="line"/>
      <point x="265" y="261"/>
      <point x="372" y="218"/>
      <point x="372" y="127" type="curve" smooth="yes"/>
      <point x="372" y="56"/>
      <point x="317" y="26"/>
      <point x="248" y="23" type="curve"/>
    </contour>
  </outline>
</glyph>
<glyph name="ampersand" format="1">
  <advance width="863"/>
  <unicode hex="0026"/>
  <outline>
    <contour>
      <point x="45" y="69"/>
      <point x="118" y="-15"/>
      <point x="341" y="-15" type="curve" smooth="yes"/>
      <point x="531" y="-15"/>
      <point x="651" y="81"/>
      <point x="675" y="279" type="curve" smooth="yes"/>
      <point x="678" y="309"/>
      <point x="689" y="311"/>
      <point x="699" y="311" type="curve" smooth="yes"/>
      <point x="706" y="311" type="line" smooth="yes"/>
      <point x="776" y="311"/>
      <point x="819" y="335"/>
      <point x="836" y="374" type="curve" smooth="yes"/>
      <point x="843" y="390"/>
      <point x="848" y="418"/>
      <point x="848" y="444" type="curve" smooth="yes"/>
      <point x="848" y="505"/>
      <point x="826" y="522"/>
      <point x="793" y="522" type="curve" smooth="yes"/>
      <point x="776" y="522"/>
      <point x="756" y="518"/>
      <point x="756" y="504" type="curve" smooth="yes"/>
      <point x="756" y="496"/>
      <point x="761" y="494"/>
      <point x="767" y="494" type="curve" smooth="yes"/>
      <point x="770" y="494"/>
      <point x="779" y="496"/>
      <point x="783" y="496" type="curve" smooth="yes"/>
      <point x="798" y="496"/>
      <point x="811" y="487"/>
      <point x="811" y="461" type="curve" smooth="yes"/>
      <point x="811" y="420"/>
      <point x="769" y="385"/>
      <point x="712" y="385" type="curve" smooth="yes"/>
      <point x="635" y="385"/>
      <point x="592" y="393"/>
      <point x="536" y="393" type="curve" smooth="yes"/>
      <point x="451" y="393"/>
      <point x="403" y="330"/>
      <point x="403" y="269" type="curve" smooth="yes"/>
      <point x="403" y="226"/>
      <point x="429" y="188"/>
      <point x="479" y="188" type="curve" smooth="yes"/>
      <point x="491" y="188"/>
      <point x="514" y="197"/>
      <point x="514" y="208" type="curve" smooth="yes"/>
      <point x="514" y="214"/>
      <point x="510" y="217"/>
      <point x="506" y="216" type="curve"/>
      <point x="500" y="215"/>
      <point x="494" y="210"/>
      <point x="480" y="210" type="curve" smooth="yes"/>
      <point x="458" y="210"/>
      <point x="443" y="230"/>
      <point x="443" y="253" type="curve" smooth="yes"/>
      <point x="443" y="282"/>
      <point x="473" y="316"/>
      <point x="507" y="320" type="curve" smooth="yes"/>
      <point x="521" y="322"/>
      <point x="533" y="323"/>
      <point x="544" y="323" type="curve" smooth="yes"/>
      <point x="574" y="323"/>
      <point x="603" y="319"/>
      <point x="609" y="318" type="curve" smooth="yes"/>
      <point x="622" y="316"/>
      <point x="625" y="310"/>
      <point x="625" y="292" type="curve" smooth="yes"/>
      <point x="625" y="173"/>
      <point x="573" y="38"/>
      <point x="365" y="38" type="curve" smooth="yes"/>
      <point x="178" y="38"/>
      <point x="139" y="136"/>
      <point x="139" y="202" type="curve" smooth="yes"/>
      <point x="139" y="274"/>
      <point x="191" y="389"/>
      <point x="346" y="395" type="curve" smooth="yes"/>
      <point x="364" y="396"/>
      <point x="375" y="397"/>
      <point x="375" y="411" type="curve" smooth="yes"/>
      <point x="375" y="421"/>
      <point x="359" y="423"/>
      <point x="340" y="423" type="curve" smooth="yes"/>
      <point x="292" y="424"/>
      <point x="245" y="450"/>
      <point x="245" y="527" type="curve" smooth="yes"/>
      <point x="245" y="576"/>
      <point x="292" y="653"/>
      <point x="379" y="653" type="curve" smooth="yes"/>
      <point x="460" y="653"/>
      <point x="491" y="610"/>
      <point x="491" y="573" type="curve" smooth="yes"/>
      <point x="491" y="544"/>
      <point x="472" y="518"/>
      <point x="444" y="518" type="curve" smooth="yes"/>
      <point x="434" y="518"/>
      <point x="427" y="520"/>
      <point x="419" y="528" type="curve" smooth="yes"/>
      <point x="413" y="534"/>
      <point x="403" y="532"/>
      <point x="403" y="522" type="curve" smooth="yes"/>
      <point x="403" y="501"/>
      <point x="440" y="486"/>
      <point x="468" y="486" type="curve" smooth="yes"/>
      <point x="511" y="486"/>
      <point x="555" y="513"/>
      <point x="555" y="571" type="curve" smooth="yes"/>
      <point x="555" y="648"/>
      <point x="476" y="684"/>
      <point x="388" y="684" type="curve" smooth="yes"/>
      <point x="233" y="684"/>
      <point x="159" y="592"/>
      <point x="159" y="517" type="curve" smooth="yes"/>
      <point x="159" y="442"/>
      <point x="237" y="413"/>
      <point x="237" y="413" type="curve" smooth="yes"/>
      <point x="237" y="413"/>
      <point x="45" y="380"/>
      <point x="45" y="195" type="curve" smooth="yes"/>
    </contour>
  </outline>
</glyph>
<glyph name="parenleft" format="1">
  <advance width="313"/>
  <unicode hex="0028"/>
  <outline>
    <contour>
      <point x="45" y="-45"/>
      <point x="269" y="-221"/>
      <point x="269" y="-221" type="curve"/>
      <point x="287" y="-200" type="line"/>
      <point x="287" y="-200"/>
      <point x="112" y="-67"/>
      <point x="112" y="233" type="curve" smooth="yes"/>
      <point x="112" y="523"/>
      <point x="297" y="667"/>
      <point x="297" y="667" type="curve"/>
      <point x="281" y="686" type="line"/>
      <point x="281" y="686"/>
      <point x="45" y="548"/>
      <point x="45" y="229" type="curve" smooth="yes"/>
    </contour>
  </outline>
</glyph>
<glyph name="comma" format="1">
  <advance width="224"/>
  <unicode hex="002C"/>
  <outline>
    <contour>
      <point x="35" y="-135"/>
      <point x="35" y="-146"/>
      <point x="48" y="-146" type="curve" smooth="yes"/>
      <point x="59" y="-146"/>
      <point x="93" y="-140"/>
      <point x="119" y="-115" type="curve" smooth="yes"/>
      <point x="143" y="-92"/>
      <point x="164" y="-43"/>
      <point x="164" y="-2" type="curve" smooth="yes"/>
      <point x="164" y="71"/>
      <point x="111" y="77"/>
      <point x="108" y="77" type="curve" smooth="yes"/>
      <point x="100" y="77"/>
      <point x="62" y="46"/>
      <point x="62" y="30" type="curve" smooth="yes"/>
      <point x="62" y="12"/>
      <point x="105" y="16"/>
      <point x="105" y="-32" type="curve" smooth="yes"/>
      <point x="105" y="-105"/>
      <point x="35" y="-113"/>
      <point x="35" y="-132" type="curve" smooth="yes"/>
    </contour>
  </outline>
</glyph>
<glyph name="five" format="1">
  <advance width="517"/>
  <unicode hex="0035"/>
  <outline>
    <contour>
      <point x="17" y="-181"/>
      <point x="53" y="-241"/>
      <point x="180" y="-241" type="curve" smooth="yes"/>
      <point x="381" y="-241"/>
      <point x="434" y="-77"/>
      <point x="434" y="-7" type="curve" smooth="yes"/>
      <point x="434" y="135"/>
      <point x="324" y="198"/>
      <point x="216" y="198" type="curve" smooth="yes"/>
      <point x="202" y="198" type="line" smooth="yes"/>
      <point x="186" y="198"/>
      <point x="179" y="200"/>
      <point x="179" y="223" type="curve" smooth="yes"/>
      <point x="179" y="241"/>
      <point x="197" y="302"/>
      <point x="206" y="324" type="curve" smooth="yes"/>
      <point x="209" y="332"/>
      <point x="218" y="334"/>
      <point x="221" y="334" type="curve" smooth="yes"/>
      <point x="234" y="334"/>
      <point x="388" y="315"/>
      <point x="428" y="315" type="curve" smooth="yes"/>
      <point x="440" y="315"/>
      <point x="467" y="388"/>
      <point x="473" y="417" type="curve"/>
      <point x="447" y="424" type="line"/>
      <point x="442" y="414"/>
      <point x="432" y="391"/>
      <point x="413" y="389" type="curve" smooth="yes"/>
      <point x="382" y="386"/>
      <point x="340" y="385"/>
      <point x="302" y="385" type="curve" smooth="yes"/>
      <point x="259" y="385"/>
      <point x="216" y="386"/>
      <point x="185" y="386" type="curve" smooth="yes"/>
      <point x="170" y="386"/>
      <point x="171" y="373"/>
      <point x="167" y="345" type="curve" smooth="yes"/>
      <point x="165" y="330"/>
      <point x="161" y="309"/>
      <point x="157" y="286" type="curve" smooth="yes"/>
      <point x="151" y="248"/>
      <point x="138" y="199"/>
      <point x="138" y="173" type="curve" smooth="yes"/>
      <point x="138" y="163"/>
      <point x="143" y="161"/>
      <point x="151" y="161" type="curve" smooth="yes"/>
      <point x="156" y="161"/>
      <point x="174" y="162"/>
      <point x="183" y="162" type="curve" smooth="yes"/>
      <point x="217" y="162"/>
      <point x="347" y="149"/>
      <point x="347" y="7" type="curve" smooth="yes"/>
      <point x="347" y="-109"/>
      <point x="261" y="-194"/>
      <point x="148" y="-194" type="curve" smooth="yes"/>
      <point x="105" y="-194"/>
      <point x="77" y="-180"/>
      <point x="62" y="-170" type="curve" smooth="yes"/>
      <point x="53" y="-164"/>
      <point x="43" y="-154"/>
      <point x="32" y="-154" type="curve" smooth="yes"/>
      <point x="24" y="-154"/>
      <point x="17" y="-159"/>
      <point x="17" y="-171" type="curve" smooth="yes"/>
    </contour>
  </outline>
</glyph>
<glyph name="six" format="1">
  <advance width="502"/>
  <unicode hex="0036"/>
  <outline>
    <contour>
      <point x="54" y="101"/>
      <point x="117" y="-11"/>
      <point x="243" y="-11" type="curve" smooth="yes"/>
      <point x="343" y="-11"/>
      <point x="443" y="78"/>
      <point x="443" y="232" type="curve" smooth="yes"/>
      <point x="443" y="301"/>
      <point x="409" y="400"/>
      <point x="281" y="400" type="curve" smooth="yes"/>
      <point x="241" y="400"/>
      <point x="174" y="381"/>
      <point x="129" y="309" type="curve"/>
      <point x="132" y="328"/>
      <point x="149" y="514"/>
      <point x="287" y="592" type="curve" smooth="yes"/>
      <point x="316" y="609"/>
      <point x="350" y="618"/>
      <point x="384" y="618" type="curve" smooth="yes"/>
      <point x="408" y="618"/>
      <point x="424" y="609"/>
      <point x="432" y="609" type="curve" smooth="yes"/>
      <point x="438" y="609"/>
      <point x="447" y="613"/>
      <point x="447" y="621" type="curve" smooth="yes"/>
      <point x="447" y="642"/>
      <point x="381" y="654"/>
      <point x="365" y="654" type="curve" smooth="yes"/>
      <point x="208" y="654"/>
      <point x="54" y="471"/>
      <point x="54" y="247" type="curve" smooth="yes"/>
    </contour>
    <contour>
      <point x="130" y="289"/>
      <point x="176" y="349"/>
      <point x="244" y="349" type="curve" smooth="yes"/>
      <point x="313" y="349"/>
      <point x="364" y="294"/>
      <point x="364" y="196" type="curve" smooth="yes"/>
      <point x="364" y="91"/>
      <point x="315" y="25"/>
      <point x="260" y="25" type="curve" smooth="yes"/>
      <point x="197" y="25"/>
      <point x="130" y="109"/>
      <point x="130" y="218" type="curve" smooth="yes"/>
    </contour>
  </outline>
</glyph>
<glyph name="colon" format="1">
  <advance width="255"/>
  <unicode hex="003A"/>
  <outline>
    <contour>
      <point x="75" y="26"/>
      <point x="98" y="-9"/>
      <point x="113" y="-9" type="curve" smooth="yes"/>
      <point x="131" y="-9"/>
      <point x="160" y="26"/>
      <point x="160" y="38" type="curve" smooth="yes"/>
      <point x="160" y="53"/>
      <point x="136" y="85"/>
      <point x="119" y="85" type="curve" smooth="yes"/>
      <point x="106" y="85"/>
      <point x="75" y="57"/>
      <point x="75" y="38" type="curve" smooth="yes"/>
    </contour>
    <contour>
      <point x="102" y="337"/>
      <point x="125" y="302"/>
      <point x="140" y="302" type="curve" smooth="yes"/>
      <point x="158" y="302"/>
      <point x="186" y="337"/>
      <point x="186" y="349" type="curve" smooth="yes"/>
      <point x="186" y="364"/>
      <point x="163" y="396"/>
      <point x="146" y="396" type="curve" smooth="yes"/>
      <point x="133" y="396"/>
      <point x="102" y="368"/>
      <point x="102" y="349" type="curve" smooth="yes"/>
    </contour>
  </outline>
</glyph>
<glyph name="semicolon" format="1">
  <advance width="255"/>
  <unicode hex="003B"/>
  <outline>
    <contour>
      <point x="44" y="-143"/>
      <point x="46" y="-154"/>
      <point x="60" y="-154" type="curve" smooth="yes"/>
      <point x="84" y="-154"/>
      <point x="147" y="-75"/>
      <point x="147" y="13" type="curve" smooth="yes"/>
      <point x="147" y="55"/>
      <point x="133" y="86"/>
      <point x="112" y="86" type="curve" smooth="yes"/>
      <point x="99" y="86"/>
      <point x="61" y="59"/>
      <point x="61" y="27" type="curve" smooth="yes"/>
      <point x="61" y="3"/>
      <point x="104" y="16"/>
      <point x="104" y="-27" type="curve" smooth="yes"/>
      <point x="104" y="-88"/>
      <point x="44" y="-122"/>
      <point x="44" y="-138" type="curve" smooth="yes"/>
    </contour>
    <contour>
      <point x="102" y="337"/>
      <point x="125" y="302"/>
      <point x="140" y="302" type="curve" smooth="yes"/>
      <point x="158" y="302"/>
      <point x="186" y="337"/>
      <point x="186" y="349" type="curve" smooth="yes"/>
      <point x="186" y="364"/>
      <point x="163" y="396"/>
      <point x="146" y="396" type="curve" smooth="yes"/>
      <point x="133" y="396"/>
      <point x="102" y="368"/>
      <point x="102" y="349" type="curve" smooth="yes"/>
    </contour>
  </outline>
</glyph>
<glyph name="less" format="1">
  <advance width="761"/>
  <unicode hex="003C"/>
  <outline>
    <contour>
      <point x="59" y="233" type="line"/>
      <point x="702" y="-75" type="line"/>
      <point x="702" y="-8" type="line"/>
      <point x="163" y="244" type="line"/>
      <point x="702" y="496" type="line"/>
      <point x="702" y="563" type="line"/>
      <point x="59" y="255" type="line"/>
    </contour>
  </outline>
</glyph>
<glyph name="question" format="1">
  <advance width="364"/>
  <unicode hex="003F"/>
  <outline>
    <contour>
      <point x="103" y="181"/>
      <point x="148" y="146"/>
      <point x="164" y="146" type="curve" smooth="yes"/>
      <point x="171" y="146"/>
      <point x="177" y="150"/>
      <point x="177" y="157" type="curve" smooth="yes"/>
      <point x="177" y="167"/>
      <point x="155" y="180"/>
      <point x="155" y="220" type="curve" smooth="yes"/>
      <point x="155" y="307"/>
      <point x="340" y="422"/>
      <point x="340" y="486" type="curve" smooth="yes"/>
      <point x="340" y="586"/>
      <point x="237" y="667"/>
      <point x="188" y="667" type="curve" smooth="yes"/>
      <point x="144" y="667"/>
      <point x="118" y="622"/>
      <point x="118" y="606" type="curve" smooth="yes"/>
      <point x="118" y="597"/>
      <point x="122" y="594"/>
      <point x="131" y="594" type="curve" smooth="yes"/>
      <point x="159" y="594"/>
      <point x="200" y="604"/>
      <point x="216" y="604" type="curve" smooth="yes"/>
      <point x="246" y="604"/>
      <point x="276" y="584"/>
      <point x="276" y="548" type="curve" smooth="yes"/>
      <point x="276" y="447"/>
      <point x="103" y="356"/>
      <point x="103" y="257" type="curve" smooth="yes"/>
    </contour>
    <contour>
      <point x="120" y="26"/>
      <point x="143" y="-9"/>
      <point x="158" y="-9" type="curve" smooth="yes"/>
      <point x="176" y="-9"/>
      <point x="204" y="26"/>
      <point x="204" y="38" type="curve" smooth="yes"/>
      <point x="204" y="53"/>
      <point x="181" y="85"/>
      <point x="164" y="85" type="curve" smooth="yes"/>
      <point x="151" y="85"/>
      <point x="120" y="57"/>
      <point x="120" y="38" type="curve" smooth="yes"/>
    </contour>
  </outline>
</glyph>
<glyph name="at" format="1">
  <advance width="810"/>
  <unicode hex="0040"/>
  <outline>
    <contour>
      <point x="55" y="2"/>
      <point x="157" y="-151"/>
      <point x="383" y="-151" type="curve" smooth="yes"/>
      <point x="521" y="-151"/>
      <point x="640" y="-93"/>
      <point x="695" y="-7" type="curve"/>
      <point x="683" y="4" type="line"/>
      <point x="618" y="-69"/>
      <point x="516" y="-113"/>
      <point x="402" y="-113" type="curve" smooth="yes"/>
      <point x="205" y="-113"/>
      <point x="121" y="22"/>
      <point x="121" y="184" type="curve" smooth="yes"/>
      <point x="121" y="320"/>
      <point x="206" y="509"/>
      <point x="429" y="509" type="curve" smooth="yes"/>
      <point x="663" y="509"/>
      <point x="689" y="352"/>
      <point x="689" y="280" type="curve" smooth="yes"/>
      <point x="689" y="121"/>
      <point x="603" y="59"/>
      <point x="547" y="59" type="curve" smooth="yes"/>
      <point x="510" y="59"/>
      <point x="498" y="73"/>
      <point x="498" y="121" type="curve" smooth="yes"/>
      <point x="498" y="189"/>
      <point x="533" y="391"/>
      <point x="533" y="400" type="curve" smooth="yes"/>
      <point x="533" y="411"/>
      <point x="530" y="412"/>
      <point x="515" y="412" type="curve" smooth="yes"/>
      <point x="505" y="412" type="line" smooth="yes"/>
      <point x="499" y="412"/>
      <point x="485" y="412"/>
      <point x="482" y="395" type="curve" smooth="yes"/>
      <point x="472" y="339" type="line"/>
      <point x="472" y="339"/>
      <point x="457" y="400"/>
      <point x="421" y="400" type="curve" smooth="yes"/>
      <point x="389" y="400"/>
      <point x="318" y="319"/>
      <point x="302" y="293" type="curve" smooth="yes"/>
      <point x="258" y="222"/>
      <point x="239" y="185"/>
      <point x="239" y="99" type="curve" smooth="yes"/>
      <point x="239" y="7"/>
      <point x="268" y="-11"/>
      <point x="288" y="-11" type="curve" smooth="yes"/>
      <point x="304" y="-11"/>
      <point x="345" y="14"/>
      <point x="370" y="44" type="curve" smooth="yes"/>
      <point x="400" y="81"/>
      <point x="425" y="126"/>
      <point x="437" y="149" type="curve"/>
      <point x="434" y="111"/>
      <point x="432" y="83"/>
      <point x="432" y="61" type="curve" smooth="yes"/>
      <point x="432" y="0"/>
      <point x="463" y="-11"/>
      <point x="474" y="-11" type="curve" smooth="yes"/>
      <point x="599" y="-11"/>
      <point x="725" y="109"/>
      <point x="725" y="286" type="curve" smooth="yes"/>
      <point x="725" y="392"/>
      <point x="667" y="539"/>
      <point x="426" y="539" type="curve" smooth="yes"/>
      <point x="195" y="539"/>
      <point x="55" y="347"/>
      <point x="55" y="178" type="curve" smooth="yes"/>
    </contour>
    <contour>
      <point x="290" y="235"/>
      <point x="363" y="355"/>
      <point x="398" y="355" type="curve" smooth="yes"/>
      <point x="418" y="355"/>
      <point x="459" y="321"/>
      <point x="459" y="290" type="curve" smooth="yes"/>
      <point x="459" y="230"/>
      <point x="366" y="59"/>
      <point x="327" y="59" type="curve" smooth="yes"/>
      <point x="312" y="59"/>
      <point x="290" y="86"/>
      <point x="290" y="131" type="curve" smooth="yes"/>
    </contour>
  </outline>
</glyph>
<glyph name="A" format="1">
  <advance width="655"/>
  <unicode hex="0041"/>
  <outline>
    <contour>
      <point x="20" y="0" type="line"/>
      <point x="214" y="0" type="line"/>
      <point x="216" y="32" type="line"/>
      <point x="197" y="32" type="line" smooth="yes"/>
      <point x="148" y="32"/>
      <point x="134" y="34"/>
      <point x="134" y="49" type="curve" smooth="yes"/>
      <point x="134" y="57"/>
      <point x="140" y="70"/>
      <point x="148" y="88" type="curve" smooth="yes"/>
      <point x="226" y="257" type="line"/>
      <point x="425" y="257" type="line"/>
      <point x="469" y="70" type="line" smooth="yes"/>
      <point x="471" y="62"/>
      <point x="472" y="56"/>
      <point x="472" y="51" type="curve" smooth="yes"/>
      <point x="472" y="33"/>
      <point x="458" y="32"/>
      <point x="421" y="32" type="curve" smooth="yes"/>
      <point x="392" y="32" type="line"/>
      <point x="392" y="0" type="line"/>
      <point x="625" y="0" type="line"/>
      <point x="625" y="32" type="line"/>
      <point x="596" y="32" type="line" smooth="yes"/>
      <point x="560" y="32"/>
      <point x="557" y="34"/>
      <point x="537" y="115" type="curve" smooth="yes"/>
      <point x="396" y="683" type="line"/>
      <point x="378" y="683" type="line"/>
      <point x="97" y="85" type="line" smooth="yes"/>
      <point x="74" y="35"/>
      <point x="63" y="32"/>
      <point x="36" y="32" type="curve" smooth="yes"/>
      <point x="20" y="32" type="line"/>
    </contour>
    <contour>
      <point x="242" y="296" type="line"/>
      <point x="353" y="548" type="line"/>
      <point x="416" y="296" type="line"/>
    </contour>
  </outline>
</glyph>
<glyph name="B" format="1">
  <advance width="556"/>
  <unicode hex="0042"/>
  <outline>
    <contour>
      <point x="15" y="0" type="line"/>
      <point x="201" y="0" type="line" smooth="yes"/>
      <point x="309" y="0"/>
      <point x="397" y="5"/>
      <point x="461" y="80" type="curve" smooth="yes"/>
      <point x="491" y="115"/>
      <point x="511" y="164"/>
      <point x="511" y="212" type="curve" smooth="yes"/>
      <point x="511" y="354"/>
      <point x="347" y="376"/>
      <point x="347" y="376" type="curve" smooth="yes"/>
      <point x="347" y="376"/>
      <point x="491" y="384"/>
      <point x="491" y="519" type="curve" smooth="yes"/>
      <point x="491" y="578"/>
      <point x="451" y="667"/>
      <point x="292" y="667" type="curve" smooth="yes"/>
      <point x="35" y="667" type="line"/>
      <point x="35" y="635" type="line"/>
      <point x="79" y="635" type="line" smooth="yes"/>
      <point x="117" y="635"/>
      <point x="128" y="635"/>
      <point x="128" y="618" type="curve" smooth="yes"/>
      <point x="128" y="614"/>
      <point x="127" y="608"/>
      <point x="89" y="62" type="curve" smooth="yes"/>
      <point x="87" y="34"/>
      <point x="82" y="32"/>
      <point x="48" y="32" type="curve" smooth="yes"/>
      <point x="16" y="32" type="line"/>
    </contour>
    <contour>
      <point x="160" y="69" type="line"/>
      <point x="180" y="367" type="line"/>
      <point x="241" y="367"/>
      <point x="310" y="355"/>
      <point x="360" y="326" type="curve" smooth="yes"/>
      <point x="399" y="304"/>
      <point x="423" y="266"/>
      <point x="423" y="211" type="curve" smooth="yes"/>
      <point x="423" y="174"/>
      <point x="410" y="32"/>
      <point x="199" y="32" type="curve" smooth="yes"/>
      <point x="167" y="32"/>
      <point x="160" y="44"/>
      <point x="160" y="63" type="curve" smooth="yes"/>
    </contour>
    <contour>
      <point x="198" y="621" type="line" smooth="yes"/>
      <point x="199" y="634"/>
      <point x="210" y="642"/>
      <point x="231" y="642" type="curve" smooth="yes"/>
      <point x="312" y="642"/>
      <point x="410" y="619"/>
      <point x="410" y="506" type="curve" smooth="yes"/>
      <point x="410" y="412"/>
      <point x="313" y="389"/>
      <point x="268" y="389" type="curve" smooth="yes"/>
      <point x="256" y="389" type="line"/>
      <point x="241" y="390"/>
      <point x="192" y="392"/>
      <point x="182" y="392" type="curve"/>
    </contour>
  </outline>
</glyph>
<glyph name="D" format="1">
  <advance width="729"/>
  <unicode hex="0044"/>
  <outline>
    <contour>
      <point x="22" y="0" type="line"/>
      <point x="281" y="0" type="line" smooth="yes"/>
      <point x="386" y="0"/>
      <point x="484" y="19"/>
      <point x="572" y="110" type="curve" smooth="yes"/>
      <point x="643" y="183"/>
      <point x="679" y="281"/>
      <point x="679" y="373" type="curve" smooth="yes"/>
      <point x="679" y="437"/>
      <point x="662" y="499"/>
      <point x="626" y="550" type="curve" smooth="yes"/>
      <point x="565" y="636"/>
      <point x="495" y="667"/>
      <point x="306" y="667" type="curve" smooth="yes"/>
      <point x="40" y="667" type="line"/>
      <point x="38" y="635" type="line"/>
      <point x="80" y="635" type="line" smooth="yes"/>
      <point x="118" y="635"/>
      <point x="125" y="635"/>
      <point x="125" y="618" type="curve" smooth="yes"/>
      <point x="125" y="614"/>
      <point x="124" y="608"/>
      <point x="81" y="62" type="curve" smooth="yes"/>
      <point x="79" y="34"/>
      <point x="76" y="32"/>
      <point x="42" y="32" type="curve" smooth="yes"/>
      <point x="24" y="32" type="line"/>
    </contour>
    <contour>
      <point x="155" y="109"/>
      <point x="183" y="439"/>
      <point x="198" y="621" type="curve" smooth="yes"/>
      <point x="199" y="634"/>
      <point x="204" y="635"/>
      <point x="225" y="635" type="curve" smooth="yes"/>
      <point x="325" y="635" type="line" smooth="yes"/>
      <point x="544" y="635"/>
      <point x="599" y="475"/>
      <point x="599" y="359" type="curve" smooth="yes"/>
      <point x="599" y="237"/>
      <point x="538" y="32"/>
      <point x="292" y="32" type="curve" smooth="yes"/>
      <point x="227" y="32" type="line" smooth="yes"/>
      <point x="167" y="32"/>
      <point x="155" y="33"/>
      <point x="155" y="66" type="curve" smooth="yes"/>
    </contour>
  </outline>
</glyph>
<glyph name="F" format="1">
  <advance width="543"/>
  <unicode hex="0046"/>
  <outline>
    <contour>
      <point x="19" y="0" type="line"/>
      <point x="250" y="0" type="line"/>
      <point x="252" y="32" type="line"/>
      <point x="186" y="32" type="line" smooth="yes"/>
      <point x="167" y="32"/>
      <point x="162" y="41"/>
      <point x="162" y="56" type="curve" smooth="yes"/>
      <point x="162" y="63"/>
      <point x="163" y="80"/>
      <point x="164" y="93" type="curve" smooth="yes"/>
      <point x="184" y="359" type="line"/>
      <point x="366" y="359" type="line" smooth="yes"/>
      <point x="389" y="359"/>
      <point x="395" y="354"/>
      <point x="395" y="336" type="curve" smooth="yes"/>
      <point x="395" y="329"/>
      <point x="394" y="315"/>
      <point x="390" y="261" type="curve"/>
      <point x="416" y="261" type="line"/>
      <point x="432" y="472" type="line"/>
      <point x="407" y="473" type="line"/>
      <point x="402" y="424" type="line" smooth="yes"/>
      <point x="399" y="400"/>
      <point x="399" y="398"/>
      <point x="371" y="398" type="curve" smooth="yes"/>
      <point x="187" y="398" type="line"/>
      <point x="205" y="621" type="line" smooth="yes"/>
      <point x="206" y="635"/>
      <point x="212" y="635"/>
      <point x="233" y="635" type="curve" smooth="yes"/>
      <point x="464" y="631"/>
      <point x="483" y="633"/>
      <point x="483" y="597" type="curve" smooth="yes"/>
      <point x="483" y="539" type="line"/>
      <point x="513" y="540" type="line"/>
      <point x="513" y="667" type="line"/>
      <point x="50" y="667" type="line"/>
      <point x="50" y="635" type="line"/>
      <point x="105" y="635" type="line" smooth="yes"/>
      <point x="127" y="635"/>
      <point x="136" y="635"/>
      <point x="136" y="619" type="curve" smooth="yes"/>
      <point x="136" y="600"/>
      <point x="131" y="554"/>
      <point x="90" y="62" type="curve" smooth="yes"/>
      <point x="88" y="34"/>
      <point x="83" y="32"/>
      <point x="49" y="32" type="curve" smooth="yes"/>
      <point x="21" y="32" type="line"/>
    </contour>
  </outline>
</glyph>
<glyph name="M" format="1">
  <advance width="825"/>
  <unicode hex="004D"/>
  <outline>
    <contour>
      <point x="30" y="0" type="line"/>
      <point x="219" y="0" type="line"/>
      <point x="219" y="32" type="line"/>
      <point x="166" y="32" type="line" smooth="yes"/>
      <point x="141" y="32"/>
      <point x="136" y="37"/>
      <point x="136" y="51" type="curve" smooth="yes"/>
      <point x="136" y="55"/>
      <point x="161" y="384"/>
      <point x="173" y="539" type="curve"/>
      <point x="359" y="12" type="line" smooth="yes"/>
      <point x="367" y="-10"/>
      <point x="369" y="-17"/>
      <point x="377" y="-17" type="curve" smooth="yes"/>
      <point x="384" y="-17"/>
      <point x="388" y="-6"/>
      <point x="397" y="12" type="curve" smooth="yes"/>
      <point x="661" y="546" type="line"/>
      <point x="632" y="62" type="line" smooth="yes"/>
      <point x="630" y="34"/>
      <point x="625" y="32"/>
      <point x="591" y="32" type="curve" smooth="yes"/>
      <point x="550" y="32" type="line"/>
      <point x="548" y="0" type="line"/>
      <point x="781" y="0" type="line"/>
      <point x="781" y="32" type="line"/>
      <point x="734" y="32" type="line" smooth="yes"/>
      <point x="717" y="32"/>
      <point x="703" y="32"/>
      <point x="703" y="66" type="curve" smooth="yes"/>
      <point x="703" y="70"/>
      <point x="703" y="75"/>
      <point x="732" y="559" type="curve" smooth="yes"/>
      <point x="737" y="635"/>
      <point x="736" y="635"/>
      <point x="774" y="635" type="curve" smooth="yes"/>
      <point x="815" y="635" type="line"/>
      <point x="815" y="667" type="line"/>
      <point x="685" y="667" type="line"/>
      <point x="402" y="100" type="line"/>
      <point x="204" y="667" type="line"/>
      <point x="34" y="667" type="line"/>
      <point x="32" y="635" type="line"/>
      <point x="112" y="635" type="line" smooth="yes"/>
      <point x="128" y="635"/>
      <point x="135" y="633"/>
      <point x="139" y="622" type="curve" smooth="yes"/>
      <point x="148" y="598" type="line"/>
      <point x="100" y="75" type="line" smooth="yes"/>
      <point x="96" y="35"/>
      <point x="94" y="32"/>
      <point x="54" y="32" type="curve" smooth="yes"/>
      <point x="32" y="32" type="line"/>
    </contour>
  </outline>
</glyph>
<glyph name="O" format="1">
  <advance width="728"/>
  <unicode hex="004F"/>
  <outline>
    <contour>
      <point x="45" y="81"/>
      <point x="177" y="-16"/>
      <point x="321" y="-16" type="curve" smooth="yes"/>
      <point x="553" y="-16"/>
      <point x="678" y="188"/>
      <point x="678" y="376" type="curve" smooth="yes"/>
      <point x="678" y="537"/>
      <point x="587" y="686"/>
      <point x="392" y="686" type="curve" smooth="yes"/>
      <point x="184" y="686"/>
      <point x="45" y="513"/>
      <point x="45" y="297" type="curve" smooth="yes"/>
    </contour>
    <contour>
      <point x="127" y="538"/>
      <point x="257" y="654"/>
      <point x="381" y="654" type="curve" smooth="yes"/>
      <point x="491" y="654"/>
      <point x="596" y="561"/>
      <point x="596" y="368" type="curve" smooth="yes"/>
      <point x="596" y="140"/>
      <point x="466" y="20"/>
      <point x="343" y="20" type="curve" smooth="yes"/>
      <point x="232" y="20"/>
      <point x="127" y="116"/>
      <point x="127" y="318" type="curve" smooth="yes"/>
    </contour>
  </outline>
</glyph>
<glyph name="P" format="1">
  <advance width="566"/>
  <unicode hex="0050"/>
  <outline>
    <contour>
      <point x="20" y="0" type="line"/>
      <point x="251" y="0" type="line"/>
      <point x="253" y="32" type="line"/>
      <point x="174" y="32" type="line" smooth="yes"/>
      <point x="158" y="32"/>
      <point x="153" y="40"/>
      <point x="153" y="57" type="curve" smooth="yes"/>
      <point x="153" y="65"/>
      <point x="155" y="84"/>
      <point x="155" y="89" type="curve"/>
      <point x="172" y="285" type="line"/>
      <point x="172" y="285"/>
      <point x="219" y="275"/>
      <point x="271" y="275" type="curve" smooth="yes"/>
      <point x="410" y="275"/>
      <point x="536" y="363"/>
      <point x="536" y="496" type="curve" smooth="yes"/>
      <point x="536" y="607"/>
      <point x="454" y="667"/>
      <point x="297" y="667" type="curve" smooth="yes"/>
      <point x="55" y="667" type="line"/>
      <point x="54" y="635" type="line"/>
      <point x="83" y="635" type="line" smooth="yes"/>
      <point x="121" y="635"/>
      <point x="132" y="635"/>
      <point x="132" y="619" type="curve" smooth="yes"/>
      <point x="132" y="613"/>
      <point x="131" y="609"/>
      <point x="83" y="62" type="curve" smooth="yes"/>
      <point x="81" y="34"/>
      <point x="76" y="32"/>
      <point x="42" y="32" type="curve" smooth="yes"/>
      <point x="20" y="32" type="line"/>
    </contour>
    <contour>
      <point x="201" y="612" type="line" smooth="yes"/>
      <point x="203" y="634"/>
      <point x="209" y="635"/>
      <point x="235" y="635" type="curve" smooth="yes"/>
      <point x="315" y="635"/>
      <point x="450" y="624"/>
      <point x="450" y="484" type="curve" smooth="yes"/>
      <point x="450" y="434"/>
      <point x="417" y="307"/>
      <point x="241" y="307" type="curve" smooth="yes"/>
      <point x="198" y="307"/>
      <point x="176" y="312"/>
      <point x="176" y="312" type="curve"/>
    </contour>
  </outline>
</glyph>
<glyph name="Q" format="1">
  <advance width="712"/>
  <unicode hex="0051"/>
  <outline>
    <contour>
      <point x="20" y="-6"/>
      <point x="110" y="-21"/>
      <point x="174" y="-21" type="curve" smooth="yes"/>
      <point x="214" y="-21"/>
      <point x="252" y="-14"/>
      <point x="252" y="-14" type="curve" smooth="yes"/>
      <point x="252" y="-14"/>
      <point x="342" y="-77"/>
      <point x="446" y="-142" type="curve" smooth="yes"/>
      <point x="512" y="-183"/>
      <point x="589" y="-210"/>
      <point x="649" y="-210" type="curve" smooth="yes"/>
      <point x="692" y="-210"/>
      <point x="736" y="-187"/>
      <point x="754" y="-163" type="curve" smooth="yes"/>
      <point x="761" y="-153"/>
      <point x="764" y="-145"/>
      <point x="764" y="-139" type="curve" smooth="yes"/>
      <point x="764" y="-135"/>
      <point x="762" y="-126"/>
      <point x="754" y="-126" type="curve" smooth="yes"/>
      <point x="737" y="-126"/>
      <point x="733" y="-147"/>
      <point x="685" y="-147" type="curve" smooth="yes"/>
      <point x="581" y="-147"/>
      <point x="349" y="2"/>
      <point x="349" y="2" type="curve" smooth="yes"/>
      <point x="349" y="2"/>
      <point x="662" y="89"/>
      <point x="662" y="401" type="curve" smooth="yes"/>
      <point x="662" y="596"/>
      <point x="515" y="686"/>
      <point x="372" y="686" type="curve" smooth="yes"/>
      <point x="180" y="686"/>
      <point x="84" y="534"/>
      <point x="84" y="411" type="curve" smooth="yes"/>
      <point x="84" y="297"/>
      <point x="178" y="235"/>
      <point x="265" y="235" type="curve" smooth="yes"/>
      <point x="341" y="235"/>
      <point x="393" y="284"/>
      <point x="393" y="312" type="curve" smooth="yes"/>
      <point x="393" y="323"/>
      <point x="384" y="324"/>
      <point x="382" y="324" type="curve" smooth="yes"/>
      <point x="366" y="324"/>
      <point x="364" y="281"/>
      <point x="300" y="281" type="curve" smooth="yes"/>
      <point x="197" y="281"/>
      <point x="159" y="365"/>
      <point x="159" y="443" type="curve" smooth="yes"/>
      <point x="159" y="565"/>
      <point x="253" y="650"/>
      <point x="356" y="650" type="curve" smooth="yes"/>
      <point x="429" y="650"/>
      <point x="581" y="599"/>
      <point x="581" y="394" type="curve" smooth="yes"/>
      <point x="581" y="218"/>
      <point x="450" y="15"/>
      <point x="174" y="15" type="curve" smooth="yes"/>
      <point x="78" y="15"/>
      <point x="52" y="47"/>
      <point x="37" y="47" type="curve" smooth="yes"/>
      <point x="27" y="47"/>
      <point x="20" y="37"/>
      <point x="20" y="28" type="curve" smooth="yes"/>
    </contour>
  </outline>
</glyph>
<glyph name="S" format="1">
  <advance width="468"/>
  <unicode hex="0053"/>
  <outline>
    <contour>
      <point x="10" y="175" type="line"/>
      <point x="26" y="83"/>
      <point x="29" y="52"/>
      <point x="38" y="-40" type="curve"/>
      <point x="66" y="-39" type="line"/>
      <point x="66" y="-39"/>
      <point x="64" y="-14"/>
      <point x="64" y="-8" type="curve" smooth="yes"/>
      <point x="64" y="1"/>
      <point x="65" y="4"/>
      <point x="80" y="4" type="curve" smooth="yes"/>
      <point x="102" y="4"/>
      <point x="123" y="-11"/>
      <point x="188" y="-11" type="curve" smooth="yes"/>
      <point x="330" y="-11"/>
      <point x="399" y="97"/>
      <point x="399" y="180" type="curve" smooth="yes"/>
      <point x="399" y="275"/>
      <point x="311" y="335"/>
      <point x="292" y="352" type="curve" smooth="yes"/>
      <point x="257" y="382" type="line" smooth="yes"/>
      <point x="198" y="433"/>
      <point x="140" y="475"/>
      <point x="140" y="548" type="curve" smooth="yes"/>
      <point x="140" y="611"/>
      <point x="188" y="643"/>
      <point x="250" y="643" type="curve" smooth="yes"/>
      <point x="332" y="643"/>
      <point x="386" y="583"/>
      <point x="386" y="583" type="curve"/>
      <point x="390" y="529" type="line"/>
      <point x="418" y="531" type="line"/>
      <point x="407" y="687" type="line"/>
      <point x="380" y="687" type="line"/>
      <point x="380" y="680" type="line" smooth="yes"/>
      <point x="380" y="666"/>
      <point x="377" y="660"/>
      <point x="365" y="660" type="curve" smooth="yes"/>
      <point x="358" y="660"/>
      <point x="305" y="681"/>
      <point x="253" y="681" type="curve" smooth="yes"/>
      <point x="147" y="681"/>
      <point x="70" y="607"/>
      <point x="70" y="526" type="curve" smooth="yes"/>
      <point x="70" y="458"/>
      <point x="117" y="398"/>
      <point x="157" y="364" type="curve" smooth="yes"/>
      <point x="206" y="322" type="line" smooth="yes"/>
      <point x="266" y="270"/>
      <point x="328" y="235"/>
      <point x="328" y="156" type="curve" smooth="yes"/>
      <point x="328" y="86"/>
      <point x="280" y="24"/>
      <point x="196" y="24" type="curve" smooth="yes"/>
      <point x="169" y="24"/>
      <point x="138" y="30"/>
      <point x="104" y="45" type="curve" smooth="yes"/>
      <point x="68" y="60"/>
      <point x="53" y="79"/>
      <point x="48" y="112" type="curve" smooth="yes"/>
      <point x="38" y="180" type="line"/>
    </contour>
  </outline>
</glyph>
<glyph name="T" format="1">
  <advance width="617"/>
  <unicode hex="0054"/>
  <outline>
    <contour>
      <point x="46" y="507" type="line"/>
      <point x="61" y="610"/>
      <point x="62" y="623"/>
      <point x="112" y="623" type="curve" smooth="yes"/>
      <point x="237" y="623" type="line" smooth="yes"/>
      <point x="269" y="623"/>
      <point x="280" y="620"/>
      <point x="280" y="607" type="curve" smooth="yes"/>
      <point x="280" y="602"/>
      <point x="279" y="593"/>
      <point x="279" y="590" type="curve"/>
      <point x="242" y="62" type="line" smooth="yes"/>
      <point x="240" y="34"/>
      <point x="235" y="32"/>
      <point x="201" y="32" type="curve" smooth="yes"/>
      <point x="148" y="32" type="line"/>
      <point x="148" y="0" type="line"/>
      <point x="405" y="0" type="line"/>
      <point x="407" y="32" type="line"/>
      <point x="341" y="32" type="line" smooth="yes"/>
      <point x="313" y="32"/>
      <point x="313" y="38"/>
      <point x="313" y="60" type="curve" smooth="yes"/>
      <point x="313" y="65"/>
      <point x="314" y="75"/>
      <point x="314" y="79" type="curve"/>
      <point x="349" y="595" type="line" smooth="yes"/>
      <point x="351" y="623"/>
      <point x="352" y="623"/>
      <point x="404" y="623" type="curve" smooth="yes"/>
      <point x="519" y="623" type="line" smooth="yes"/>
      <point x="553" y="623"/>
      <point x="564" y="622"/>
      <point x="564" y="595" type="curve" smooth="yes"/>
      <point x="564" y="578"/>
      <point x="560" y="552"/>
      <point x="554" y="510" type="curve"/>
      <point x="590" y="509" type="line"/>
      <point x="595" y="562"/>
      <point x="605" y="616"/>
      <point x="612" y="667" type="curve"/>
      <point x="35" y="667" type="line"/>
      <point x="28" y="616"/>
      <point x="20" y="568"/>
      <point x="10" y="508" type="curve"/>
    </contour>
  </outline>
</glyph>
<glyph name="V" format="1">
  <advance width="633"/>
  <unicode hex="0056"/>
  <outline>
    <contour>
      <point x="10" y="635" type="line"/>
      <point x="49" y="635" type="line" smooth="yes"/>
      <point x="81" y="635"/>
      <point x="82" y="634"/>
      <point x="99" y="570" type="curve" smooth="yes"/>
      <point x="256" y="-15" type="line"/>
      <point x="278" y="-15" type="line"/>
      <point x="525" y="540" type="line" smooth="yes"/>
      <point x="558" y="614"/>
      <point x="561" y="635"/>
      <point x="599" y="635" type="curve" smooth="yes"/>
      <point x="621" y="635" type="line"/>
      <point x="623" y="667" type="line"/>
      <point x="425" y="667" type="line"/>
      <point x="425" y="635" type="line"/>
      <point x="458" y="635" type="line" smooth="yes"/>
      <point x="490" y="635"/>
      <point x="505" y="633"/>
      <point x="505" y="618" type="curve" smooth="yes"/>
      <point x="505" y="614"/>
      <point x="505" y="606"/>
      <point x="502" y="600" type="curve"/>
      <point x="297" y="114" type="line"/>
      <point x="177" y="588" type="line" smooth="yes"/>
      <point x="173" y="604"/>
      <point x="170" y="615"/>
      <point x="170" y="622" type="curve" smooth="yes"/>
      <point x="170" y="633"/>
      <point x="177" y="635"/>
      <point x="198" y="635" type="curve" smooth="yes"/>
      <point x="244" y="635" type="line"/>
      <point x="244" y="667" type="line"/>
      <point x="11" y="667" type="line"/>
    </contour>
  </outline>
</glyph>
<glyph name="W" format="1">
  <advance width="998"/>
  <unicode hex="0057"/>
  <outline>
    <contour>
      <point x="10" y="635" type="line"/>
      <point x="47" y="635" type="line" smooth="yes"/>
      <point x="79" y="635"/>
      <point x="80" y="634"/>
      <point x="97" y="570" type="curve" smooth="yes"/>
      <point x="254" y="-15" type="line"/>
      <point x="276" y="-15" type="line"/>
      <point x="492" y="477" type="line"/>
      <point x="620" y="-15" type="line"/>
      <point x="642" y="-15" type="line"/>
      <point x="885" y="540" type="line" smooth="yes"/>
      <point x="925" y="631"/>
      <point x="921" y="635"/>
      <point x="959" y="635" type="curve" smooth="yes"/>
      <point x="986" y="635" type="line"/>
      <point x="988" y="667" type="line"/>
      <point x="782" y="667" type="line"/>
      <point x="782" y="635" type="line"/>
      <point x="841" y="635" type="line" smooth="yes"/>
      <point x="856" y="635"/>
      <point x="868" y="633"/>
      <point x="868" y="620" type="curve" smooth="yes"/>
      <point x="868" y="616"/>
      <point x="862" y="597"/>
      <point x="860" y="592" type="curve" smooth="yes"/>
      <point x="661" y="114" type="line"/>
      <point x="541" y="588" type="line" smooth="yes"/>
      <point x="537" y="604"/>
      <point x="534" y="615"/>
      <point x="534" y="622" type="curve" smooth="yes"/>
      <point x="534" y="633"/>
      <point x="541" y="635"/>
      <point x="562" y="635" type="curve" smooth="yes"/>
      <point x="614" y="635" type="line"/>
      <point x="616" y="667" type="line"/>
      <point x="378" y="667" type="line"/>
      <point x="377" y="635" type="line"/>
      <point x="416" y="635" type="line" smooth="yes"/>
      <point x="443" y="635"/>
      <point x="454" y="635"/>
      <point x="468" y="571" type="curve" smooth="yes"/>
      <point x="475" y="540" type="line"/>
      <point x="295" y="114" type="line"/>
      <point x="172" y="588" type="line" smooth="yes"/>
      <point x="168" y="604"/>
      <point x="165" y="615"/>
      <point x="165" y="622" type="curve" smooth="yes"/>
      <point x="165" y="633"/>
      <point x="172" y="635"/>
      <point x="193" y="635" type="curve" smooth="yes"/>
      <point x="244" y="635" type="line"/>
      <point x="246" y="667" type="line"/>
      <point x="11" y="667" type="line"/>
    </contour>
  </outline>
</glyph>
<glyph name="X" format="1">
  <advance width="715"/>
  <unicode hex="0058"/>
  <outline>
    <contour>
      <point x="15" y="15"/>
      <point x="30" y="-10"/>
      <point x="64" y="-10" type="curve" smooth="yes"/>
      <point x="111" y="-10"/>
      <point x="215" y="20"/>
      <point x="356" y="286" type="curve"/>
      <point x="460" y="64"/>
      <point x="483" y="-8"/>
      <point x="555" y="-8" type="curve" smooth="yes"/>
      <point x="578" y="-8"/>
      <point x="660" y="13"/>
      <point x="664" y="113" type="curve"/>
      <point x="664" y="125"/>
      <point x="662" y="137"/>
      <point x="651" y="137" type="curve" smooth="yes"/>
      <point x="637" y="137"/>
      <point x="635" y="122"/>
      <point x="633" y="113" type="curve"/>
      <point x="626" y="86"/>
      <point x="604" y="51"/>
      <point x="581" y="51" type="curve" smooth="yes"/>
      <point x="567" y="51"/>
      <point x="551" y="62"/>
      <point x="534" y="94" type="curve" smooth="yes"/>
      <point x="513" y="134"/>
      <point x="475" y="211"/>
      <point x="404" y="361" type="curve"/>
      <point x="404" y="361"/>
      <point x="563" y="631"/>
      <point x="637" y="631" type="curve" smooth="yes"/>
      <point x="659" y="631"/>
      <point x="652" y="610"/>
      <point x="665" y="610" type="curve" smooth="yes"/>
      <point x="688" y="610"/>
      <point x="700" y="626"/>
      <point x="700" y="642" type="curve" smooth="yes"/>
      <point x="700" y="660"/>
      <point x="686" y="678"/>
      <point x="655" y="678" type="curve" smooth="yes"/>
      <point x="546" y="678"/>
      <point x="441" y="490"/>
      <point x="386" y="401" type="curve"/>
      <point x="362" y="453"/>
      <point x="330" y="520"/>
      <point x="299" y="575" type="curve" smooth="yes"/>
      <point x="258" y="648"/>
      <point x="212" y="677"/>
      <point x="172" y="677" type="curve" smooth="yes"/>
      <point x="115" y="677"/>
      <point x="75" y="623"/>
      <point x="75" y="557" type="curve" smooth="yes"/>
      <point x="75" y="529"/>
      <point x="82" y="498"/>
      <point x="99" y="469" type="curve" smooth="yes"/>
      <point x="103" y="462"/>
      <point x="108" y="460"/>
      <point x="112" y="460" type="curve" smooth="yes"/>
      <point x="121" y="460"/>
      <point x="123" y="470"/>
      <point x="118" y="480" type="curve" smooth="yes"/>
      <point x="111" y="494"/>
      <point x="102" y="517"/>
      <point x="102" y="545" type="curve" smooth="yes"/>
      <point x="102" y="590"/>
      <point x="130" y="615"/>
      <point x="152" y="615" type="curve" smooth="yes"/>
      <point x="215" y="615"/>
      <point x="290" y="429"/>
      <point x="337" y="328" type="curve"/>
      <point x="337" y="328"/>
      <point x="181" y="52"/>
      <point x="83" y="52" type="curve" smooth="yes"/>
      <point x="46" y="52"/>
      <point x="70" y="84"/>
      <point x="52" y="84" type="curve" smooth="yes"/>
      <point x="29" y="84"/>
      <point x="15" y="62"/>
      <point x="15" y="39" type="curve" smooth="yes"/>
    </contour>
  </outline>
</glyph>
<glyph name="Z" format="1">
  <advance width="642"/>
  <unicode hex="005A"/>
  <outline>
    <contour>
      <point x="0" y="-15"/>
      <point x="2" y="-26"/>
      <point x="13" y="-26" type="curve" smooth="yes"/>
      <point x="20" y="-26"/>
      <point x="26" y="-23"/>
      <point x="35" y="-12" type="curve" smooth="yes"/>
      <point x="60" y="19"/>
      <point x="74" y="21"/>
      <point x="153" y="21" type="curve" smooth="yes"/>
      <point x="224" y="21"/>
      <point x="386" y="-16"/>
      <point x="469" y="-16" type="curve" smooth="yes"/>
      <point x="600" y="-16"/>
      <point x="622" y="92"/>
      <point x="622" y="156" type="curve" smooth="yes"/>
      <point x="622" y="177"/>
      <point x="613" y="199"/>
      <point x="613" y="199" type="curve"/>
      <point x="596" y="194" type="line"/>
      <point x="597" y="189"/>
      <point x="598" y="183"/>
      <point x="598" y="176" type="curve" smooth="yes"/>
      <point x="598" y="134"/>
      <point x="569" y="63"/>
      <point x="477" y="63" type="curve" smooth="yes"/>
      <point x="403" y="63"/>
      <point x="257" y="87"/>
      <point x="185" y="87" type="curve" smooth="yes"/>
      <point x="163" y="87"/>
      <point x="118" y="81"/>
      <point x="118" y="81" type="curve"/>
      <point x="359" y="360" type="line"/>
      <point x="468" y="360" type="line"/>
      <point x="470" y="392" type="line"/>
      <point x="387" y="392" type="line"/>
      <point x="620" y="661" type="line"/>
      <point x="627" y="670"/>
      <point x="632" y="676"/>
      <point x="632" y="684" type="curve" smooth="yes"/>
      <point x="632" y="694"/>
      <point x="624" y="696"/>
      <point x="620" y="696" type="curve" smooth="yes"/>
      <point x="608" y="696"/>
      <point x="606" y="683"/>
      <point x="578" y="665" type="curve" smooth="yes"/>
      <point x="565" y="657"/>
      <point x="540" y="654"/>
      <point x="510" y="654" type="curve" smooth="yes"/>
      <point x="348" y="654"/>
      <point x="289" y="686"/>
      <point x="204" y="686" type="curve" smooth="yes"/>
      <point x="94" y="686"/>
      <point x="46" y="597"/>
      <point x="46" y="525" type="curve" smooth="yes"/>
      <point x="46" y="447"/>
      <point x="101" y="422"/>
      <point x="137" y="422" type="curve" smooth="yes"/>
      <point x="175" y="422"/>
      <point x="210" y="446"/>
      <point x="210" y="491" type="curve" smooth="yes"/>
      <point x="210" y="502"/>
      <point x="204" y="510"/>
      <point x="198" y="510" type="curve" smooth="yes"/>
      <point x="183" y="510"/>
      <point x="190" y="477"/>
      <point x="150" y="477" type="curve" smooth="yes"/>
      <point x="117" y="477"/>
      <point x="75" y="500"/>
      <point x="75" y="537" type="curve" smooth="yes"/>
      <point x="75" y="575"/>
      <point x="108" y="625"/>
      <point x="176" y="625" type="curve" smooth="yes"/>
      <point x="248" y="625"/>
      <point x="326" y="595"/>
      <point x="431" y="595" type="curve" smooth="yes"/>
      <point x="481" y="595"/>
      <point x="526" y="600"/>
      <point x="526" y="600" type="curve"/>
      <point x="342" y="392" type="line"/>
      <point x="235" y="392" type="line"/>
      <point x="232" y="360" type="line"/>
      <point x="314" y="360" type="line"/>
      <point x="46" y="57" type="line" smooth="yes"/>
      <point x="14" y="20"/>
      <point x="0" y="-1"/>
      <point x="0" y="-7" type="curve" smooth="yes"/>
    </contour>
  </outline>
</glyph>
<glyph name="bracketleft" format="1">
  <advance width="326"/>
  <unicode hex="005B"/>
  <outline>
    <contour>
      <point x="88" y="-231" type="line"/>
      <point x="309" y="-231" type="line"/>
      <point x="309" y="-202" type="line"/>
      <point x="150" y="-202" type="line"/>
      <point x="150" y="676" type="line"/>
      <point x="309" y="676" type="line"/>
      <point x="309" y="706" type="line"/>
      <point x="88" y="706" type="line"/>
    </contour>
  </outline>
</glyph>
<glyph name="backslash" format="1">
  <advance width="442"/>
  <unicode hex="005C"/>
  <outline>
    <contour>
      <point x="37" y="706" type="line"/>
      <point x="378" y="-231" type="line"/>
      <point x="425" y="-231" type="line"/>
      <point x="84" y="706" type="line"/>
    </contour>
  </outline>
</glyph>
<glyph name="grave" format="1">
  <advance width="390"/>
  <unicode hex="0060"/>
  <outline>
    <contour>
      <point x="123" y="610" type="line"/>
      <point x="171" y="468" type="line"/>
      <point x="199" y="468" type="line"/>
      <point x="183" y="610" type="line"/>
    </contour>
  </outline>
</glyph>
<glyph name="b" format="1">
  <advance width="339"/>
  <unicode hex="0062"/>
  <outline>
    <contour>
      <point x="11" y="653" type="line"/>
      <point x="44" y="662" type="line" smooth="yes"/>
      <point x="54" y="665"/>
      <point x="61" y="667"/>
      <point x="66" y="667" type="curve" smooth="yes"/>
      <point x="76" y="667"/>
      <point x="80" y="659"/>
      <point x="80" y="634" type="curve" smooth="yes"/>
      <point x="80" y="559"/>
      <point x="76" y="461"/>
      <point x="71" y="368" type="curve" smooth="yes"/>
      <point x="63" y="218"/>
      <point x="51" y="79"/>
      <point x="51" y="68" type="curve" smooth="yes"/>
      <point x="51" y="57"/>
      <point x="54" y="52"/>
      <point x="68" y="42" type="curve" smooth="yes"/>
      <point x="101" y="19"/>
      <point x="131" y="-4"/>
      <point x="157" y="-4" type="curve" smooth="yes"/>
      <point x="176" y="-4"/>
      <point x="233" y="53"/>
      <point x="252" y="78" type="curve" smooth="yes"/>
      <point x="308" y="152"/>
      <point x="319" y="284"/>
      <point x="319" y="294" type="curve" smooth="yes"/>
      <point x="319" y="384"/>
      <point x="281" y="398"/>
      <point x="267" y="398" type="curve" smooth="yes"/>
      <point x="236" y="398"/>
      <point x="176" y="366"/>
      <point x="110" y="270" type="curve"/>
      <point x="151" y="672"/>
      <point x="153" y="686"/>
      <point x="153" y="692" type="curve" smooth="yes"/>
      <point x="153" y="704"/>
      <point x="150" y="708"/>
      <point x="140" y="708" type="curve" smooth="yes"/>
      <point x="122" y="708"/>
      <point x="81" y="694"/>
      <point x="5" y="674" type="curve"/>
    </contour>
    <contour>
      <point x="105" y="184"/>
      <point x="107" y="218"/>
      <point x="134" y="267" type="curve" smooth="yes"/>
      <point x="160" y="315"/>
      <point x="197" y="347"/>
      <point x="217" y="347" type="curve" smooth="yes"/>
      <point x="244" y="347"/>
      <point x="272" y="300"/>
      <point x="272" y="239" type="curve" smooth="yes"/>
      <point x="272" y="150"/>
      <point x="209" y="40"/>
      <point x="178" y="40" type="curve" smooth="yes"/>
      <point x="168" y="40"/>
      <point x="105" y="73"/>
      <point x="105" y="135" type="curve" smooth="yes"/>
    </contour>
  </outline>
</glyph>
<glyph name="c" format="1">
  <advance width="277"/>
  <unicode hex="0063"/>
  <outline>
    <contour>
      <point x="20" y="52"/>
      <point x="39" y="24"/>
      <point x="64" y="4" type="curve" smooth="yes"/>
      <point x="68" y="1"/>
      <point x="77" y="-8"/>
      <point x="95" y="-8" type="curve" smooth="yes"/>
      <point x="167" y="-8"/>
      <point x="256" y="115"/>
      <point x="256" y="115" type="curve"/>
      <point x="242" y="127" type="line"/>
      <point x="231" y="116"/>
      <point x="178" y="58"/>
      <point x="130" y="58" type="curve" smooth="yes"/>
      <point x="107" y="58"/>
      <point x="72" y="93"/>
      <point x="72" y="170" type="curve" smooth="yes"/>
      <point x="72" y="253"/>
      <point x="112" y="358"/>
      <point x="148" y="358" type="curve" smooth="yes"/>
      <point x="192" y="358"/>
      <point x="218" y="330"/>
      <point x="239" y="330" type="curve" smooth="yes"/>
      <point x="253" y="330"/>
      <point x="262" y="343"/>
      <point x="262" y="368" type="curve" smooth="yes"/>
      <point x="262" y="381"/>
      <point x="250" y="400"/>
      <point x="211" y="400" type="curve" smooth="yes"/>
      <point x="126" y="400"/>
      <point x="76" y="340"/>
      <point x="51" y="272" type="curve" smooth="yes"/>
      <point x="31" y="217"/>
      <point x="20" y="169"/>
      <point x="20" y="110" type="curve" smooth="yes"/>
    </contour>
  </outline>
</glyph>
<glyph name="f" format="1">
  <advance width="261"/>
  <unicode hex="0066"/>
  <outline>
    <contour>
      <point x="-76" y="-241"/>
      <point x="-42" y="-258"/>
      <point x="-7" y="-258" type="curve" smooth="yes"/>
      <point x="112" y="-258"/>
      <point x="130" y="-167"/>
      <point x="146" y="76" type="curve" smooth="yes"/>
      <point x="151" y="154"/>
      <point x="156" y="248"/>
      <point x="164" y="360" type="curve"/>
      <point x="239" y="360" type="line"/>
      <point x="241" y="392" type="line"/>
      <point x="166" y="392" type="line"/>
      <point x="179" y="525"/>
      <point x="184" y="661"/>
      <point x="255" y="661" type="curve" smooth="yes"/>
      <point x="279" y="661"/>
      <point x="295" y="613"/>
      <point x="322" y="613" type="curve" smooth="yes"/>
      <point x="338" y="613"/>
      <point x="348" y="630"/>
      <point x="348" y="650" type="curve" smooth="yes"/>
      <point x="348" y="674"/>
      <point x="331" y="702"/>
      <point x="287" y="702" type="curve" smooth="yes"/>
      <point x="238" y="702"/>
      <point x="206" y="678"/>
      <point x="174" y="646" type="curve" smooth="yes"/>
      <point x="114" y="586"/>
      <point x="116" y="490"/>
      <point x="106" y="392" type="curve"/>
      <point x="35" y="392" type="line"/>
      <point x="35" y="360" type="line"/>
      <point x="105" y="360" type="line"/>
      <point x="95" y="248"/>
      <point x="88" y="153"/>
      <point x="83" y="76" type="curve" smooth="yes"/>
      <point x="68" y="-136"/>
      <point x="65" y="-223"/>
      <point x="27" y="-223" type="curve" smooth="yes"/>
      <point x="11" y="-223"/>
      <point x="-2" y="-211"/>
      <point x="-11" y="-196" type="curve" smooth="yes"/>
      <point x="-20" y="-180"/>
      <point x="-26" y="-161"/>
      <point x="-45" y="-161" type="curve" smooth="yes"/>
      <point x="-65" y="-161"/>
      <point x="-76" y="-184"/>
      <point x="-76" y="-205" type="curve" smooth="yes"/>
    </contour>
  </outline>
</glyph>
<glyph name="j" format="1">
  <advance width="247"/>
  <unicode hex="006A"/>
  <outline>
    <contour>
      <point x="143" y="611"/>
      <point x="161" y="583"/>
      <point x="177" y="583" type="curve" smooth="yes"/>
      <point x="185" y="583"/>
      <point x="217" y="605"/>
      <point x="217" y="625" type="curve" smooth="yes"/>
      <point x="217" y="644"/>
      <point x="200" y="668"/>
      <point x="185" y="668" type="curve" smooth="yes"/>
      <point x="162" y="668"/>
      <point x="143" y="639"/>
      <point x="143" y="630" type="curve" smooth="yes"/>
    </contour>
    <contour>
      <point x="-78" y="-234"/>
      <point x="-33" y="-258"/>
      <point x="10" y="-258" type="curve" smooth="yes"/>
      <point x="21" y="-258"/>
      <point x="112" y="-253"/>
      <point x="137" y="-153" type="curve" smooth="yes"/>
      <point x="151" y="-99"/>
      <point x="158" y="-12"/>
      <point x="164" y="92" type="curve" smooth="yes"/>
      <point x="169" y="184"/>
      <point x="187" y="374"/>
      <point x="187" y="385" type="curve" smooth="yes"/>
      <point x="187" y="396"/>
      <point x="185" y="402"/>
      <point x="177" y="402" type="curve" smooth="yes"/>
      <point x="158" y="402"/>
      <point x="118" y="389"/>
      <point x="30" y="354" type="curve"/>
      <point x="39" y="328" type="line"/>
      <point x="81" y="345"/>
      <point x="99" y="352"/>
      <point x="109" y="352" type="curve" smooth="yes"/>
      <point x="115" y="352"/>
      <point x="118" y="345"/>
      <point x="118" y="337" type="curve" smooth="yes"/>
      <point x="118" y="306"/>
      <point x="100" y="21"/>
      <point x="83" y="-115" type="curve" smooth="yes"/>
      <point x="76" y="-171"/>
      <point x="59" y="-223"/>
      <point x="27" y="-223" type="curve" smooth="yes"/>
      <point x="-21" y="-223"/>
      <point x="-8" y="-153"/>
      <point x="-43" y="-153" type="curve" smooth="yes"/>
      <point x="-65" y="-153"/>
      <point x="-78" y="-177"/>
      <point x="-78" y="-199" type="curve" smooth="yes"/>
    </contour>
  </outline>
</glyph>
<glyph name="k" format="1">
  <advance width="406"/>
  <unicode hex="006B"/>
  <outline>
    <contour>
      <point x="30" y="655" type="line"/>
      <point x="37" y="656"/>
      <point x="89" y="670"/>
      <point x="95" y="670" type="curve" smooth="yes"/>
      <point x="105" y="670"/>
      <point x="106" y="664"/>
      <point x="106" y="658" type="curve" smooth="yes"/>
      <point x="106" y="657" type="line"/>
      <point x="83" y="285"/>
      <point x="55" y="26"/>
      <point x="55" y="12" type="curve" smooth="yes"/>
      <point x="55" y="0"/>
      <point x="73" y="-2"/>
      <point x="87" y="-2" type="curve" smooth="yes"/>
      <point x="110" y="-2"/>
      <point x="116" y="5"/>
      <point x="116" y="26" type="curve" smooth="yes"/>
      <point x="117" y="55" type="line" smooth="yes"/>
      <point x="118" y="80"/>
      <point x="124" y="151"/>
      <point x="124" y="151" type="curve"/>
      <point x="172" y="184" type="line"/>
      <point x="172" y="184"/>
      <point x="252" y="-8"/>
      <point x="293" y="-8" type="curve" smooth="yes"/>
      <point x="313" y="-8"/>
      <point x="346" y="37"/>
      <point x="369" y="74" type="curve" smooth="yes"/>
      <point x="385" y="100"/>
      <point x="396" y="123"/>
      <point x="396" y="123" type="curve"/>
      <point x="373" y="136" type="line"/>
      <point x="373" y="136"/>
      <point x="337" y="59"/>
      <point x="317" y="59" type="curve" smooth="yes"/>
      <point x="283" y="59"/>
      <point x="220" y="216"/>
      <point x="220" y="216" type="curve" smooth="yes"/>
      <point x="220" y="216"/>
      <point x="273" y="252"/>
      <point x="316" y="296" type="curve" smooth="yes"/>
      <point x="344" y="325"/>
      <point x="374" y="362"/>
      <point x="374" y="379" type="curve" smooth="yes"/>
      <point x="374" y="385"/>
      <point x="369" y="389"/>
      <point x="331" y="389" type="curve" smooth="yes"/>
      <point x="309" y="389"/>
      <point x="256" y="388"/>
      <point x="223" y="385" type="curve"/>
      <point x="221" y="363" type="line"/>
      <point x="232" y="363"/>
      <point x="241" y="364"/>
      <point x="249" y="364" type="curve" smooth="yes"/>
      <point x="269" y="364" type="line" smooth="yes"/>
      <point x="277" y="364"/>
      <point x="294" y="363"/>
      <point x="294" y="347" type="curve" smooth="yes"/>
      <point x="294" y="286"/>
      <point x="126" y="178"/>
      <point x="126" y="178" type="curve" smooth="yes"/>
      <point x="126" y="178"/>
      <point x="176" y="671"/>
      <point x="176" y="695" type="curve" smooth="yes"/>
      <point x="176" y="702"/>
      <point x="170" y="705"/>
      <point x="162" y="705" type="curve" smooth="yes"/>
      <point x="149" y="705"/>
      <point x="64" y="689"/>
      <point x="25" y="678" type="curve"/>
    </contour>
  </outline>
</glyph>
<glyph name="m" format="1">
  <advance width="608"/>
  <unicode hex="006D"/>
  <outline>
    <contour>
      <point x="19" y="327" type="line"/>
      <point x="61" y="345" type="line"/>
      <point x="69" y="348"/>
      <point x="76" y="351"/>
      <point x="82" y="351" type="curve" smooth="yes"/>
      <point x="90" y="351"/>
      <point x="95" y="346"/>
      <point x="95" y="327" type="curve" smooth="yes"/>
      <point x="95" y="282"/>
      <point x="69" y="24"/>
      <point x="69" y="14" type="curve" smooth="yes"/>
      <point x="69" y="2"/>
      <point x="82" y="0"/>
      <point x="93" y="0" type="curve" smooth="yes"/>
      <point x="112" y="0" type="line" smooth="yes"/>
      <point x="125" y="0"/>
      <point x="136" y="7"/>
      <point x="136" y="19" type="curve"/>
      <point x="138" y="67"/>
      <point x="142" y="86"/>
      <point x="145" y="115" type="curve" smooth="yes"/>
      <point x="149" y="155"/>
      <point x="239" y="312"/>
      <point x="268" y="312" type="curve" smooth="yes"/>
      <point x="275" y="312"/>
      <point x="283" y="302"/>
      <point x="283" y="283" type="curve" smooth="yes"/>
      <point x="283" y="222"/>
      <point x="259" y="31"/>
      <point x="259" y="13" type="curve" smooth="yes"/>
      <point x="259" y="2"/>
      <point x="270" y="-1"/>
      <point x="282" y="-1" type="curve" smooth="yes"/>
      <point x="298" y="-1" type="line" smooth="yes"/>
      <point x="320" y="-1"/>
      <point x="324" y="7"/>
      <point x="324" y="20" type="curve" smooth="yes"/>
      <point x="326" y="103"/>
      <point x="330" y="110"/>
      <point x="331" y="116" type="curve"/>
      <point x="361" y="218"/>
      <point x="439" y="314"/>
      <point x="460" y="314" type="curve" smooth="yes"/>
      <point x="472" y="314"/>
      <point x="472" y="301"/>
      <point x="472" y="279" type="curve" smooth="yes"/>
      <point x="472" y="223"/>
      <point x="446" y="82"/>
      <point x="446" y="36" type="curve" smooth="yes"/>
      <point x="446" y="11"/>
      <point x="451" y="-6"/>
      <point x="465" y="-6" type="curve" smooth="yes"/>
      <point x="495" y="-6"/>
      <point x="565" y="65"/>
      <point x="598" y="137" type="curve"/>
      <point x="580" y="146" type="line"/>
      <point x="580" y="146"/>
      <point x="575" y="133"/>
      <point x="564" y="117" type="curve" smooth="yes"/>
      <point x="553" y="100"/>
      <point x="538" y="81"/>
      <point x="531" y="81" type="curve" smooth="yes"/>
      <point x="522" y="81"/>
      <point x="517" y="92"/>
      <point x="517" y="110" type="curve" smooth="yes"/>
      <point x="517" y="154"/>
      <point x="534" y="266"/>
      <point x="534" y="332" type="curve" smooth="yes"/>
      <point x="534" y="356"/>
      <point x="534" y="398"/>
      <point x="511" y="398" type="curve" smooth="yes"/>
      <point x="494" y="398"/>
      <point x="463" y="372"/>
      <point x="435" y="339" type="curve" smooth="yes"/>
      <point x="386" y="281"/>
      <point x="337" y="200"/>
      <point x="337" y="200" type="curve" smooth="yes"/>
      <point x="337" y="200"/>
      <point x="343" y="277"/>
      <point x="343" y="328" type="curve" smooth="yes"/>
      <point x="343" y="365"/>
      <point x="339" y="396"/>
      <point x="322" y="396" type="curve" smooth="yes"/>
      <point x="261" y="396"/>
      <point x="148" y="195"/>
      <point x="148" y="195" type="curve"/>
      <point x="149" y="278"/>
      <point x="169" y="350"/>
      <point x="169" y="392" type="curve" smooth="yes"/>
      <point x="169" y="401"/>
      <point x="161" y="404"/>
      <point x="152" y="404" type="curve" smooth="yes"/>
      <point x="136" y="404"/>
      <point x="56" y="375"/>
      <point x="10" y="354" type="curve"/>
    </contour>
  </outline>
</glyph>
<glyph name="p" format="1">
  <advance width="369"/>
  <unicode hex="0070"/>
  <outline>
    <contour>
      <point x="-21" y="-271" type="line"/>
      <point x="222" y="-248" type="line"/>
      <point x="223" y="-221" type="line"/>
      <point x="187" y="-223"/>
      <point x="142" y="-227"/>
      <point x="133" y="-227" type="curve" smooth="yes"/>
      <point x="114" y="-227"/>
      <point x="114" y="-219"/>
      <point x="114" y="-202" type="curve" smooth="yes"/>
      <point x="114" y="-182"/>
      <point x="124" y="-89"/>
      <point x="129" y="22" type="curve"/>
      <point x="129" y="22"/>
      <point x="155" y="-6"/>
      <point x="186" y="-6" type="curve" smooth="yes"/>
      <point x="220" y="-6"/>
      <point x="278" y="55"/>
      <point x="312" y="125" type="curve" smooth="yes"/>
      <point x="326" y="154"/>
      <point x="354" y="227"/>
      <point x="354" y="287" type="curve" smooth="yes"/>
      <point x="354" y="364"/>
      <point x="327" y="395"/>
      <point x="292" y="395" type="curve" smooth="yes"/>
      <point x="225" y="395"/>
      <point x="147" y="273"/>
      <point x="147" y="273" type="curve"/>
      <point x="153" y="313"/>
      <point x="166" y="387"/>
      <point x="166" y="391" type="curve" smooth="yes"/>
      <point x="166" y="400"/>
      <point x="160" y="403"/>
      <point x="152" y="403" type="curve" smooth="yes"/>
      <point x="129" y="403"/>
      <point x="15" y="347"/>
      <point x="15" y="347" type="curve"/>
      <point x="25" y="324" type="line"/>
      <point x="74" y="346"/>
      <point x="82" y="349"/>
      <point x="88" y="349" type="curve" smooth="yes"/>
      <point x="94" y="349"/>
      <point x="96" y="345"/>
      <point x="96" y="337" type="curve" smooth="yes"/>
      <point x="96" y="325"/>
      <point x="92" y="305"/>
      <point x="89" y="266" type="curve" smooth="yes"/>
      <point x="83" y="202"/>
      <point x="72" y="68"/>
      <point x="51" y="-208" type="curve" smooth="yes"/>
      <point x="49" y="-241"/>
      <point x="53" y="-235"/>
      <point x="-21" y="-242" type="curve"/>
    </contour>
    <contour>
      <point x="135" y="247"/>
      <point x="212" y="334"/>
      <point x="248" y="334" type="curve" smooth="yes"/>
      <point x="291" y="334"/>
      <point x="302" y="260"/>
      <point x="302" y="225" type="curve" smooth="yes"/>
      <point x="302" y="131"/>
      <point x="237" y="39"/>
      <point x="188" y="39" type="curve" smooth="yes"/>
      <point x="159" y="39"/>
      <point x="135" y="71"/>
      <point x="135" y="149" type="curve" smooth="yes"/>
    </contour>
  </outline>
</glyph>
<glyph name="q" format="1">
  <advance width="343"/>
  <unicode hex="0071"/>
  <outline>
    <contour>
      <point x="20" y="54"/>
      <point x="41" y="-3"/>
      <point x="81" y="-3" type="curve" smooth="yes"/>
      <point x="149" y="-3"/>
      <point x="227" y="146"/>
      <point x="227" y="146" type="curve"/>
      <point x="195" y="-188" type="line" smooth="yes"/>
      <point x="190" y="-239"/>
      <point x="181" y="-230"/>
      <point x="86" y="-237" type="curve"/>
      <point x="85" y="-270" type="line"/>
      <point x="328" y="-250" type="line"/>
      <point x="328" y="-226" type="line"/>
      <point x="313" y="-226"/>
      <point x="298" y="-227"/>
      <point x="288" y="-227" type="curve" smooth="yes"/>
      <point x="265" y="-227"/>
      <point x="259" y="-225"/>
      <point x="259" y="-202" type="curve" smooth="yes"/>
      <point x="259" y="-180"/>
      <point x="271" y="100"/>
      <point x="283" y="207" type="curve" smooth="yes"/>
      <point x="294" y="308"/>
      <point x="296" y="328"/>
      <point x="310" y="408" type="curve"/>
      <point x="285" y="412" type="line"/>
      <point x="280" y="392"/>
      <point x="271" y="341"/>
      <point x="271" y="341" type="curve" smooth="yes"/>
      <point x="271" y="341"/>
      <point x="238" y="396"/>
      <point x="195" y="396" type="curve" smooth="yes"/>
      <point x="163" y="396"/>
      <point x="91" y="355"/>
      <point x="49" y="255" type="curve" smooth="yes"/>
      <point x="31" y="212"/>
      <point x="20" y="143"/>
      <point x="20" y="109" type="curve" smooth="yes"/>
    </contour>
    <contour>
      <point x="76" y="239"/>
      <point x="122" y="360"/>
      <point x="170" y="360" type="curve" smooth="yes"/>
      <point x="194" y="360"/>
      <point x="231" y="327"/>
      <point x="231" y="259" type="curve" smooth="yes"/>
      <point x="231" y="210"/>
      <point x="216" y="159"/>
      <point x="193" y="123" type="curve" smooth="yes"/>
      <point x="173" y="91"/>
      <point x="150" y="59"/>
      <point x="127" y="59" type="curve" smooth="yes"/>
      <point x="108" y="59"/>
      <point x="76" y="84"/>
      <point x="76" y="171" type="curve" smooth="yes"/>
    </contour>
  </outline>
</glyph>
<glyph name="v" format="1">
  <advance width="383"/>
  <unicode hex="0076"/>
  <outline>
    <contour>
      <point x="31" y="327" type="line"/>
      <point x="76" y="346" type="line"/>
      <point x="80" y="348"/>
      <point x="85" y="349"/>
      <point x="88" y="349" type="curve" smooth="yes"/>
      <point x="97" y="349"/>
      <point x="102" y="341"/>
      <point x="101" y="328" type="curve" smooth="yes"/>
      <point x="95" y="264"/>
      <point x="84" y="144"/>
      <point x="84" y="75" type="curve" smooth="yes"/>
      <point x="84" y="33"/>
      <point x="89" y="-15"/>
      <point x="128" y="-15" type="curve" smooth="yes"/>
      <point x="158" y="-15"/>
      <point x="220" y="15"/>
      <point x="280" y="107" type="curve" smooth="yes"/>
      <point x="325" y="176"/>
      <point x="358" y="288"/>
      <point x="358" y="345" type="curve" smooth="yes"/>
      <point x="358" y="372"/>
      <point x="344" y="403"/>
      <point x="316" y="403" type="curve" smooth="yes"/>
      <point x="296" y="403"/>
      <point x="286" y="391"/>
      <point x="286" y="371" type="curve" smooth="yes"/>
      <point x="286" y="337"/>
      <point x="312" y="335"/>
      <point x="312" y="291" type="curve" smooth="yes"/>
      <point x="312" y="164"/>
      <point x="205" y="50"/>
      <point x="180" y="50" type="curve" smooth="yes"/>
      <point x="155" y="50"/>
      <point x="151" y="83"/>
      <point x="151" y="147" type="curve" smooth="yes"/>
      <point x="151" y="191" type="line" smooth="yes"/>
      <point x="151" y="268"/>
      <point x="173" y="361"/>
      <point x="173" y="390" type="curve" smooth="yes"/>
      <point x="173" y="399"/>
      <point x="168" y="406"/>
      <point x="155" y="406" type="curve" smooth="yes"/>
      <point x="142" y="406"/>
      <point x="139" y="403"/>
      <point x="25" y="355" type="curve"/>
    </contour>
  </outline>
</glyph>
<glyph name="w" format="1">
  <advance width="612"/>
  <unicode hex="0077"/>
  <outline>
    <contour>
      <point x="33" y="322" type="line"/>
      <point x="88" y="346"/>
      <point x="88" y="347"/>
      <point x="94" y="347" type="curve" smooth="yes"/>
      <point x="103" y="347"/>
      <point x="108" y="338"/>
      <point x="108" y="325" type="curve" smooth="yes"/>
      <point x="107" y="274"/>
      <point x="88" y="156"/>
      <point x="88" y="72" type="curve" smooth="yes"/>
      <point x="88" y="30"/>
      <point x="100" y="-13"/>
      <point x="139" y="-13" type="curve" smooth="yes"/>
      <point x="163" y="-13"/>
      <point x="214" y="14"/>
      <point x="245" y="54" type="curve" smooth="yes"/>
      <point x="287" y="107"/>
      <point x="321" y="187"/>
      <point x="321" y="187" type="curve" smooth="yes"/>
      <point x="321" y="187"/>
      <point x="314" y="98"/>
      <point x="314" y="72" type="curve" smooth="yes"/>
      <point x="314" y="30"/>
      <point x="318" y="-13"/>
      <point x="360" y="-13" type="curve" smooth="yes"/>
      <point x="389" y="-13"/>
      <point x="444" y="12"/>
      <point x="504" y="104" type="curve" smooth="yes"/>
      <point x="549" y="173"/>
      <point x="587" y="285"/>
      <point x="587" y="342" type="curve" smooth="yes"/>
      <point x="587" y="369"/>
      <point x="578" y="396"/>
      <point x="550" y="396" type="curve" smooth="yes"/>
      <point x="526" y="396"/>
      <point x="515" y="381"/>
      <point x="515" y="369" type="curve" smooth="yes"/>
      <point x="515" y="339"/>
      <point x="541" y="328"/>
      <point x="541" y="288" type="curve" smooth="yes"/>
      <point x="541" y="177"/>
      <point x="435" y="52"/>
      <point x="402" y="52" type="curve" smooth="yes"/>
      <point x="379" y="52"/>
      <point x="377" y="93"/>
      <point x="377" y="145" type="curve" smooth="yes"/>
      <point x="377" y="278"/>
      <point x="396" y="326"/>
      <point x="400" y="374" type="curve"/>
      <point x="400" y="383"/>
      <point x="396" y="396"/>
      <point x="383" y="396" type="curve" smooth="yes"/>
      <point x="363" y="396" type="line" smooth="yes"/>
      <point x="342" y="396"/>
      <point x="338" y="385"/>
      <point x="336" y="367" type="curve" smooth="yes"/>
      <point x="332" y="330"/>
      <point x="319" y="228"/>
      <point x="281" y="159" type="curve" smooth="yes"/>
      <point x="239" y="82"/>
      <point x="203" y="53"/>
      <point x="184" y="53" type="curve" smooth="yes"/>
      <point x="161" y="53"/>
      <point x="154" y="96"/>
      <point x="154" y="136" type="curve" smooth="yes"/>
      <point x="154" y="171"/>
      <point x="179" y="370"/>
      <point x="179" y="387" type="curve" smooth="yes"/>
      <point x="179" y="397"/>
      <point x="174" y="402"/>
      <point x="163" y="402" type="curve" smooth="yes"/>
      <point x="142" y="402"/>
      <point x="87" y="374"/>
      <point x="25" y="341" type="curve"/>
    </contour>
  </outline>
</glyph>
<glyph name="x" format="1">
  <advance width="412"/>
  <unicode hex="0078"/>
  <outline>
    <contour>
      <point x="10" y="2"/>
      <point x="26" y="-8"/>
      <point x="50" y="-8" type="curve" smooth="yes"/>
      <point x="127" y="-8"/>
      <point x="188" y="125"/>
      <point x="188" y="125" type="curve" smooth="yes"/>
      <point x="188" y="125"/>
      <point x="204" y="-8"/>
      <point x="261" y="-8" type="curve" smooth="yes"/>
      <point x="272" y="-8"/>
      <point x="286" y="2"/>
      <point x="299" y="16" type="curve" smooth="yes"/>
      <point x="356" y="76"/>
      <point x="362" y="98"/>
      <point x="381" y="140" type="curve"/>
      <point x="357" y="147" type="line"/>
      <point x="347" y="125"/>
      <point x="317" y="63"/>
      <point x="290" y="63" type="curve" smooth="yes"/>
      <point x="271" y="63"/>
      <point x="231" y="114"/>
      <point x="231" y="182" type="curve" smooth="yes"/>
      <point x="231" y="229"/>
      <point x="248" y="265"/>
      <point x="278" y="303" type="curve" smooth="yes"/>
      <point x="304" y="336"/>
      <point x="332" y="360"/>
      <point x="344" y="360" type="curve" smooth="yes"/>
      <point x="359" y="360"/>
      <point x="358" y="341"/>
      <point x="370" y="341" type="curve" smooth="yes"/>
      <point x="381" y="341"/>
      <point x="397" y="355"/>
      <point x="397" y="371" type="curve" smooth="yes"/>
      <point x="397" y="382"/>
      <point x="390" y="399"/>
      <point x="363" y="399" type="curve" smooth="yes"/>
      <point x="310" y="399"/>
      <point x="239" y="292"/>
      <point x="239" y="292" type="curve" smooth="yes"/>
      <point x="239" y="292"/>
      <point x="239" y="400"/>
      <point x="194" y="400" type="curve" smooth="yes"/>
      <point x="164" y="400"/>
      <point x="140" y="380"/>
      <point x="121" y="357" type="curve" smooth="yes"/>
      <point x="88" y="316"/>
      <point x="82" y="296"/>
      <point x="76" y="280" type="curve"/>
      <point x="96" y="269" type="line"/>
      <point x="96" y="269"/>
      <point x="121" y="343"/>
      <point x="158" y="343" type="curve" smooth="yes"/>
      <point x="183" y="343"/>
      <point x="184" y="273"/>
      <point x="184" y="227" type="curve" smooth="yes"/>
      <point x="184" y="172"/>
      <point x="165" y="131"/>
      <point x="136" y="89" type="curve" smooth="yes"/>
      <point x="126" y="74"/>
      <point x="91" y="32"/>
      <point x="62" y="32" type="curve" smooth="yes"/>
      <point x="45" y="32"/>
      <point x="48" y="50"/>
      <point x="34" y="50" type="curve" smooth="yes"/>
      <point x="24" y="50"/>
      <point x="10" y="34"/>
      <point x="10" y="22" type="curve" smooth="yes"/>
    </contour>
  </outline>
</glyph>
<glyph name="braceleft" format="1">
  <advance width="281"/>
  <unicode hex="007B"/>
  <outline>
    <contour>
      <point x="17" y="230" type="line"/>
      <point x="57" y="221"/>
      <point x="101" y="229"/>
      <point x="101" y="98" type="curve" smooth="yes"/>
      <point x="101" y="61"/>
      <point x="97" y="20"/>
      <point x="97" y="-24" type="curve" smooth="yes"/>
      <point x="97" y="-144"/>
      <point x="140" y="-231"/>
      <point x="264" y="-231" type="curve"/>
      <point x="264" y="-202" type="line"/>
      <point x="167" y="-202"/>
      <point x="161" y="-112"/>
      <point x="161" y="-29" type="curve" smooth="yes"/>
      <point x="161" y="26"/>
      <point x="165" y="71"/>
      <point x="165" y="114" type="curve" smooth="yes"/>
      <point x="165" y="178"/>
      <point x="149" y="221"/>
      <point x="99" y="240" type="curve"/>
      <point x="149" y="259"/>
      <point x="166" y="299"/>
      <point x="166" y="365" type="curve" smooth="yes"/>
      <point x="166" y="409"/>
      <point x="161" y="454"/>
      <point x="161" y="509" type="curve" smooth="yes"/>
      <point x="161" y="591"/>
      <point x="168" y="677"/>
      <point x="264" y="677" type="curve"/>
      <point x="264" y="706" type="line"/>
      <point x="141" y="706"/>
      <point x="97" y="612"/>
      <point x="97" y="503" type="curve" smooth="yes"/>
      <point x="97" y="458"/>
      <point x="100" y="417"/>
      <point x="100" y="381" type="curve" smooth="yes"/>
      <point x="100" y="254"/>
      <point x="62" y="258"/>
      <point x="17" y="249" type="curve"/>
    </contour>
  </outline>
</glyph>
<glyph name="bar" format="1">
  <advance width="220"/>
  <unicode hex="007C"/>
  <outline>
    <contour>
      <point x="88" y="-231" type="line"/>
      <point x="132" y="-231" type="line"/>
      <point x="132" y="706" type="line"/>
      <point x="88" y="706" type="line"/>
    </contour>
  </outline>
</glyph>
<glyph name="braceright" format="1">
  <advance width="281"/>
  <unicode hex="007D"/>
  <outline>
    <contour>
      <point x="17" y="-231" type="line"/>
      <point x="141" y="-231"/>
      <point x="185" y="-144"/>
      <point x="185" y="-24" type="curve" smooth="yes"/>
      <point x="185" y="20"/>
      <point x="181" y="61"/>
      <point x="181" y="98" type="curve" smooth="yes"/>
      <point x="181" y="229"/>
      <point x="224" y="221"/>
      <point x="264" y="230" type="curve"/>
      <point x="264" y="249" type="line"/>
      <point x="219" y="258"/>
      <point x="181" y="254"/>
      <point x="181" y="381" type="curve" smooth="yes"/>
      <point x="181" y="417"/>
      <point x="185" y="458"/>
      <point x="185" y="503" type="curve" smooth="yes"/>
      <point x="185" y="612"/>
      <point x="140" y="706"/>
      <point x="17" y="706" type="curve"/>
      <point x="17" y="677" type="line"/>
      <point x="113" y="677"/>
      <point x="120" y="591"/>
      <point x="120" y="509" type="curve" smooth="yes"/>
      <point x="120" y="454"/>
      <point x="116" y="409"/>
      <point x="116" y="365" type="curve" smooth="yes"/>
      <point x="116" y="299"/>
      <point x="133" y="259"/>
      <point x="183" y="240" type="curve"/>
      <point x="133" y="221"/>
      <point x="116" y="178"/>
      <point x="116" y="114" type="curve" smooth="yes"/>
      <point x="116" y="71"/>
      <point x="121" y="26"/>
      <point x="121" y="-29" type="curve" smooth="yes"/>
      <point x="121" y="-112"/>
      <point x="114" y="-202"/>
      <point x="17" y="-202" type="curve"/>
    </contour>
  </outline>
</glyph>
<glyph name="exclamdown" format="1">
  <advance width="285"/>
  <unicode hex="00A1"/>
  <outline>
    <contour>
      <point x="99" y="-6"/>
      <point x="103" y="-9"/>
      <point x="109" y="-9" type="curve" smooth="yes"/>
      <point x="113" y="-9"/>
      <point x="119" y="-7"/>
      <point x="124" y="-5" type="curve" smooth="yes"/>
      <point x="160" y="9"/>
      <point x="178" y="13"/>
      <point x="178" y="35" type="curve" smooth="yes"/>
      <point x="178" y="183"/>
      <point x="192" y="420"/>
      <point x="192" y="440" type="curve" smooth="yes"/>
      <point x="192" y="460"/>
      <point x="185" y="468"/>
      <point x="176" y="468" type="curve" smooth="yes"/>
      <point x="160" y="468"/>
      <point x="163" y="449"/>
      <point x="158" y="414" type="curve" smooth="yes"/>
      <point x="113" y="93"/>
      <point x="99" y="27"/>
      <point x="99" y="2" type="curve" smooth="yes"/>
    </contour>
    <contour>
      <point x="142" y="574"/>
      <point x="165" y="541"/>
      <point x="182" y="541" type="curve" smooth="yes"/>
      <point x="195" y="541"/>
      <point x="226" y="569"/>
      <point x="226" y="588" type="curve" smooth="yes"/>
      <point x="226" y="600"/>
      <point x="203" y="636"/>
      <point x="188" y="636" type="curve" smooth="yes"/>
      <point x="170" y="636"/>
      <point x="142" y="601"/>
      <point x="142" y="589" type="curve" smooth="yes"/>
    </contour>
  </outline>
</glyph>
<glyph name="cent" format="1">
  <advance width="427"/>
  <unicode hex="00A2"/>
  <outline>
    <contour>
      <point x="24" y="123"/>
      <point x="65" y="56"/>
      <point x="122" y="20" type="curve"/>
      <point x="60" y="-193" type="line"/>
      <point x="95" y="-202" type="line"/>
      <point x="147" y="6" type="line"/>
      <point x="173" y="-6"/>
      <point x="201" y="-12"/>
      <point x="229" y="-12" type="curve" smooth="yes"/>
      <point x="334" y="-12"/>
      <point x="395" y="76"/>
      <point x="403" y="83" type="curve"/>
      <point x="381" y="104" type="line"/>
      <point x="380" y="103"/>
      <point x="327" y="22"/>
      <point x="240" y="22" type="curve" smooth="yes"/>
      <point x="211" y="22"/>
      <point x="182" y="31"/>
      <point x="159" y="52" type="curve"/>
      <point x="255" y="405" type="line"/>
      <point x="288" y="404"/>
      <point x="314" y="384"/>
      <point x="314" y="371" type="curve" smooth="yes"/>
      <point x="314" y="355"/>
      <point x="275" y="344"/>
      <point x="275" y="310" type="curve" smooth="yes"/>
      <point x="275" y="285"/>
      <point x="299" y="263"/>
      <point x="328" y="263" type="curve" smooth="yes"/>
      <point x="361" y="263"/>
      <point x="387" y="291"/>
      <point x="387" y="324" type="curve" smooth="yes"/>
      <point x="387" y="379"/>
      <point x="330" y="422"/>
      <point x="262" y="433" type="curve"/>
      <point x="345" y="720" type="line"/>
      <point x="305" y="725" type="line"/>
      <point x="233" y="436" type="line"/>
      <point x="92" y="436"/>
      <point x="24" y="323"/>
      <point x="24" y="219" type="curve" smooth="yes"/>
    </contour>
    <contour>
      <point x="104" y="309"/>
      <point x="148" y="387"/>
      <point x="224" y="402" type="curve"/>
      <point x="137" y="78" type="line"/>
      <point x="116" y="109"/>
      <point x="104" y="152"/>
      <point x="104" y="213" type="curve" smooth="yes"/>
    </contour>
  </outline>
</glyph>
<glyph name="sterling" format="1">
  <advance width="435"/>
  <unicode hex="00A3"/>
  <outline>
    <contour>
      <point x="17" y="4"/>
      <point x="31" y="-13"/>
      <point x="51" y="-13" type="curve" smooth="yes"/>
      <point x="111" y="-13"/>
      <point x="111" y="98"/>
      <point x="145" y="98" type="curve" smooth="yes"/>
      <point x="156" y="98"/>
      <point x="168" y="88"/>
      <point x="185" y="67" type="curve" smooth="yes"/>
      <point x="217" y="26"/>
      <point x="233" y="-15"/>
      <point x="296" y="-15" type="curve" smooth="yes"/>
      <point x="367" y="-15"/>
      <point x="415" y="38"/>
      <point x="415" y="98" type="curve" smooth="yes"/>
      <point x="415" y="137"/>
      <point x="393" y="181"/>
      <point x="361" y="181" type="curve" smooth="yes"/>
      <point x="342" y="181"/>
      <point x="330" y="161"/>
      <point x="330" y="144" type="curve" smooth="yes"/>
      <point x="330" y="111"/>
      <point x="370" y="102"/>
      <point x="370" y="69" type="curve" smooth="yes"/>
      <point x="370" y="48"/>
      <point x="355" y="25"/>
      <point x="334" y="25" type="curve" smooth="yes"/>
      <point x="281" y="25"/>
      <point x="251" y="123"/>
      <point x="165" y="123" type="curve" smooth="yes"/>
      <point x="158" y="123"/>
      <point x="153" y="120"/>
      <point x="153" y="120" type="curve" smooth="yes"/>
      <point x="153" y="120"/>
      <point x="181" y="168"/>
      <point x="197" y="245" type="curve"/>
      <point x="322" y="245" type="line"/>
      <point x="322" y="284" type="line"/>
      <point x="203" y="284" type="line"/>
      <point x="206" y="307"/>
      <point x="208" y="332"/>
      <point x="208" y="359" type="curve" smooth="yes"/>
      <point x="208" y="446"/>
      <point x="207" y="491"/>
      <point x="207" y="518" type="curve" smooth="yes"/>
      <point x="207" y="602"/>
      <point x="254" y="628"/>
      <point x="286" y="628" type="curve" smooth="yes"/>
      <point x="328" y="628"/>
      <point x="332" y="600"/>
      <point x="338" y="572" type="curve" smooth="yes"/>
      <point x="345" y="535"/>
      <point x="362" y="523"/>
      <point x="380" y="523" type="curve" smooth="yes"/>
      <point x="400" y="523"/>
      <point x="418" y="542"/>
      <point x="418" y="570" type="curve" smooth="yes"/>
      <point x="418" y="621"/>
      <point x="365" y="661"/>
      <point x="309" y="661" type="curve" smooth="yes"/>
      <point x="206" y="661"/>
      <point x="125" y="575"/>
      <point x="125" y="394" type="curve" smooth="yes"/>
      <point x="125" y="373"/>
      <point x="130" y="325"/>
      <point x="134" y="284" type="curve"/>
      <point x="27" y="284" type="line"/>
      <point x="27" y="245" type="line"/>
      <point x="138" y="245" type="line"/>
      <point x="139" y="229"/>
      <point x="141" y="218"/>
      <point x="141" y="216" type="curve" smooth="yes"/>
      <point x="141" y="187"/>
      <point x="135" y="129"/>
      <point x="120" y="113" type="curve"/>
      <point x="92" y="94"/>
      <point x="17" y="74"/>
      <point x="17" y="23" type="curve" smooth="yes"/>
    </contour>
  </outline>
</glyph>
<glyph name="yen" format="1">
  <advance width="639"/>
  <unicode hex="00A5"/>
  <outline>
    <contour>
      <point x="27" y="627" type="line"/>
      <point x="75" y="627"/>
      <point x="71" y="627"/>
      <point x="110" y="566" type="curve" smooth="yes"/>
      <point x="222" y="392" type="line"/>
      <point x="128" y="392" type="line"/>
      <point x="116" y="344" type="line"/>
      <point x="259" y="344" type="line"/>
      <point x="274" y="318" type="line"/>
      <point x="274" y="245" type="line"/>
      <point x="128" y="245" type="line"/>
      <point x="116" y="197" type="line"/>
      <point x="274" y="197" type="line"/>
      <point x="274" y="83" type="line" smooth="yes"/>
      <point x="274" y="41"/>
      <point x="267" y="39"/>
      <point x="218" y="39" type="curve" smooth="yes"/>
      <point x="178" y="39" type="line"/>
      <point x="177" y="0" type="line"/>
      <point x="458" y="0" type="line"/>
      <point x="459" y="39" type="line"/>
      <point x="413" y="39" type="line" smooth="yes"/>
      <point x="358" y="39"/>
      <point x="355" y="43"/>
      <point x="355" y="85" type="curve" smooth="yes"/>
      <point x="355" y="197" type="line"/>
      <point x="511" y="197" type="line"/>
      <point x="523" y="245" type="line"/>
      <point x="355" y="245" type="line"/>
      <point x="355" y="310" type="line"/>
      <point x="376" y="344" type="line"/>
      <point x="511" y="344" type="line"/>
      <point x="523" y="392" type="line"/>
      <point x="416" y="392" type="line"/>
      <point x="550" y="585" type="line" smooth="yes"/>
      <point x="579" y="626"/>
      <point x="586" y="627"/>
      <point x="617" y="627" type="curve" smooth="yes"/>
      <point x="622" y="627" type="line"/>
      <point x="622" y="667" type="line"/>
      <point x="440" y="667" type="line"/>
      <point x="441" y="627" type="line"/>
      <point x="457" y="627" type="line" smooth="yes"/>
      <point x="496" y="627"/>
      <point x="522" y="626"/>
      <point x="522" y="614" type="curve" smooth="yes"/>
      <point x="522" y="611"/>
      <point x="519" y="607"/>
      <point x="516" y="602" type="curve"/>
      <point x="341" y="354" type="line"/>
      <point x="214" y="554" type="line" smooth="yes"/>
      <point x="182" y="604"/>
      <point x="180" y="609"/>
      <point x="180" y="614" type="curve" smooth="yes"/>
      <point x="180" y="626"/>
      <point x="197" y="627"/>
      <point x="227" y="627" type="curve" smooth="yes"/>
      <point x="252" y="627" type="line"/>
      <point x="252" y="667" type="line"/>
      <point x="28" y="667" type="line"/>
    </contour>
  </outline>
</glyph>
<glyph name="section" format="1">
  <advance width="449"/>
  <unicode hex="00A7"/>
  <outline>
    <contour>
      <point x="54" y="245"/>
      <point x="76" y="179"/>
      <point x="141" y="112" type="curve" smooth="yes"/>
      <point x="221" y="29"/>
      <point x="323" y="-25"/>
      <point x="323" y="-105" type="curve" smooth="yes"/>
      <point x="323" y="-150"/>
      <point x="276" y="-179"/>
      <point x="239" y="-179" type="curve" smooth="yes"/>
      <point x="182" y="-179"/>
      <point x="170" y="-153"/>
      <point x="170" y="-136" type="curve" smooth="yes"/>
      <point x="170" y="-112"/>
      <point x="209" y="-88"/>
      <point x="209" y="-64" type="curve" smooth="yes"/>
      <point x="209" y="-41"/>
      <point x="166" y="-15"/>
      <point x="153" y="-15" type="curve" smooth="yes"/>
      <point x="120" y="-15"/>
      <point x="94" y="-45"/>
      <point x="94" y="-89" type="curve" smooth="yes"/>
      <point x="94" y="-168"/>
      <point x="167" y="-210"/>
      <point x="237" y="-210" type="curve" smooth="yes"/>
      <point x="305" y="-210"/>
      <point x="373" y="-170"/>
      <point x="373" y="-87" type="curve" smooth="yes"/>
      <point x="373" y="2"/>
      <point x="303" y="67"/>
      <point x="275" y="93" type="curve"/>
      <point x="285" y="91"/>
      <point x="294" y="88"/>
      <point x="309" y="88" type="curve" smooth="yes"/>
      <point x="344" y="88"/>
      <point x="395" y="105"/>
      <point x="395" y="204" type="curve" smooth="yes"/>
      <point x="395" y="398"/>
      <point x="136" y="474"/>
      <point x="136" y="589" type="curve" smooth="yes"/>
      <point x="136" y="653"/>
      <point x="179" y="669"/>
      <point x="221" y="669" type="curve" smooth="yes"/>
      <point x="238" y="669"/>
      <point x="250" y="659"/>
      <point x="250" y="646" type="curve" smooth="yes"/>
      <point x="250" y="629"/>
      <point x="227" y="611"/>
      <point x="227" y="591" type="curve" smooth="yes"/>
      <point x="227" y="568"/>
      <point x="261" y="548"/>
      <point x="291" y="548" type="curve" smooth="yes"/>
      <point x="317" y="548"/>
      <point x="341" y="562"/>
      <point x="341" y="604" type="curve" smooth="yes"/>
      <point x="341" y="649"/>
      <point x="298" y="702"/>
      <point x="214" y="702" type="curve" smooth="yes"/>
      <point x="150" y="702"/>
      <point x="86" y="665"/>
      <point x="86" y="573" type="curve" smooth="yes"/>
      <point x="86" y="479"/>
      <point x="161" y="411"/>
      <point x="163" y="406" type="curve"/>
      <point x="160" y="406"/>
      <point x="155" y="407"/>
      <point x="150" y="407" type="curve" smooth="yes"/>
      <point x="106" y="407"/>
      <point x="54" y="379"/>
      <point x="54" y="295" type="curve" smooth="yes"/>
    </contour>
    <contour>
      <point x="99" y="365"/>
      <point x="126" y="389"/>
      <point x="168" y="389" type="curve" smooth="yes"/>
      <point x="196" y="389"/>
      <point x="356" y="231"/>
      <point x="356" y="153" type="curve" smooth="yes"/>
      <point x="356" y="123"/>
      <point x="332" y="107"/>
      <point x="302" y="107" type="curve" smooth="yes"/>
      <point x="248" y="107"/>
      <point x="99" y="254"/>
      <point x="99" y="333" type="curve" smooth="yes"/>
    </contour>
  </outline>
</glyph>
<glyph name="dieresis" format="1">
  <advance width="390"/>
  <unicode hex="00A8"/>
  <outline>
    <contour>
      <point x="105" y="536"/>
      <point x="123" y="508"/>
      <point x="139" y="508" type="curve" smooth="yes"/>
      <point x="147" y="508"/>
      <point x="179" y="530"/>
      <point x="179" y="550" type="curve" smooth="yes"/>
      <point x="179" y="569"/>
      <point x="163" y="593"/>
      <point x="148" y="593" type="curve" smooth="yes"/>
      <point x="125" y="593"/>
      <point x="105" y="564"/>
      <point x="105" y="555" type="curve" smooth="yes"/>
    </contour>
    <contour>
      <point x="213" y="536"/>
      <point x="230" y="508"/>
      <point x="246" y="508" type="curve" smooth="yes"/>
      <point x="254" y="508"/>
      <point x="286" y="530"/>
      <point x="286" y="550" type="curve" smooth="yes"/>
      <point x="286" y="569"/>
      <point x="270" y="593"/>
      <point x="255" y="593" type="curve" smooth="yes"/>
      <point x="232" y="593"/>
      <point x="213" y="564"/>
      <point x="213" y="555" type="curve" smooth="yes"/>
    </contour>
  </outline>
</glyph>
<glyph name="ordfeminine" format="1">
  <advance width="358"/>
  <unicode hex="00AA"/>
  <outline>
    <contour>
      <point x="44" y="413"/>
      <point x="67" y="399"/>
      <point x="83" y="399" type="curve" smooth="yes"/>
      <point x="96" y="399"/>
      <point x="129" y="419"/>
      <point x="149" y="443" type="curve" smooth="yes"/>
      <point x="173" y="473"/>
      <point x="192" y="509"/>
      <point x="202" y="527" type="curve"/>
      <point x="200" y="497"/>
      <point x="198" y="475"/>
      <point x="198" y="457" type="curve" smooth="yes"/>
      <point x="198" y="408"/>
      <point x="207" y="399"/>
      <point x="216" y="399" type="curve" smooth="yes"/>
      <point x="248" y="399"/>
      <point x="305" y="482"/>
      <point x="305" y="482" type="curve"/>
      <point x="290" y="494" type="line"/>
      <point x="274" y="476"/>
      <point x="268" y="466"/>
      <point x="261" y="466" type="curve" smooth="yes"/>
      <point x="255" y="466"/>
      <point x="251" y="480"/>
      <point x="251" y="505" type="curve" smooth="yes"/>
      <point x="251" y="559"/>
      <point x="279" y="721"/>
      <point x="279" y="728" type="curve" smooth="yes"/>
      <point x="279" y="737"/>
      <point x="277" y="738"/>
      <point x="265" y="738" type="curve" smooth="yes"/>
      <point x="257" y="738" type="line" smooth="yes"/>
      <point x="252" y="738"/>
      <point x="240" y="738"/>
      <point x="238" y="724" type="curve" smooth="yes"/>
      <point x="230" y="679" type="line"/>
      <point x="230" y="679"/>
      <point x="219" y="728"/>
      <point x="190" y="728" type="curve" smooth="yes"/>
      <point x="164" y="728"/>
      <point x="107" y="663"/>
      <point x="94" y="642" type="curve" smooth="yes"/>
      <point x="59" y="585"/>
      <point x="44" y="556"/>
      <point x="44" y="487" type="curve" smooth="yes"/>
    </contour>
    <contour>
      <point x="85" y="596"/>
      <point x="143" y="692"/>
      <point x="171" y="692" type="curve" smooth="yes"/>
      <point x="187" y="692"/>
      <point x="220" y="665"/>
      <point x="220" y="640" type="curve" smooth="yes"/>
      <point x="220" y="592"/>
      <point x="145" y="455"/>
      <point x="114" y="455" type="curve" smooth="yes"/>
      <point x="102" y="455"/>
      <point x="85" y="477"/>
      <point x="85" y="513" type="curve" smooth="yes"/>
    </contour>
  </outline>
</glyph>
<glyph name="registered" format="1">
  <advance width="501"/>
  <unicode hex="00AE"/>
  <outline>
    <contour>
      <point x="44" y="432"/>
      <point x="135" y="337"/>
      <point x="250" y="337" type="curve" smooth="yes"/>
      <point x="379" y="337"/>
      <point x="457" y="432"/>
      <point x="457" y="546" type="curve" smooth="yes"/>
      <point x="457" y="663"/>
      <point x="367" y="757"/>
      <point x="250" y="757" type="curve" smooth="yes"/>
      <point x="135" y="757"/>
      <point x="44" y="663"/>
      <point x="44" y="546" type="curve" smooth="yes"/>
    </contour>
    <contour>
      <point x="75" y="644"/>
      <point x="154" y="729"/>
      <point x="253" y="729" type="curve" smooth="yes"/>
      <point x="349" y="729"/>
      <point x="426" y="644"/>
      <point x="426" y="545" type="curve" smooth="yes"/>
      <point x="426" y="447"/>
      <point x="359" y="368"/>
      <point x="253" y="368" type="curve" smooth="yes"/>
      <point x="154" y="368"/>
      <point x="75" y="447"/>
      <point x="75" y="545" type="curve" smooth="yes"/>
    </contour>
    <contour>
      <point x="145" y="658" type="line"/>
      <point x="159" y="658" type="line" smooth="yes"/>
      <point x="169" y="658"/>
      <point x="172" y="657"/>
      <point x="172" y="650" type="curve" smooth="yes"/>
      <point x="172" y="459" type="line" smooth="yes"/>
      <point x="172" y="456"/>
      <point x="171" y="456"/>
      <point x="158" y="456" type="curve" smooth="yes"/>
      <point x="148" y="456" type="line"/>
      <point x="148" y="432" type="line"/>
      <point x="239" y="432" type="line"/>
      <point x="240" y="456" type="line"/>
      <point x="221" y="456" type="line" smooth="yes"/>
      <point x="211" y="456"/>
      <point x="211" y="455"/>
      <point x="211" y="460" type="curve" smooth="yes"/>
      <point x="211" y="543" type="line"/>
      <point x="216" y="543"/>
      <point x="223" y="542"/>
      <point x="239" y="542" type="curve" smooth="yes"/>
      <point x="245" y="542" type="line"/>
      <point x="322" y="432" type="line"/>
      <point x="372" y="432" type="line"/>
      <point x="371" y="456" type="line"/>
      <point x="361" y="456" type="line" smooth="yes"/>
      <point x="357" y="456"/>
      <point x="354" y="457"/>
      <point x="349" y="464" type="curve" smooth="yes"/>
      <point x="284" y="550" type="line"/>
      <point x="320" y="562"/>
      <point x="332" y="586"/>
      <point x="332" y="609" type="curve" smooth="yes"/>
      <point x="332" y="629"/>
      <point x="324" y="649"/>
      <point x="305" y="664" type="curve" smooth="yes"/>
      <point x="287" y="679"/>
      <point x="265" y="682"/>
      <point x="228" y="682" type="curve" smooth="yes"/>
      <point x="146" y="682" type="line"/>
    </contour>
    <contour>
      <point x="211" y="646" type="line" smooth="yes"/>
      <point x="211" y="658"/>
      <point x="212" y="658"/>
      <point x="217" y="658" type="curve" smooth="yes"/>
      <point x="263" y="658"/>
      <point x="287" y="635"/>
      <point x="287" y="604" type="curve" smooth="yes"/>
      <point x="287" y="579"/>
      <point x="275" y="563"/>
      <point x="229" y="563" type="curve" smooth="yes"/>
      <point x="222" y="563"/>
      <point x="215" y="563"/>
      <point x="211" y="564" type="curve"/>
    </contour>
  </outline>
</glyph>
<glyph name="macron" format="1">
  <advance width="390"/>
  <unicode hex="00AF"/>
  <outline>
    <contour>
      <point x="110" y="522" type="line"/>
      <point x="282" y="522" type="line"/>
      <point x="282" y="569" type="line"/>
      <point x="110" y="569" type="line"/>
    </contour>
  </outline>
</glyph>
<glyph name="degree" format="1">
  <advance width="330"/>
  <unicode hex="00B0"/>
  <outline>
    <contour>
      <point x="44" y="541"/>
      <point x="98" y="487"/>
      <point x="165" y="487" type="curve" smooth="yes"/>
      <point x="232" y="487"/>
      <point x="286" y="541"/>
      <point x="286" y="608" type="curve" smooth="yes"/>
      <point x="286" y="675"/>
      <point x="232" y="729"/>
      <point x="165" y="729" type="curve" smooth="yes"/>
      <point x="98" y="729"/>
      <point x="44" y="675"/>
      <point x="44" y="608" type="curve" smooth="yes"/>
    </contour>
    <contour>
      <point x="80" y="655"/>
      <point x="118" y="693"/>
      <point x="165" y="693" type="curve" smooth="yes"/>
      <point x="212" y="693"/>
      <point x="251" y="655"/>
      <point x="251" y="608" type="curve" smooth="yes"/>
      <point x="251" y="561"/>
      <point x="212" y="522"/>
      <point x="165" y="522" type="curve" smooth="yes"/>
      <point x="118" y="522"/>
      <point x="80" y="561"/>
      <point x="80" y="608" type="curve" smooth="yes"/>
    </contour>
  </outline>
</glyph>
<glyph name="acute" format="1">
  <advance width="390"/>
  <unicode hex="00B4"/>
  <outline>
    <contour>
      <point x="170" y="468" type="line"/>
      <point x="198" y="468" type="line"/>
      <point x="284" y="610" type="line"/>
      <point x="221" y="610" type="line"/>
    </contour>
  </outline>
</glyph>
<glyph name="periodcentered" format="1">
  <advance width="201"/>
  <unicode hex="00B7"/>
  <outline>
    <contour>
      <point x="64" y="319"/>
      <point x="82" y="292"/>
      <point x="98" y="292" type="curve" smooth="yes"/>
      <point x="106" y="292"/>
      <point x="138" y="313"/>
      <point x="138" y="333" type="curve" smooth="yes"/>
      <point x="138" y="352"/>
      <point x="121" y="376"/>
      <point x="106" y="376" type="curve" smooth="yes"/>
      <point x="83" y="376"/>
      <point x="64" y="347"/>
      <point x="64" y="338" type="curve" smooth="yes"/>
    </contour>
  </outline>
</glyph>
<glyph name="cedilla" format="1">
  <advance width="390"/>
  <unicode hex="00B8"/>
  <outline>
    <contour>
      <point x="150" y="-207" type="line"/>
      <point x="150" y="-207"/>
      <point x="164" y="-220"/>
      <point x="209" y="-220" type="curve" smooth="yes"/>
      <point x="258" y="-220"/>
      <point x="315" y="-193"/>
      <point x="315" y="-135" type="curve" smooth="yes"/>
      <point x="315" y="-83"/>
      <point x="264" y="-65"/>
      <point x="214" y="-65" type="curve" smooth="yes"/>
      <point x="208" y="-65"/>
      <point x="204" y="-66"/>
      <point x="198" y="-66" type="curve"/>
      <point x="223" y="7" type="line"/>
      <point x="202" y="7" type="line"/>
      <point x="170" y="-79" type="line"/>
      <point x="180" y="-96" type="line"/>
      <point x="187" y="-95"/>
      <point x="192" y="-95"/>
      <point x="199" y="-95" type="curve" smooth="yes"/>
      <point x="230" y="-95"/>
      <point x="264" y="-105"/>
      <point x="264" y="-139" type="curve" smooth="yes"/>
      <point x="264" y="-173"/>
      <point x="244" y="-193"/>
      <point x="216" y="-193" type="curve" smooth="yes"/>
      <point x="198" y="-193"/>
      <point x="171" y="-183"/>
      <point x="171" y="-183" type="curve"/>
    </contour>
  </outline>
</glyph>
<glyph name="ordmasculine" format="1">
  <advance width="320"/>
  <unicode hex="00BA"/>
  <outline>
    <contour>
      <point x="44" y="450"/>
      <point x="76" y="399"/>
      <point x="126" y="399" type="curve" smooth="yes"/>
      <point x="199" y="399"/>
      <point x="276" y="519"/>
      <point x="276" y="620" type="curve" smooth="yes"/>
      <point x="276" y="662"/>
      <point x="261" y="730"/>
      <point x="195" y="730" type="curve" smooth="yes"/>
      <point x="161" y="730"/>
      <point x="128" y="702"/>
      <point x="108" y="679" type="curve" smooth="yes"/>
      <point x="99" y="669"/>
      <point x="44" y="612"/>
      <point x="44" y="511" type="curve" smooth="yes"/>
    </contour>
    <contour>
      <point x="98" y="630"/>
      <point x="144" y="704"/>
      <point x="175" y="704" type="curve" smooth="yes"/>
      <point x="210" y="704"/>
      <point x="224" y="640"/>
      <point x="224" y="599" type="curve" smooth="yes"/>
      <point x="224" y="525"/>
      <point x="187" y="430"/>
      <point x="149" y="430" type="curve" smooth="yes"/>
      <point x="118" y="430"/>
      <point x="98" y="484"/>
      <point x="98" y="545" type="curve" smooth="yes"/>
    </contour>
  </outline>
</glyph>
<glyph name="guillemotright" format="1">
  <advance width="380"/>
  <unicode hex="00BB"/>
  <outline>
    <contour>
      <point x="40" y="102" type="line"/>
      <point x="56" y="83" type="line"/>
      <point x="208" y="216" type="line"/>
      <point x="56" y="349" type="line"/>
      <point x="40" y="331" type="line"/>
      <point x="133" y="216" type="line"/>
    </contour>
    <contour>
      <point x="172" y="102" type="line"/>
      <point x="188" y="83" type="line"/>
      <point x="340" y="216" type="line"/>
      <point x="188" y="349" type="line"/>
      <point x="172" y="331" type="line"/>
      <point x="265" y="216" type="line"/>
    </contour>
  </outline>
</glyph>
<glyph name="onequarter" format="1">
  <advance width="882"/>
  <unicode hex="00BC"/>
  <outline>
    <contour>
      <point x="493" y="120"/>
      <point x="497" y="120"/>
      <point x="502" y="120" type="curve" smooth="yes"/>
      <point x="699" y="120" type="line"/>
      <point x="690" y="-10" type="line"/>
      <point x="749" y="-10" type="line"/>
      <point x="758" y="120" type="line"/>
      <point x="818" y="120" type="line"/>
      <point x="837" y="176" type="line"/>
      <point x="762" y="176" type="line"/>
      <point x="779" y="427" type="line"/>
      <point x="780" y="436"/>
      <point x="781" y="444"/>
      <point x="776" y="444" type="curve" smooth="yes"/>
      <point x="774" y="444"/>
      <point x="769" y="443"/>
      <point x="764" y="437" type="curve" smooth="yes"/>
      <point x="544" y="178"/>
      <point x="494" y="144"/>
      <point x="493" y="125" type="curve"/>
    </contour>
    <contour>
      <point x="570" y="176" type="line"/>
      <point x="715" y="341" type="line"/>
      <point x="703" y="176" type="line"/>
    </contour>
    <contour>
      <point x="178" y="-37" type="line"/>
      <point x="229" y="-37" type="line"/>
      <point x="746" y="700" type="line"/>
      <point x="695" y="700" type="line"/>
    </contour>
    <contour>
      <point x="50" y="244" type="line"/>
      <point x="268" y="244" type="line"/>
      <point x="269" y="273" type="line"/>
      <point x="200" y="274"/>
      <point x="186" y="271"/>
      <point x="186" y="296" type="curve" smooth="yes"/>
      <point x="186" y="303"/>
      <point x="197" y="455"/>
      <point x="203" y="534" type="curve" smooth="yes"/>
      <point x="207" y="589"/>
      <point x="218" y="682"/>
      <point x="218" y="687" type="curve" smooth="yes"/>
      <point x="218" y="691"/>
      <point x="217" y="694"/>
      <point x="212" y="694" type="curve" smooth="yes"/>
      <point x="204" y="694"/>
      <point x="181" y="683"/>
      <point x="167" y="678" type="curve" smooth="yes"/>
      <point x="137" y="667"/>
      <point x="101" y="654"/>
      <point x="67" y="643" type="curve"/>
      <point x="66" y="618" type="line"/>
      <point x="77" y="624"/>
      <point x="133" y="643"/>
      <point x="139" y="643" type="curve" smooth="yes"/>
      <point x="146" y="643"/>
      <point x="149" y="638"/>
      <point x="149" y="619" type="curve" smooth="yes"/>
      <point x="149" y="600"/>
      <point x="135" y="406"/>
      <point x="127" y="301" type="curve" smooth="yes"/>
      <point x="125" y="269"/>
      <point x="112" y="274"/>
      <point x="51" y="273" type="curve"/>
    </contour>
  </outline>
</glyph>
<glyph name="onehalf" format="1">
  <advance width="929"/>
  <unicode hex="00BD"/>
  <outline>
    <contour>
      <point x="578" y="1"/>
      <point x="587" y="0"/>
      <point x="594" y="0" type="curve" smooth="yes"/>
      <point x="825" y="0" type="line" smooth="yes"/>
      <point x="857" y="0"/>
      <point x="856" y="2"/>
      <point x="858" y="4" type="curve"/>
      <point x="866" y="9"/>
      <point x="879" y="59"/>
      <point x="879" y="64" type="curve" smooth="yes"/>
      <point x="879" y="70"/>
      <point x="878" y="72"/>
      <point x="874" y="72" type="curve" smooth="yes"/>
      <point x="861" y="72"/>
      <point x="801" y="38"/>
      <point x="665" y="38" type="curve" smooth="yes"/>
      <point x="658" y="38"/>
      <point x="652" y="39"/>
      <point x="652" y="41" type="curve"/>
      <point x="653" y="54"/>
      <point x="868" y="190"/>
      <point x="868" y="323" type="curve" smooth="yes"/>
      <point x="868" y="388"/>
      <point x="824" y="438"/>
      <point x="744" y="438" type="curve" smooth="yes"/>
      <point x="671" y="438"/>
      <point x="619" y="399"/>
      <point x="617" y="368" type="curve"/>
      <point x="617" y="363"/>
      <point x="618" y="359"/>
      <point x="624" y="359" type="curve" smooth="yes"/>
      <point x="640" y="359"/>
      <point x="643" y="395"/>
      <point x="716" y="395" type="curve" smooth="yes"/>
      <point x="738" y="395"/>
      <point x="792" y="384"/>
      <point x="792" y="316" type="curve" smooth="yes"/>
      <point x="792" y="182"/>
      <point x="579" y="20"/>
      <point x="578" y="6" type="curve"/>
    </contour>
    <contour>
      <point x="178" y="-37" type="line"/>
      <point x="229" y="-37" type="line"/>
      <point x="746" y="700" type="line"/>
      <point x="695" y="700" type="line"/>
    </contour>
    <contour>
      <point x="50" y="244" type="line"/>
      <point x="268" y="244" type="line"/>
      <point x="269" y="273" type="line"/>
      <point x="200" y="274"/>
      <point x="186" y="271"/>
      <point x="186" y="296" type="curve" smooth="yes"/>
      <point x="186" y="303"/>
      <point x="197" y="455"/>
      <point x="203" y="534" type="curve" smooth="yes"/>
      <point x="207" y="589"/>
      <point x="218" y="682"/>
      <point x="218" y="687" type="curve" smooth="yes"/>
      <point x="218" y="691"/>
      <point x="217" y="694"/>
      <point x="212" y="694" type="curve" smooth="yes"/>
      <point x="204" y="694"/>
      <point x="181" y="683"/>
      <point x="167" y="678" type="curve" smooth="yes"/>
      <point x="137" y="667"/>
      <point x="101" y="654"/>
      <point x="67" y="643" type="curve"/>
      <point x="66" y="618" type="line"/>
      <point x="77" y="624"/>
      <point x="133" y="643"/>
      <point x="139" y="643" type="curve" smooth="yes"/>
      <point x="146" y="643"/>
      <point x="149" y="638"/>
      <point x="149" y="619" type="curve" smooth="yes"/>
      <point x="149" y="600"/>
      <point x="135" y="406"/>
      <point x="127" y="301" type="curve" smooth="yes"/>
      <point x="125" y="269"/>
      <point x="112" y="274"/>
      <point x="51" y="273" type="curve"/>
    </contour>
  </outline>
</glyph>
<glyph name="threequarters" format="1">
  <advance width="916"/>
  <unicode hex="00BE"/>
  <outline>
    <contour>
      <point x="527" y="120"/>
      <point x="531" y="120"/>
      <point x="536" y="120" type="curve" smooth="yes"/>
      <point x="733" y="120" type="line"/>
      <point x="724" y="-10" type="line"/>
      <point x="783" y="-10" type="line"/>
      <point x="792" y="120" type="line"/>
      <point x="852" y="120" type="line"/>
      <point x="871" y="176" type="line"/>
      <point x="796" y="176" type="line"/>
      <point x="813" y="427" type="line"/>
      <point x="814" y="436"/>
      <point x="815" y="444"/>
      <point x="810" y="444" type="curve" smooth="yes"/>
      <point x="808" y="444"/>
      <point x="803" y="443"/>
      <point x="798" y="437" type="curve" smooth="yes"/>
      <point x="578" y="178"/>
      <point x="528" y="144"/>
      <point x="527" y="125" type="curve"/>
    </contour>
    <contour>
      <point x="604" y="176" type="line"/>
      <point x="749" y="341" type="line"/>
      <point x="737" y="176" type="line"/>
    </contour>
    <contour>
      <point x="212" y="-37" type="line"/>
      <point x="263" y="-37" type="line"/>
      <point x="780" y="700" type="line"/>
      <point x="729" y="700" type="line"/>
    </contour>
    <contour>
      <point x="45" y="258"/>
      <point x="102" y="233"/>
      <point x="166" y="233" type="curve" smooth="yes"/>
      <point x="251" y="233"/>
      <point x="343" y="274"/>
      <point x="343" y="372" type="curve" smooth="yes"/>
      <point x="343" y="469"/>
      <point x="210" y="486"/>
      <point x="210" y="486" type="curve" smooth="yes"/>
      <point x="210" y="486"/>
      <point x="325" y="516"/>
      <point x="325" y="601" type="curve" smooth="yes"/>
      <point x="325" y="656"/>
      <point x="270" y="684"/>
      <point x="213" y="684" type="curve" smooth="yes"/>
      <point x="131" y="684"/>
      <point x="92" y="633"/>
      <point x="91" y="619" type="curve"/>
      <point x="91" y="612"/>
      <point x="93" y="608"/>
      <point x="99" y="608" type="curve" smooth="yes"/>
      <point x="115" y="608"/>
      <point x="125" y="641"/>
      <point x="185" y="641" type="curve" smooth="yes"/>
      <point x="229" y="641"/>
      <point x="250" y="605"/>
      <point x="250" y="580" type="curve" smooth="yes"/>
      <point x="250" y="558"/>
      <point x="240" y="508"/>
      <point x="180" y="495" type="curve" smooth="yes"/>
      <point x="161" y="491"/>
      <point x="149" y="491"/>
      <point x="149" y="477" type="curve" smooth="yes"/>
      <point x="149" y="467"/>
      <point x="163" y="470"/>
      <point x="184" y="466" type="curve" smooth="yes"/>
      <point x="236" y="457"/>
      <point x="271" y="412"/>
      <point x="271" y="371" type="curve" smooth="yes"/>
      <point x="271" y="333"/>
      <point x="247" y="268"/>
      <point x="159" y="268" type="curve" smooth="yes"/>
      <point x="90" y="268"/>
      <point x="72" y="293"/>
      <point x="58" y="293" type="curve" smooth="yes"/>
      <point x="54" y="293"/>
      <point x="45" y="292"/>
      <point x="45" y="281" type="curve" smooth="yes"/>
    </contour>
  </outline>
</glyph>
<glyph name="questiondown" format="1">
  <advance width="364"/>
  <unicode hex="00BF"/>
  <outline>
    <contour>
      <point x="36" y="71"/>
      <point x="139" y="-9"/>
      <point x="188" y="-9" type="curve" smooth="yes"/>
      <point x="232" y="-9"/>
      <point x="259" y="35"/>
      <point x="259" y="51" type="curve" smooth="yes"/>
      <point x="259" y="60"/>
      <point x="255" y="63"/>
      <point x="246" y="63" type="curve" smooth="yes"/>
      <point x="218" y="63"/>
      <point x="176" y="53"/>
      <point x="160" y="53" type="curve" smooth="yes"/>
      <point x="130" y="53"/>
      <point x="101" y="73"/>
      <point x="101" y="109" type="curve" smooth="yes"/>
      <point x="101" y="210"/>
      <point x="273" y="301"/>
      <point x="273" y="400" type="curve" smooth="yes"/>
      <point x="273" y="476"/>
      <point x="228" y="512"/>
      <point x="212" y="512" type="curve" smooth="yes"/>
      <point x="205" y="512"/>
      <point x="200" y="507"/>
      <point x="200" y="500" type="curve" smooth="yes"/>
      <point x="200" y="490"/>
      <point x="222" y="477"/>
      <point x="222" y="437" type="curve" smooth="yes"/>
      <point x="222" y="350"/>
      <point x="36" y="235"/>
      <point x="36" y="171" type="curve" smooth="yes"/>
    </contour>
    <contour>
      <point x="172" y="605"/>
      <point x="196" y="572"/>
      <point x="213" y="572" type="curve" smooth="yes"/>
      <point x="226" y="572"/>
      <point x="257" y="600"/>
      <point x="257" y="619" type="curve" smooth="yes"/>
      <point x="257" y="631"/>
      <point x="234" y="667"/>
      <point x="219" y="667" type="curve" smooth="yes"/>
      <point x="201" y="667"/>
      <point x="172" y="632"/>
      <point x="172" y="620" type="curve" smooth="yes"/>
    </contour>
  </outline>
</glyph>
<glyph name="Acircumflex" format="1">
  <advance width="655"/>
  <unicode hex="00C2"/>
  <outline>
    <contour>
      <point x="322" y="747" type="line"/>
      <point x="383" y="819" type="line"/>
      <point x="408" y="790"/>
      <point x="424" y="770"/>
      <point x="445" y="747" type="curve"/>
      <point x="503" y="747" type="line"/>
      <point x="474" y="788"/>
      <point x="454" y="817"/>
      <point x="423" y="866" type="curve"/>
      <point x="364" y="866" type="line"/>
      <point x="329" y="812"/>
      <point x="314" y="789"/>
      <point x="284" y="747" type="curve"/>
    </contour>
    <contour>
      <point x="20" y="0" type="line"/>
      <point x="214" y="0" type="line"/>
      <point x="216" y="32" type="line"/>
      <point x="197" y="32" type="line" smooth="yes"/>
      <point x="148" y="32"/>
      <point x="134" y="34"/>
      <point x="134" y="49" type="curve" smooth="yes"/>
      <point x="134" y="57"/>
      <point x="140" y="70"/>
      <point x="148" y="88" type="curve" smooth="yes"/>
      <point x="226" y="257" type="line"/>
      <point x="425" y="257" type="line"/>
      <point x="469" y="70" type="line" smooth="yes"/>
      <point x="471" y="62"/>
      <point x="472" y="56"/>
      <point x="472" y="51" type="curve" smooth="yes"/>
      <point x="472" y="33"/>
      <point x="458" y="32"/>
      <point x="421" y="32" type="curve" smooth="yes"/>
      <point x="392" y="32" type="line"/>
      <point x="392" y="0" type="line"/>
      <point x="625" y="0" type="line"/>
      <point x="625" y="32" type="line"/>
      <point x="596" y="32" type="line" smooth="yes"/>
      <point x="560" y="32"/>
      <point x="557" y="34"/>
      <point x="537" y="115" type="curve" smooth="yes"/>
      <point x="396" y="683" type="line"/>
      <point x="378" y="683" type="line"/>
      <point x="97" y="85" type="line" smooth="yes"/>
      <point x="74" y="35"/>
      <point x="63" y="32"/>
      <point x="36" y="32" type="curve" smooth="yes"/>
      <point x="20" y="32" type="line"/>
    </contour>
    <contour>
      <point x="242" y="296" type="line"/>
      <point x="353" y="548" type="line"/>
      <point x="416" y="296" type="line"/>
    </contour>
  </outline>
</glyph>
<glyph name="Atilde" format="1">
  <advance width="655"/>
  <unicode hex="00C3"/>
  <outline>
    <contour>
      <point x="281" y="750" type="line"/>
      <point x="281" y="750"/>
      <point x="292" y="802"/>
      <point x="327" y="802" type="curve" smooth="yes"/>
      <point x="343" y="802"/>
      <point x="359" y="797"/>
      <point x="369" y="792" type="curve" smooth="yes"/>
      <point x="400" y="777" type="line" smooth="yes"/>
      <point x="411" y="772"/>
      <point x="422" y="768"/>
      <point x="436" y="768" type="curve" smooth="yes"/>
      <point x="492" y="768"/>
      <point x="511" y="857"/>
      <point x="512" y="862" type="curve"/>
      <point x="498" y="866" type="line"/>
      <point x="498" y="866"/>
      <point x="483" y="821"/>
      <point x="450" y="821" type="curve" smooth="yes"/>
      <point x="439" y="821"/>
      <point x="428" y="825"/>
      <point x="416" y="831" type="curve" smooth="yes"/>
      <point x="386" y="847" type="line" smooth="yes"/>
      <point x="373" y="854"/>
      <point x="359" y="859"/>
      <point x="343" y="859" type="curve" smooth="yes"/>
      <point x="286" y="859"/>
      <point x="267" y="754"/>
      <point x="267" y="754" type="curve"/>
    </contour>
    <contour>
      <point x="20" y="0" type="line"/>
      <point x="214" y="0" type="line"/>
      <point x="216" y="32" type="line"/>
      <point x="197" y="32" type="line" smooth="yes"/>
      <point x="148" y="32"/>
      <point x="134" y="34"/>
      <point x="134" y="49" type="curve" smooth="yes"/>
      <point x="134" y="57"/>
      <point x="140" y="70"/>
      <point x="148" y="88" type="curve" smooth="yes"/>
      <point x="226" y="257" type="line"/>
      <point x="425" y="257" type="line"/>
      <point x="469" y="70" type="line" smooth="yes"/>
      <point x="471" y="62"/>
      <point x="472" y="56"/>
      <point x="472" y="51" type="curve" smooth="yes"/>
      <point x="472" y="33"/>
      <point x="458" y="32"/>
      <point x="421" y="32" type="curve" smooth="yes"/>
      <point x="392" y="32" type="line"/>
      <point x="392" y="0" type="line"/>
      <point x="625" y="0" type="line"/>
      <point x="625" y="32" type="line"/>
      <point x="596" y="32" type="line" smooth="yes"/>
      <point x="560" y="32"/>
      <point x="557" y="34"/>
      <point x="537" y="115" type="curve" smooth="yes"/>
      <point x="396" y="683" type="line"/>
      <point x="378" y="683" type="line"/>
      <point x="97" y="85" type="line" smooth="yes"/>
      <point x="74" y="35"/>
      <point x="63" y="32"/>
      <point x="36" y="32" type="curve" smooth="yes"/>
      <point x="20" y="32" type="line"/>
    </contour>
    <contour>
      <point x="242" y="296" type="line"/>
      <point x="353" y="548" type="line"/>
      <point x="416" y="296" type="line"/>
    </contour>
  </outline>
</glyph>
<glyph name="Adieresis" format="1">
  <advance width="655"/>
  <unicode hex="00C4"/>
  <outline>
    <contour>
      <point x="271" y="795"/>
      <point x="301" y="767"/>
      <point x="312" y="767" type="curve" smooth="yes"/>
      <point x="325" y="767"/>
      <point x="356" y="793"/>
      <point x="356" y="809" type="curve" smooth="yes"/>
      <point x="356" y="820"/>
      <point x="333" y="854"/>
      <point x="315" y="854" type="curve" smooth="yes"/>
      <point x="305" y="854"/>
      <point x="271" y="826"/>
      <point x="271" y="812" type="curve" smooth="yes"/>
    </contour>
    <contour>
      <point x="418" y="795"/>
      <point x="448" y="767"/>
      <point x="459" y="767" type="curve" smooth="yes"/>
      <point x="472" y="767"/>
      <point x="503" y="793"/>
      <point x="503" y="809" type="curve" smooth="yes"/>
      <point x="503" y="820"/>
      <point x="479" y="854"/>
      <point x="461" y="854" type="curve" smooth="yes"/>
      <point x="451" y="854"/>
      <point x="418" y="826"/>
      <point x="418" y="812" type="curve" smooth="yes"/>
    </contour>
    <contour>
      <point x="20" y="0" type="line"/>
      <point x="214" y="0" type="line"/>
      <point x="216" y="32" type="line"/>
      <point x="197" y="32" type="line" smooth="yes"/>
      <point x="148" y="32"/>
      <point x="134" y="34"/>
      <point x="134" y="49" type="curve" smooth="yes"/>
      <point x="134" y="57"/>
      <point x="140" y="70"/>
      <point x="148" y="88" type="curve" smooth="yes"/>
      <point x="226" y="257" type="line"/>
      <point x="425" y="257" type="line"/>
      <point x="469" y="70" type="line" smooth="yes"/>
      <point x="471" y="62"/>
      <point x="472" y="56"/>
      <point x="472" y="51" type="curve" smooth="yes"/>
      <point x="472" y="33"/>
      <point x="458" y="32"/>
      <point x="421" y="32" type="curve" smooth="yes"/>
      <point x="392" y="32" type="line"/>
      <point x="392" y="0" type="line"/>
      <point x="625" y="0" type="line"/>
      <point x="625" y="32" type="line"/>
      <point x="596" y="32" type="line" smooth="yes"/>
      <point x="560" y="32"/>
      <point x="557" y="34"/>
      <point x="537" y="115" type="curve" smooth="yes"/>
      <point x="396" y="683" type="line"/>
      <point x="378" y="683" type="line"/>
      <point x="97" y="85" type="line" smooth="yes"/>
      <point x="74" y="35"/>
      <point x="63" y="32"/>
      <point x="36" y="32" type="curve" smooth="yes"/>
      <point x="20" y="32" type="line"/>
    </contour>
    <contour>
      <point x="242" y="296" type="line"/>
      <point x="353" y="548" type="line"/>
      <point x="416" y="296" type="line"/>
    </contour>
  </outline>
</glyph>
<glyph name="Aring" format="1">
  <advance width="655"/>
  <unicode hex="00C5"/>
  <outline>
    <contour>
      <point x="306" y="750"/>
      <point x="348" y="719"/>
      <point x="390" y="719" type="curve" smooth="yes"/>
      <point x="432" y="719"/>
      <point x="468" y="755"/>
      <point x="468" y="796" type="curve" smooth="yes"/>
      <point x="468" y="837"/>
      <point x="430" y="876"/>
      <point x="387" y="876" type="curve" smooth="yes"/>
      <point x="345" y="876"/>
      <point x="306" y="830"/>
      <point x="306" y="792" type="curve" smooth="yes"/>
    </contour>
    <contour>
      <point x="340" y="805"/>
      <point x="347" y="844"/>
      <point x="387" y="844" type="curve" smooth="yes"/>
      <point x="405" y="844"/>
      <point x="433" y="835"/>
      <point x="433" y="796" type="curve" smooth="yes"/>
      <point x="433" y="759"/>
      <point x="410" y="749"/>
      <point x="389" y="749" type="curve" smooth="yes"/>
      <point x="360" y="749"/>
      <point x="340" y="765"/>
      <point x="340" y="793" type="curve" smooth="yes"/>
    </contour>
    <contour>
      <point x="20" y="0" type="line"/>
      <point x="214" y="0" type="line"/>
      <point x="216" y="32" type="line"/>
      <point x="197" y="32" type="line" smooth="yes"/>
      <point x="148" y="32"/>
      <point x="134" y="34"/>
      <point x="134" y="49" type="curve" smooth="yes"/>
      <point x="134" y="57"/>
      <point x="140" y="70"/>
      <point x="148" y="88" type="curve" smooth="yes"/>
      <point x="226" y="257" type="line"/>
      <point x="425" y="257" type="line"/>
      <point x="469" y="70" type="line" smooth="yes"/>
      <point x="471" y="62"/>
      <point x="472" y="56"/>
      <point x="472" y="51" type="curve" smooth="yes"/>
      <point x="472" y="33"/>
      <point x="458" y="32"/>
      <point x="421" y="32" type="curve" smooth="yes"/>
      <point x="392" y="32" type="line"/>
      <point x="392" y="0" type="line"/>
      <point x="625" y="0" type="line"/>
      <point x="625" y="32" type="line"/>
      <point x="596" y="32" type="line" smooth="yes"/>
      <point x="560" y="32"/>
      <point x="557" y="34"/>
      <point x="537" y="115" type="curve" smooth="yes"/>
      <point x="396" y="683" type="line"/>
      <point x="378" y="683" type="line"/>
      <point x="97" y="85" type="line" smooth="yes"/>
      <point x="74" y="35"/>
      <point x="63" y="32"/>
      <point x="36" y="32" type="curve" smooth="yes"/>
      <point x="20" y="32" type="line"/>
    </contour>
    <contour>
      <point x="242" y="296" type="line"/>
      <point x="353" y="548" type="line"/>
      <point x="416" y="296" type="line"/>
    </contour>
  </outline>
</glyph>
<glyph name="AE" format="1">
  <advance width="962"/>
  <unicode hex="00C6"/>
  <outline>
    <contour>
      <point x="10" y="0" type="line"/>
      <point x="212" y="0" type="line"/>
      <point x="214" y="32" type="line"/>
      <point x="195" y="32" type="line" smooth="yes"/>
      <point x="146" y="32"/>
      <point x="132" y="34"/>
      <point x="132" y="49" type="curve" smooth="yes"/>
      <point x="132" y="57"/>
      <point x="143" y="71"/>
      <point x="156" y="88" type="curve" smooth="yes"/>
      <point x="288" y="257" type="line"/>
      <point x="517" y="257" type="line"/>
      <point x="499" y="62" type="line" smooth="yes"/>
      <point x="496" y="34"/>
      <point x="490" y="32"/>
      <point x="456" y="32" type="curve" smooth="yes"/>
      <point x="433" y="32" type="line"/>
      <point x="431" y="0" type="line"/>
      <point x="876" y="0" type="line"/>
      <point x="910" y="147" type="line"/>
      <point x="885" y="152" type="line"/>
      <point x="880" y="131"/>
      <point x="874" y="99"/>
      <point x="865" y="76" type="curve"/>
      <point x="856" y="50"/>
      <point x="851" y="46"/>
      <point x="608" y="46" type="curve" smooth="yes"/>
      <point x="593" y="46" type="line" smooth="yes"/>
      <point x="574" y="46"/>
      <point x="569" y="47"/>
      <point x="569" y="62" type="curve" smooth="yes"/>
      <point x="569" y="69"/>
      <point x="570" y="80"/>
      <point x="571" y="93" type="curve" smooth="yes"/>
      <point x="594" y="359" type="line"/>
      <point x="773" y="359" type="line" smooth="yes"/>
      <point x="796" y="359"/>
      <point x="804" y="354"/>
      <point x="804" y="336" type="curve" smooth="yes"/>
      <point x="804" y="329"/>
      <point x="803" y="322"/>
      <point x="799" y="268" type="curve"/>
      <point x="823" y="267" type="line"/>
      <point x="839" y="472" type="line"/>
      <point x="817" y="473" type="line"/>
      <point x="812" y="424" type="line" smooth="yes"/>
      <point x="809" y="400"/>
      <point x="806" y="398"/>
      <point x="778" y="398" type="curve" smooth="yes"/>
      <point x="598" y="398" type="line"/>
      <point x="618" y="621" type="line" smooth="yes"/>
      <point x="619" y="634"/>
      <point x="624" y="635"/>
      <point x="645" y="635" type="curve" smooth="yes"/>
      <point x="876" y="631"/>
      <point x="888" y="633"/>
      <point x="889" y="597" type="curve" smooth="yes"/>
      <point x="890" y="545" type="line"/>
      <point x="912" y="546" type="line"/>
      <point x="912" y="667" type="line"/>
      <point x="464" y="667" type="line"/>
      <point x="464" y="635" type="line"/>
      <point x="519" y="635" type="line" smooth="yes"/>
      <point x="535" y="635"/>
      <point x="541" y="632"/>
      <point x="541" y="627" type="curve" smooth="yes"/>
      <point x="541" y="623"/>
      <point x="538" y="618"/>
      <point x="533" y="612" type="curve" smooth="yes"/>
      <point x="97" y="85" type="line" smooth="yes"/>
      <point x="70" y="52"/>
      <point x="53" y="32"/>
      <point x="26" y="32" type="curve" smooth="yes"/>
      <point x="10" y="32" type="line"/>
    </contour>
    <contour>
      <point x="322" y="296" type="line"/>
      <point x="546" y="574" type="line"/>
      <point x="520" y="296" type="line"/>
    </contour>
  </outline>
</glyph>
<glyph name="Ccedilla" format="1">
  <advance width="685"/>
  <unicode hex="00C7"/>
  <outline>
    <contour>
      <point x="45" y="135"/>
      <point x="128" y="-4"/>
      <point x="336" y="-11" type="curve"/>
      <point x="311" y="-79" type="line"/>
      <point x="321" y="-96" type="line"/>
      <point x="328" y="-95"/>
      <point x="333" y="-95"/>
      <point x="340" y="-95" type="curve" smooth="yes"/>
      <point x="371" y="-95"/>
      <point x="405" y="-105"/>
      <point x="405" y="-139" type="curve" smooth="yes"/>
      <point x="405" y="-173"/>
      <point x="385" y="-193"/>
      <point x="357" y="-193" type="curve" smooth="yes"/>
      <point x="339" y="-193"/>
      <point x="312" y="-183"/>
      <point x="312" y="-183" type="curve"/>
      <point x="291" y="-207" type="line"/>
      <point x="291" y="-207"/>
      <point x="305" y="-220"/>
      <point x="350" y="-220" type="curve" smooth="yes"/>
      <point x="399" y="-220"/>
      <point x="456" y="-193"/>
      <point x="456" y="-135" type="curve" smooth="yes"/>
      <point x="456" y="-83"/>
      <point x="405" y="-65"/>
      <point x="355" y="-65" type="curve" smooth="yes"/>
      <point x="349" y="-65"/>
      <point x="345" y="-66"/>
      <point x="339" y="-66" type="curve"/>
      <point x="358" y="-11" type="line"/>
      <point x="439" y="-10"/>
      <point x="497" y="12"/>
      <point x="530" y="31" type="curve" smooth="yes"/>
      <point x="560" y="47"/>
      <point x="564" y="52"/>
      <point x="567" y="64" type="curve" smooth="yes"/>
      <point x="569" y="73"/>
      <point x="575" y="97"/>
      <point x="585" y="153" type="curve"/>
      <point x="563" y="153" type="line"/>
      <point x="538" y="97"/>
      <point x="537" y="93"/>
      <point x="490" y="63" type="curve" smooth="yes"/>
      <point x="445" y="35"/>
      <point x="396" y="24"/>
      <point x="358" y="24" type="curve" smooth="yes"/>
      <point x="230" y="24"/>
      <point x="125" y="140"/>
      <point x="125" y="319" type="curve" smooth="yes"/>
      <point x="125" y="527"/>
      <point x="267" y="650"/>
      <point x="401" y="650" type="curve" smooth="yes"/>
      <point x="490" y="650"/>
      <point x="538" y="605"/>
      <point x="546" y="578" type="curve" smooth="yes"/>
      <point x="557" y="540"/>
      <point x="557" y="511"/>
      <point x="578" y="511" type="curve" smooth="yes"/>
      <point x="604" y="511"/>
      <point x="615" y="568"/>
      <point x="615" y="577" type="curve" smooth="yes"/>
      <point x="615" y="633"/>
      <point x="517" y="682"/>
      <point x="402" y="682" type="curve" smooth="yes"/>
      <point x="161" y="682"/>
      <point x="45" y="472"/>
      <point x="45" y="287" type="curve" smooth="yes"/>
    </contour>
  </outline>
</glyph>
<glyph name="Edieresis" format="1">
  <advance width="547"/>
  <unicode hex="00CB"/>
  <outline>
    <contour>
      <point x="191" y="794"/>
      <point x="221" y="766"/>
      <point x="232" y="766" type="curve" smooth="yes"/>
      <point x="245" y="766"/>
      <point x="276" y="792"/>
      <point x="276" y="808" type="curve" smooth="yes"/>
      <point x="276" y="819"/>
      <point x="253" y="853"/>
      <point x="235" y="853" type="curve" smooth="yes"/>
      <point x="225" y="853"/>
      <point x="191" y="825"/>
      <point x="191" y="811" type="curve" smooth="yes"/>
    </contour>
    <contour>
      <point x="338" y="794"/>
      <point x="368" y="766"/>
      <point x="379" y="766" type="curve" smooth="yes"/>
      <point x="392" y="766"/>
      <point x="423" y="792"/>
      <point x="423" y="808" type="curve" smooth="yes"/>
      <point x="423" y="819"/>
      <point x="399" y="853"/>
      <point x="381" y="853" type="curve" smooth="yes"/>
      <point x="371" y="853"/>
      <point x="338" y="825"/>
      <point x="338" y="811" type="curve" smooth="yes"/>
    </contour>
    <contour>
      <point x="16" y="0" type="line"/>
      <point x="461" y="0" type="line"/>
      <point x="495" y="147" type="line"/>
      <point x="470" y="152" type="line"/>
      <point x="465" y="131"/>
      <point x="459" y="99"/>
      <point x="450" y="76" type="curve"/>
      <point x="441" y="50"/>
      <point x="436" y="46"/>
      <point x="193" y="46" type="curve" smooth="yes"/>
      <point x="178" y="46" type="line" smooth="yes"/>
      <point x="159" y="46"/>
      <point x="154" y="47"/>
      <point x="154" y="62" type="curve" smooth="yes"/>
      <point x="154" y="69"/>
      <point x="155" y="80"/>
      <point x="156" y="93" type="curve" smooth="yes"/>
      <point x="179" y="359" type="line"/>
      <point x="358" y="359" type="line" smooth="yes"/>
      <point x="381" y="359"/>
      <point x="389" y="354"/>
      <point x="389" y="336" type="curve" smooth="yes"/>
      <point x="389" y="329"/>
      <point x="388" y="322"/>
      <point x="384" y="268" type="curve"/>
      <point x="408" y="267" type="line"/>
      <point x="424" y="472" type="line"/>
      <point x="402" y="473" type="line"/>
      <point x="397" y="424" type="line" smooth="yes"/>
      <point x="394" y="400"/>
      <point x="391" y="398"/>
      <point x="363" y="398" type="curve" smooth="yes"/>
      <point x="183" y="398" type="line"/>
      <point x="203" y="621" type="line" smooth="yes"/>
      <point x="204" y="634"/>
      <point x="209" y="635"/>
      <point x="230" y="635" type="curve" smooth="yes"/>
      <point x="461" y="631"/>
      <point x="473" y="633"/>
      <point x="474" y="597" type="curve" smooth="yes"/>
      <point x="475" y="545" type="line"/>
      <point x="497" y="546" type="line"/>
      <point x="497" y="667" type="line"/>
      <point x="49" y="667" type="line"/>
      <point x="49" y="635" type="line"/>
      <point x="104" y="635" type="line" smooth="yes"/>
      <point x="126" y="635"/>
      <point x="135" y="635"/>
      <point x="135" y="619" type="curve" smooth="yes"/>
      <point x="135" y="612"/>
      <point x="133" y="610"/>
      <point x="84" y="62" type="curve" smooth="yes"/>
      <point x="81" y="34"/>
      <point x="75" y="32"/>
      <point x="41" y="32" type="curve" smooth="yes"/>
      <point x="18" y="32" type="line"/>
    </contour>
  </outline>
</glyph>
<glyph name="Iacute" format="1">
  <advance width="305"/>
  <unicode hex="00CD"/>
  <outline>
    <contour>
      <point x="155" y="727" type="line"/>
      <point x="191" y="727" type="line"/>
      <point x="277" y="869" type="line"/>
      <point x="207" y="869" type="line"/>
    </contour>
    <contour>
      <point x="21" y="0" type="line"/>
      <point x="254" y="0" type="line"/>
      <point x="255" y="32" type="line"/>
      <point x="213" y="32" type="line" smooth="yes"/>
      <point x="166" y="32"/>
      <point x="160" y="33"/>
      <point x="160" y="56" type="curve" smooth="yes"/>
      <point x="160" y="63"/>
      <point x="161" y="71"/>
      <point x="162" y="82" type="curve" smooth="yes"/>
      <point x="213" y="598" type="line" smooth="yes"/>
      <point x="217" y="635"/>
      <point x="220" y="635"/>
      <point x="272" y="635" type="curve" smooth="yes"/>
      <point x="284" y="635" type="line"/>
      <point x="286" y="667" type="line"/>
      <point x="62" y="667" type="line"/>
      <point x="61" y="635" type="line"/>
      <point x="108" y="635" type="line" smooth="yes"/>
      <point x="137" y="635"/>
      <point x="144" y="634"/>
      <point x="144" y="616" type="curve" smooth="yes"/>
      <point x="144" y="611"/>
      <point x="144" y="604"/>
      <point x="143" y="596" type="curve" smooth="yes"/>
      <point x="92" y="78" type="line" smooth="yes"/>
      <point x="88" y="35"/>
      <point x="84" y="32"/>
      <point x="44" y="32" type="curve" smooth="yes"/>
      <point x="22" y="32" type="line"/>
    </contour>
  </outline>
</glyph>
<glyph name="Idieresis" format="1">
  <advance width="305"/>
  <unicode hex="00CF"/>
  <outline>
    <contour>
      <point x="63" y="794"/>
      <point x="93" y="766"/>
      <point x="104" y="766" type="curve" smooth="yes"/>
      <point x="117" y="766"/>
      <point x="148" y="792"/>
      <point x="148" y="808" type="curve" smooth="yes"/>
      <point x="148" y="819"/>
      <point x="125" y="853"/>
      <point x="107" y="853" type="curve" smooth="yes"/>
      <point x="97" y="853"/>
      <point x="63" y="825"/>
      <point x="63" y="811" type="curve" smooth="yes"/>
    </contour>
    <contour>
      <point x="210" y="794"/>
      <point x="240" y="766"/>
      <point x="251" y="766" type="curve" smooth="yes"/>
      <point x="264" y="766"/>
      <point x="295" y="792"/>
      <point x="295" y="808" type="curve" smooth="yes"/>
      <point x="295" y="819"/>
      <point x="271" y="853"/>
      <point x="253" y="853" type="curve" smooth="yes"/>
      <point x="243" y="853"/>
      <point x="210" y="825"/>
      <point x="210" y="811" type="curve" smooth="yes"/>
    </contour>
    <contour>
      <point x="21" y="0" type="line"/>
      <point x="254" y="0" type="line"/>
      <point x="255" y="32" type="line"/>
      <point x="213" y="32" type="line" smooth="yes"/>
      <point x="166" y="32"/>
      <point x="160" y="33"/>
      <point x="160" y="56" type="curve" smooth="yes"/>
      <point x="160" y="63"/>
      <point x="161" y="71"/>
      <point x="162" y="82" type="curve" smooth="yes"/>
      <point x="213" y="598" type="line" smooth="yes"/>
      <point x="217" y="635"/>
      <point x="220" y="635"/>
      <point x="272" y="635" type="curve" smooth="yes"/>
      <point x="284" y="635" type="line"/>
      <point x="286" y="667" type="line"/>
      <point x="62" y="667" type="line"/>
      <point x="61" y="635" type="line"/>
      <point x="108" y="635" type="line" smooth="yes"/>
      <point x="137" y="635"/>
      <point x="144" y="634"/>
      <point x="144" y="616" type="curve" smooth="yes"/>
      <point x="144" y="611"/>
      <point x="144" y="604"/>
      <point x="143" y="596" type="curve" smooth="yes"/>
      <point x="92" y="78" type="line" smooth="yes"/>
      <point x="88" y="35"/>
      <point x="84" y="32"/>
      <point x="44" y="32" type="curve" smooth="yes"/>
      <point x="22" y="32" type="line"/>
    </contour>
  </outline>
</glyph>
<glyph name="Eth" format="1">
  <advance width="729"/>
  <unicode hex="00D0"/>
  <outline>
    <contour>
      <point x="22" y="0" type="line"/>
      <point x="281" y="0" type="line" smooth="yes"/>
      <point x="386" y="0"/>
      <point x="484" y="19"/>
      <point x="572" y="110" type="curve" smooth="yes"/>
      <point x="643" y="183"/>
      <point x="679" y="281"/>
      <point x="679" y="373" type="curve" smooth="yes"/>
      <point x="679" y="437"/>
      <point x="662" y="499"/>
      <point x="626" y="550" type="curve" smooth="yes"/>
      <point x="565" y="636"/>
      <point x="495" y="667"/>
      <point x="306" y="667" type="curve" smooth="yes"/>
      <point x="40" y="667" type="line"/>
      <point x="38" y="635" type="line"/>
      <point x="80" y="635" type="line" smooth="yes"/>
      <point x="118" y="635"/>
      <point x="125" y="635"/>
      <point x="125" y="618" type="curve" smooth="yes"/>
      <point x="125" y="615"/>
      <point x="124" y="611"/>
      <point x="104" y="358" type="curve"/>
      <point x="40" y="358" type="line"/>
      <point x="37" y="319" type="line"/>
      <point x="101" y="319" type="line"/>
      <point x="81" y="62" type="line" smooth="yes"/>
      <point x="79" y="34"/>
      <point x="76" y="32"/>
      <point x="42" y="32" type="curve" smooth="yes"/>
      <point x="24" y="32" type="line"/>
    </contour>
    <contour>
      <point x="155" y="81"/>
      <point x="156" y="103"/>
      <point x="159" y="140" type="curve" smooth="yes"/>
      <point x="174" y="319" type="line"/>
      <point x="380" y="319" type="line"/>
      <point x="383" y="358" type="line"/>
      <point x="177" y="358" type="line"/>
      <point x="197" y="609" type="line" smooth="yes"/>
      <point x="199" y="633"/>
      <point x="198" y="635"/>
      <point x="225" y="635" type="curve" smooth="yes"/>
      <point x="325" y="635" type="line" smooth="yes"/>
      <point x="544" y="635"/>
      <point x="599" y="475"/>
      <point x="599" y="359" type="curve" smooth="yes"/>
      <point x="599" y="237"/>
      <point x="538" y="32"/>
      <point x="292" y="32" type="curve" smooth="yes"/>
      <point x="227" y="32" type="line" smooth="yes"/>
      <point x="167" y="32"/>
      <point x="155" y="33"/>
      <point x="155" y="66" type="curve" smooth="yes"/>
    </contour>
  </outline>
</glyph>
<glyph name="Ntilde" format="1">
  <advance width="748"/>
  <unicode hex="00D1"/>
  <outline>
    <contour>
      <point x="292" y="749" type="line"/>
      <point x="292" y="749"/>
      <point x="303" y="801"/>
      <point x="338" y="801" type="curve" smooth="yes"/>
      <point x="354" y="801"/>
      <point x="370" y="796"/>
      <point x="380" y="791" type="curve" smooth="yes"/>
      <point x="411" y="776" type="line" smooth="yes"/>
      <point x="422" y="771"/>
      <point x="433" y="767"/>
      <point x="447" y="767" type="curve" smooth="yes"/>
      <point x="503" y="767"/>
      <point x="522" y="856"/>
      <point x="523" y="861" type="curve"/>
      <point x="509" y="865" type="line"/>
      <point x="509" y="865"/>
      <point x="494" y="820"/>
      <point x="461" y="820" type="curve" smooth="yes"/>
      <point x="450" y="820"/>
      <point x="439" y="824"/>
      <point x="427" y="830" type="curve" smooth="yes"/>
      <point x="397" y="846" type="line" smooth="yes"/>
      <point x="384" y="853"/>
      <point x="370" y="858"/>
      <point x="354" y="858" type="curve" smooth="yes"/>
      <point x="297" y="858"/>
      <point x="278" y="753"/>
      <point x="278" y="753" type="curve"/>
    </contour>
    <contour>
      <point x="30" y="635" type="line"/>
      <point x="60" y="635" type="line" smooth="yes"/>
      <point x="115" y="635"/>
      <point x="107" y="634"/>
      <point x="145" y="589" type="curve"/>
      <point x="101" y="75" type="line" smooth="yes"/>
      <point x="98" y="35"/>
      <point x="96" y="32"/>
      <point x="56" y="32" type="curve" smooth="yes"/>
      <point x="34" y="32" type="line"/>
      <point x="32" y="0" type="line"/>
      <point x="222" y="0" type="line"/>
      <point x="223" y="32" type="line"/>
      <point x="168" y="32" type="line" smooth="yes"/>
      <point x="153" y="32"/>
      <point x="138" y="32"/>
      <point x="138" y="51" type="curve" smooth="yes"/>
      <point x="138" y="97"/>
      <point x="143" y="144"/>
      <point x="147" y="203" type="curve" smooth="yes"/>
      <point x="157" y="341"/>
      <point x="175" y="556"/>
      <point x="175" y="556" type="curve"/>
      <point x="574" y="1" type="line" smooth="yes"/>
      <point x="587" y="-17"/>
      <point x="589" y="-17"/>
      <point x="597" y="-17" type="curve" smooth="yes"/>
      <point x="601" y="-17"/>
      <point x="606" y="-17"/>
      <point x="608" y="7" type="curve" smooth="yes"/>
      <point x="625" y="175" type="line"/>
      <point x="657" y="488" type="line" smooth="yes"/>
      <point x="659" y="510"/>
      <point x="668" y="591"/>
      <point x="668" y="591" type="curve"/>
      <point x="672" y="627"/>
      <point x="671" y="635"/>
      <point x="711" y="635" type="curve" smooth="yes"/>
      <point x="736" y="635" type="line"/>
      <point x="738" y="667" type="line"/>
      <point x="553" y="667" type="line"/>
      <point x="552" y="635" type="line"/>
      <point x="601" y="635" type="line" smooth="yes"/>
      <point x="628" y="635"/>
      <point x="635" y="632"/>
      <point x="635" y="611" type="curve" smooth="yes"/>
      <point x="635" y="591"/>
      <point x="627" y="531"/>
      <point x="620" y="464" type="curve" smooth="yes"/>
      <point x="585" y="104" type="line"/>
      <point x="186" y="667" type="line"/>
      <point x="32" y="667" type="line"/>
    </contour>
  </outline>
</glyph>
<glyph name="Ocircumflex" format="1">
  <advance width="728"/>
  <unicode hex="00D4"/>
  <outline>
    <contour>
      <point x="329" y="746" type="line"/>
      <point x="390" y="818" type="line"/>
      <point x="415" y="789"/>
      <point x="431" y="769"/>
      <point x="452" y="746" type="curve"/>
      <point x="510" y="746" type="line"/>
      <point x="481" y="787"/>
      <point x="461" y="816"/>
      <point x="430" y="865" type="curve"/>
      <point x="371" y="865" type="line"/>
      <point x="336" y="811"/>
      <point x="321" y="788"/>
      <point x="291" y="746" type="curve"/>
    </contour>
    <contour>
      <point x="45" y="81"/>
      <point x="177" y="-16"/>
      <point x="321" y="-16" type="curve" smooth="yes"/>
      <point x="553" y="-16"/>
      <point x="678" y="188"/>
      <point x="678" y="376" type="curve" smooth="yes"/>
      <point x="678" y="537"/>
      <point x="587" y="686"/>
      <point x="392" y="686" type="curve" smooth="yes"/>
      <point x="184" y="686"/>
      <point x="45" y="513"/>
      <point x="45" y="297" type="curve" smooth="yes"/>
    </contour>
    <contour>
      <point x="127" y="538"/>
      <point x="257" y="654"/>
      <point x="381" y="654" type="curve" smooth="yes"/>
      <point x="491" y="654"/>
      <point x="596" y="561"/>
      <point x="596" y="368" type="curve" smooth="yes"/>
      <point x="596" y="140"/>
      <point x="466" y="20"/>
      <point x="343" y="20" type="curve" smooth="yes"/>
      <point x="232" y="20"/>
      <point x="127" y="116"/>
      <point x="127" y="318" type="curve" smooth="yes"/>
    </contour>
  </outline>
</glyph>
<glyph name="Otilde" format="1">
  <advance width="728"/>
  <unicode hex="00D5"/>
  <outline>
    <contour>
      <point x="288" y="749" type="line"/>
      <point x="288" y="749"/>
      <point x="299" y="801"/>
      <point x="334" y="801" type="curve" smooth="yes"/>
      <point x="350" y="801"/>
      <point x="366" y="796"/>
      <point x="376" y="791" type="curve" smooth="yes"/>
      <point x="407" y="776" type="line" smooth="yes"/>
      <point x="418" y="771"/>
      <point x="429" y="767"/>
      <point x="443" y="767" type="curve" smooth="yes"/>
      <point x="499" y="767"/>
      <point x="518" y="856"/>
      <point x="519" y="861" type="curve"/>
      <point x="505" y="865" type="line"/>
      <point x="505" y="865"/>
      <point x="490" y="820"/>
      <point x="457" y="820" type="curve" smooth="yes"/>
      <point x="446" y="820"/>
      <point x="435" y="824"/>
      <point x="423" y="830" type="curve" smooth="yes"/>
      <point x="393" y="846" type="line" smooth="yes"/>
      <point x="380" y="853"/>
      <point x="366" y="858"/>
      <point x="350" y="858" type="curve" smooth="yes"/>
      <point x="293" y="858"/>
      <point x="274" y="753"/>
      <point x="274" y="753" type="curve"/>
    </contour>
    <contour>
      <point x="45" y="81"/>
      <point x="177" y="-16"/>
      <point x="321" y="-16" type="curve" smooth="yes"/>
      <point x="553" y="-16"/>
      <point x="678" y="188"/>
      <point x="678" y="376" type="curve" smooth="yes"/>
      <point x="678" y="537"/>
      <point x="587" y="686"/>
      <point x="392" y="686" type="curve" smooth="yes"/>
      <point x="184" y="686"/>
      <point x="45" y="513"/>
      <point x="45" y="297" type="curve" smooth="yes"/>
    </contour>
    <contour>
      <point x="127" y="538"/>
      <point x="257" y="654"/>
      <point x="381" y="654" type="curve" smooth="yes"/>
      <point x="491" y="654"/>
      <point x="596" y="561"/>
      <point x="596" y="368" type="curve" smooth="yes"/>
      <point x="596" y="140"/>
      <point x="466" y="20"/>
      <point x="343" y="20" type="curve" smooth="yes"/>
      <point x="232" y="20"/>
      <point x="127" y="116"/>
      <point x="127" y="318" type="curve" smooth="yes"/>
    </contour>
  </outline>
</glyph>
<glyph name="Odieresis" format="1">
  <advance width="728"/>
  <unicode hex="00D6"/>
  <outline>
    <contour>
      <point x="278" y="794"/>
      <point x="308" y="766"/>
      <point x="319" y="766" type="curve" smooth="yes"/>
      <point x="332" y="766"/>
      <point x="363" y="792"/>
      <point x="363" y="808" type="curve" smooth="yes"/>
      <point x="363" y="819"/>
      <point x="340" y="853"/>
      <point x="322" y="853" type="curve" smooth="yes"/>
      <point x="312" y="853"/>
      <point x="278" y="825"/>
      <point x="278" y="811" type="curve" smooth="yes"/>
    </contour>
    <contour>
      <point x="425" y="794"/>
      <point x="455" y="766"/>
      <point x="466" y="766" type="curve" smooth="yes"/>
      <point x="479" y="766"/>
      <point x="510" y="792"/>
      <point x="510" y="808" type="curve" smooth="yes"/>
      <point x="510" y="819"/>
      <point x="486" y="853"/>
      <point x="468" y="853" type="curve" smooth="yes"/>
      <point x="458" y="853"/>
      <point x="425" y="825"/>
      <point x="425" y="811" type="curve" smooth="yes"/>
    </contour>
    <contour>
      <point x="45" y="81"/>
      <point x="177" y="-16"/>
      <point x="321" y="-16" type="curve" smooth="yes"/>
      <point x="553" y="-16"/>
      <point x="678" y="188"/>
      <point x="678" y="376" type="curve" smooth="yes"/>
      <point x="678" y="537"/>
      <point x="587" y="686"/>
      <point x="392" y="686" type="curve" smooth="yes"/>
      <point x="184" y="686"/>
      <point x="45" y="513"/>
      <point x="45" y="297" type="curve" smooth="yes"/>
    </contour>
    <contour>
      <point x="127" y="538"/>
      <point x="257" y="654"/>
      <point x="381" y="654" type="curve" smooth="yes"/>
      <point x="491" y="654"/>
      <point x="596" y="561"/>
      <point x="596" y="368" type="curve" smooth="yes"/>
      <point x="596" y="140"/>
      <point x="466" y="20"/>
      <point x="343" y="20" type="curve" smooth="yes"/>
      <point x="232" y="20"/>
      <point x="127" y="116"/>
      <point x="127" y="318" type="curve" smooth="yes"/>
    </contour>
  </outline>
</glyph>
<glyph name="Oslash" format="1">
  <advance width="728"/>
  <unicode hex="00D8"/>
  <outline>
    <contour>
      <point x="45" y="168"/>
      <point x="92" y="81"/>
      <point x="161" y="32" type="curve"/>
      <point x="101" y="-72" type="line"/>
      <point x="133" y="-90" type="line"/>
      <point x="193" y="13" type="line"/>
      <point x="232" y="-7"/>
      <point x="276" y="-16"/>
      <point x="321" y="-16" type="curve" smooth="yes"/>
      <point x="553" y="-16"/>
      <point x="678" y="188"/>
      <point x="678" y="376" type="curve" smooth="yes"/>
      <point x="678" y="482"/>
      <point x="638" y="584"/>
      <point x="555" y="640" type="curve"/>
      <point x="592" y="704" type="line"/>
      <point x="560" y="722" type="line"/>
      <point x="523" y="658" type="line"/>
      <point x="486" y="676"/>
      <point x="443" y="686"/>
      <point x="392" y="686" type="curve" smooth="yes"/>
      <point x="184" y="686"/>
      <point x="45" y="513"/>
      <point x="45" y="297" type="curve" smooth="yes"/>
    </contour>
    <contour>
      <point x="127" y="538"/>
      <point x="257" y="654"/>
      <point x="381" y="654" type="curve" smooth="yes"/>
      <point x="422" y="654"/>
      <point x="463" y="641"/>
      <point x="498" y="614" type="curve"/>
      <point x="195" y="91" type="line"/>
      <point x="154" y="140"/>
      <point x="127" y="215"/>
      <point x="127" y="318" type="curve" smooth="yes"/>
    </contour>
    <contour>
      <point x="525" y="589" type="line"/>
      <point x="568" y="542"/>
      <point x="596" y="468"/>
      <point x="596" y="368" type="curve" smooth="yes"/>
      <point x="596" y="140"/>
      <point x="466" y="20"/>
      <point x="343" y="20" type="curve" smooth="yes"/>
      <point x="300" y="20"/>
      <point x="258" y="34"/>
      <point x="222" y="64" type="curve"/>
    </contour>
  </outline>
</glyph>
<glyph name="Ugrave" format="1">
  <advance width="699"/>
  <unicode hex="00D9"/>
  <outline>
    <contour>
      <point x="261" y="869" type="line"/>
      <point x="347" y="727" type="line"/>
      <point x="383" y="727" type="line"/>
      <point x="331" y="869" type="line"/>
    </contour>
    <contour>
      <point x="30" y="635" type="line"/>
      <point x="85" y="635" type="line" smooth="yes"/>
      <point x="110" y="635"/>
      <point x="114" y="633"/>
      <point x="114" y="603" type="curve" smooth="yes"/>
      <point x="114" y="573"/>
      <point x="82" y="205"/>
      <point x="82" y="157" type="curve" smooth="yes"/>
      <point x="82" y="35"/>
      <point x="113" y="-22"/>
      <point x="278" y="-22" type="curve" smooth="yes"/>
      <point x="342" y="-22"/>
      <point x="388" y="-4"/>
      <point x="419" y="18" type="curve" smooth="yes"/>
      <point x="454" y="43"/>
      <point x="479" y="87"/>
      <point x="486" y="107" type="curve"/>
      <point x="483" y="26"/>
      <point x="482" y="13"/>
      <point x="482" y="3" type="curve" smooth="yes"/>
      <point x="482" y="-13"/>
      <point x="486" y="-19"/>
      <point x="497" y="-19" type="curve" smooth="yes"/>
      <point x="523" y="-19"/>
      <point x="646" y="50"/>
      <point x="646" y="50" type="curve"/>
      <point x="635" y="75" type="line"/>
      <point x="600" y="57"/>
      <point x="582" y="47"/>
      <point x="573" y="47" type="curve" smooth="yes"/>
      <point x="564" y="47"/>
      <point x="557" y="50"/>
      <point x="557" y="81" type="curve" smooth="yes"/>
      <point x="557" y="136"/>
      <point x="564" y="160"/>
      <point x="595" y="605" type="curve" smooth="yes"/>
      <point x="597" y="634"/>
      <point x="608" y="635"/>
      <point x="625" y="635" type="curve" smooth="yes"/>
      <point x="669" y="635" type="line"/>
      <point x="669" y="667" type="line"/>
      <point x="432" y="667" type="line"/>
      <point x="431" y="635" type="line"/>
      <point x="482" y="635" type="line" smooth="yes"/>
      <point x="515" y="635"/>
      <point x="521" y="631"/>
      <point x="521" y="613" type="curve" smooth="yes"/>
      <point x="521" y="607"/>
      <point x="521" y="594"/>
      <point x="520" y="586" type="curve"/>
      <point x="495" y="264" type="line" smooth="yes"/>
      <point x="493" y="244"/>
      <point x="494" y="172"/>
      <point x="457" y="112" type="curve" smooth="yes"/>
      <point x="427" y="64"/>
      <point x="378" y="22"/>
      <point x="286" y="22" type="curve" smooth="yes"/>
      <point x="180" y="22"/>
      <point x="156" y="94"/>
      <point x="156" y="157" type="curve" smooth="yes"/>
      <point x="156" y="179"/>
      <point x="164" y="304"/>
      <point x="188" y="604" type="curve" smooth="yes"/>
      <point x="191" y="634"/>
      <point x="199" y="635"/>
      <point x="223" y="635" type="curve" smooth="yes"/>
      <point x="270" y="635" type="line"/>
      <point x="272" y="667" type="line"/>
      <point x="31" y="667" type="line"/>
    </contour>
  </outline>
</glyph>
<glyph name="Ucircumflex" format="1">
  <advance width="699"/>
  <unicode hex="00DB"/>
  <outline>
    <contour>
      <point x="297" y="746" type="line"/>
      <point x="358" y="818" type="line"/>
      <point x="383" y="789"/>
      <point x="399" y="769"/>
      <point x="420" y="746" type="curve"/>
      <point x="478" y="746" type="line"/>
      <point x="449" y="787"/>
      <point x="429" y="816"/>
      <point x="398" y="865" type="curve"/>
      <point x="339" y="865" type="line"/>
      <point x="304" y="811"/>
      <point x="289" y="788"/>
      <point x="259" y="746" type="curve"/>
    </contour>
    <contour>
      <point x="30" y="635" type="line"/>
      <point x="85" y="635" type="line" smooth="yes"/>
      <point x="110" y="635"/>
      <point x="114" y="633"/>
      <point x="114" y="603" type="curve" smooth="yes"/>
      <point x="114" y="573"/>
      <point x="82" y="205"/>
      <point x="82" y="157" type="curve" smooth="yes"/>
      <point x="82" y="35"/>
      <point x="113" y="-22"/>
      <point x="278" y="-22" type="curve" smooth="yes"/>
      <point x="342" y="-22"/>
      <point x="388" y="-4"/>
      <point x="419" y="18" type="curve" smooth="yes"/>
      <point x="454" y="43"/>
      <point x="479" y="87"/>
      <point x="486" y="107" type="curve"/>
      <point x="483" y="26"/>
      <point x="482" y="13"/>
      <point x="482" y="3" type="curve" smooth="yes"/>
      <point x="482" y="-13"/>
      <point x="486" y="-19"/>
      <point x="497" y="-19" type="curve" smooth="yes"/>
      <point x="523" y="-19"/>
      <point x="646" y="50"/>
      <point x="646" y="50" type="curve"/>
      <point x="635" y="75" type="line"/>
      <point x="600" y="57"/>
      <point x="582" y="47"/>
      <point x="573" y="47" type="curve" smooth="yes"/>
      <point x="564" y="47"/>
      <point x="557" y="50"/>
      <point x="557" y="81" type="curve" smooth="yes"/>
      <point x="557" y="136"/>
      <point x="564" y="160"/>
      <point x="595" y="605" type="curve" smooth="yes"/>
      <point x="597" y="634"/>
      <point x="608" y="635"/>
      <point x="625" y="635" type="curve" smooth="yes"/>
      <point x="669" y="635" type="line"/>
      <point x="669" y="667" type="line"/>
      <point x="432" y="667" type="line"/>
      <point x="431" y="635" type="line"/>
      <point x="482" y="635" type="line" smooth="yes"/>
      <point x="515" y="635"/>
      <point x="521" y="631"/>
      <point x="521" y="613" type="curve" smooth="yes"/>
      <point x="521" y="607"/>
      <point x="521" y="594"/>
      <point x="520" y="586" type="curve"/>
      <point x="495" y="264" type="line" smooth="yes"/>
      <point x="493" y="244"/>
      <point x="494" y="172"/>
      <point x="457" y="112" type="curve" smooth="yes"/>
      <point x="427" y="64"/>
      <point x="378" y="22"/>
      <point x="286" y="22" type="curve" smooth="yes"/>
      <point x="180" y="22"/>
      <point x="156" y="94"/>
      <point x="156" y="157" type="curve" smooth="yes"/>
      <point x="156" y="179"/>
      <point x="164" y="304"/>
      <point x="188" y="604" type="curve" smooth="yes"/>
      <point x="191" y="634"/>
      <point x="199" y="635"/>
      <point x="223" y="635" type="curve" smooth="yes"/>
      <point x="270" y="635" type="line"/>
      <point x="272" y="667" type="line"/>
      <point x="31" y="667" type="line"/>
    </contour>
  </outline>
</glyph>
<glyph name="Yacute" format="1">
  <advance width="582"/>
  <unicode hex="00DD"/>
  <outline>
    <contour>
      <point x="283" y="727" type="line"/>
      <point x="319" y="727" type="line"/>
      <point x="405" y="869" type="line"/>
      <point x="335" y="869" type="line"/>
    </contour>
    <contour>
      <point x="10" y="635" type="line"/>
      <point x="36" y="635" type="line" smooth="yes"/>
      <point x="62" y="635"/>
      <point x="68" y="631"/>
      <point x="83" y="601" type="curve" smooth="yes"/>
      <point x="223" y="318" type="line"/>
      <point x="206" y="76" type="line" smooth="yes"/>
      <point x="203" y="38"/>
      <point x="196" y="32"/>
      <point x="155" y="32" type="curve" smooth="yes"/>
      <point x="110" y="32" type="line"/>
      <point x="108" y="0" type="line"/>
      <point x="368" y="0" type="line"/>
      <point x="369" y="32" type="line"/>
      <point x="318" y="32" type="line" smooth="yes"/>
      <point x="298" y="32"/>
      <point x="284" y="34"/>
      <point x="284" y="53" type="curve" smooth="yes"/>
      <point x="284" y="58"/>
      <point x="285" y="70"/>
      <point x="285" y="78" type="curve"/>
      <point x="301" y="322" type="line"/>
      <point x="457" y="560" type="line" smooth="yes"/>
      <point x="504" y="631"/>
      <point x="515" y="635"/>
      <point x="540" y="635" type="curve" smooth="yes"/>
      <point x="571" y="635" type="line"/>
      <point x="572" y="667" type="line"/>
      <point x="377" y="667" type="line"/>
      <point x="377" y="635" type="line"/>
      <point x="402" y="635" type="line" smooth="yes"/>
      <point x="424" y="635"/>
      <point x="437" y="634"/>
      <point x="437" y="622" type="curve" smooth="yes"/>
      <point x="437" y="616"/>
      <point x="432" y="604"/>
      <point x="424" y="591" type="curve" smooth="yes"/>
      <point x="284" y="363" type="line"/>
      <point x="195" y="545" type="line" smooth="yes"/>
      <point x="176" y="585"/>
      <point x="165" y="607"/>
      <point x="165" y="620" type="curve" smooth="yes"/>
      <point x="165" y="633"/>
      <point x="176" y="635"/>
      <point x="199" y="635" type="curve" smooth="yes"/>
      <point x="228" y="635" type="line"/>
      <point x="231" y="667" type="line"/>
      <point x="11" y="667" type="line"/>
    </contour>
  </outline>
</glyph>
<glyph name="Thorn" format="1">
  <advance width="555"/>
  <unicode hex="00DE"/>
  <outline>
    <contour>
      <point x="20" y="0" type="line"/>
      <point x="250" y="0" type="line"/>
      <point x="250" y="32" type="line"/>
      <point x="207" y="32" type="line" smooth="yes"/>
      <point x="171" y="32"/>
      <point x="161" y="33"/>
      <point x="161" y="60" type="curve" smooth="yes"/>
      <point x="161" y="69"/>
      <point x="162" y="73"/>
      <point x="163" y="91" type="curve" smooth="yes"/>
      <point x="167" y="149" type="line"/>
      <point x="181" y="146"/>
      <point x="219" y="140"/>
      <point x="260" y="140" type="curve" smooth="yes"/>
      <point x="399" y="140"/>
      <point x="525" y="228"/>
      <point x="525" y="361" type="curve" smooth="yes"/>
      <point x="525" y="472"/>
      <point x="443" y="532"/>
      <point x="286" y="532" type="curve" smooth="yes"/>
      <point x="194" y="532" type="line"/>
      <point x="199" y="598" type="line" smooth="yes"/>
      <point x="202" y="635"/>
      <point x="203" y="635"/>
      <point x="254" y="635" type="curve" smooth="yes"/>
      <point x="276" y="635" type="line"/>
      <point x="277" y="667" type="line"/>
      <point x="49" y="667" type="line"/>
      <point x="48" y="635" type="line"/>
      <point x="94" y="635" type="line" smooth="yes"/>
      <point x="128" y="635"/>
      <point x="130" y="633"/>
      <point x="130" y="609" type="curve" smooth="yes"/>
      <point x="130" y="605"/>
      <point x="129" y="601"/>
      <point x="129" y="596" type="curve"/>
      <point x="91" y="78" type="line" smooth="yes"/>
      <point x="88" y="35"/>
      <point x="87" y="32"/>
      <point x="55" y="32" type="curve" smooth="yes"/>
      <point x="22" y="32" type="line"/>
    </contour>
    <contour>
      <point x="191" y="478" type="line" smooth="yes"/>
      <point x="192" y="498"/>
      <point x="197" y="500"/>
      <point x="224" y="500" type="curve" smooth="yes"/>
      <point x="304" y="500"/>
      <point x="439" y="489"/>
      <point x="439" y="349" type="curve" smooth="yes"/>
      <point x="439" y="299"/>
      <point x="406" y="172"/>
      <point x="230" y="172" type="curve" smooth="yes"/>
      <point x="198" y="172"/>
      <point x="177" y="175"/>
      <point x="169" y="176" type="curve"/>
    </contour>
  </outline>
</glyph>
<glyph name="germandbls" format="1">
  <advance width="522"/>
  <unicode hex="00DF"/>
  <outline>
    <contour>
      <point x="0" y="-241"/>
      <point x="34" y="-258"/>
      <point x="69" y="-258" type="curve" smooth="yes"/>
      <point x="205" y="-258"/>
      <point x="207" y="-138"/>
      <point x="228" y="196" type="curve" smooth="yes"/>
      <point x="234" y="295"/>
      <point x="241" y="393"/>
      <point x="245" y="442" type="curve" smooth="yes"/>
      <point x="260" y="613"/>
      <point x="281" y="661"/>
      <point x="336" y="661" type="curve" smooth="yes"/>
      <point x="388" y="661"/>
      <point x="406" y="607"/>
      <point x="406" y="586" type="curve" smooth="yes"/>
      <point x="406" y="547"/>
      <point x="316" y="410"/>
      <point x="316" y="340" type="curve" smooth="yes"/>
      <point x="316" y="247"/>
      <point x="432" y="177"/>
      <point x="432" y="101" type="curve" smooth="yes"/>
      <point x="432" y="60"/>
      <point x="406" y="28"/>
      <point x="362" y="28" type="curve" smooth="yes"/>
      <point x="300" y="28"/>
      <point x="310" y="101"/>
      <point x="281" y="101" type="curve" smooth="yes"/>
      <point x="264" y="101"/>
      <point x="257" y="78"/>
      <point x="257" y="60" type="curve" smooth="yes"/>
      <point x="257" y="37"/>
      <point x="260" y="24"/>
      <point x="266" y="17" type="curve"/>
      <point x="275" y="5"/>
      <point x="299" y="-7"/>
      <point x="348" y="-7" type="curve" smooth="yes"/>
      <point x="433" y="-7"/>
      <point x="492" y="56"/>
      <point x="492" y="118" type="curve" smooth="yes"/>
      <point x="492" y="222"/>
      <point x="365" y="300"/>
      <point x="365" y="382" type="curve" smooth="yes"/>
      <point x="365" y="413"/>
      <point x="394" y="472"/>
      <point x="420" y="521" type="curve" smooth="yes"/>
      <point x="439" y="557"/>
      <point x="458" y="584"/>
      <point x="458" y="613" type="curve" smooth="yes"/>
      <point x="458" y="628"/>
      <point x="453" y="644"/>
      <point x="439" y="662" type="curve" smooth="yes"/>
      <point x="415" y="695"/>
      <point x="374" y="702"/>
      <point x="363" y="702" type="curve" smooth="yes"/>
      <point x="314" y="702"/>
      <point x="282" y="678"/>
      <point x="250" y="646" type="curve" smooth="yes"/>
      <point x="213" y="609"/>
      <point x="199" y="569"/>
      <point x="186" y="439" type="curve" smooth="yes"/>
      <point x="180" y="379"/>
      <point x="175" y="301"/>
      <point x="167" y="196" type="curve" smooth="yes"/>
      <point x="145" y="-104"/>
      <point x="147" y="-223"/>
      <point x="103" y="-223" type="curve" smooth="yes"/>
      <point x="87" y="-223"/>
      <point x="74" y="-211"/>
      <point x="65" y="-196" type="curve" smooth="yes"/>
      <point x="56" y="-180"/>
      <point x="50" y="-161"/>
      <point x="31" y="-161" type="curve" smooth="yes"/>
      <point x="11" y="-161"/>
      <point x="0" y="-184"/>
      <point x="0" y="-205" type="curve" smooth="yes"/>
    </contour>
  </outline>
</glyph>
<glyph name="acircumflex" format="1">
  <advance width="371"/>
  <unicode hex="00E2"/>
  <outline>
    <contour>
      <point x="181" y="468" type="line"/>
      <point x="192" y="487"/>
      <point x="207" y="513"/>
      <point x="229" y="559" type="curve"/>
      <point x="239" y="525"/>
      <point x="244" y="501"/>
      <point x="258" y="468" type="curve"/>
      <point x="305" y="468" type="line"/>
      <point x="288" y="509"/>
      <point x="268" y="564"/>
      <point x="255" y="608" type="curve"/>
      <point x="220" y="608" type="line"/>
      <point x="207" y="577"/>
      <point x="169" y="504"/>
      <point x="149" y="468" type="curve"/>
    </contour>
    <contour>
      <point x="25" y="7"/>
      <point x="54" y="-11"/>
      <point x="74" y="-11" type="curve" smooth="yes"/>
      <point x="90" y="-11"/>
      <point x="131" y="14"/>
      <point x="156" y="44" type="curve" smooth="yes"/>
      <point x="186" y="81"/>
      <point x="211" y="126"/>
      <point x="223" y="149" type="curve"/>
      <point x="220" y="111"/>
      <point x="218" y="83"/>
      <point x="218" y="61" type="curve" smooth="yes"/>
      <point x="218" y="0"/>
      <point x="229" y="-11"/>
      <point x="240" y="-11" type="curve" smooth="yes"/>
      <point x="280" y="-11"/>
      <point x="351" y="93"/>
      <point x="351" y="93" type="curve"/>
      <point x="333" y="107" type="line"/>
      <point x="313" y="84"/>
      <point x="305" y="72"/>
      <point x="296" y="72" type="curve" smooth="yes"/>
      <point x="288" y="72"/>
      <point x="284" y="90"/>
      <point x="284" y="121" type="curve" smooth="yes"/>
      <point x="284" y="189"/>
      <point x="319" y="391"/>
      <point x="319" y="400" type="curve" smooth="yes"/>
      <point x="319" y="411"/>
      <point x="316" y="412"/>
      <point x="301" y="412" type="curve" smooth="yes"/>
      <point x="291" y="412" type="line" smooth="yes"/>
      <point x="285" y="412"/>
      <point x="271" y="412"/>
      <point x="268" y="395" type="curve" smooth="yes"/>
      <point x="258" y="339" type="line"/>
      <point x="258" y="339"/>
      <point x="243" y="400"/>
      <point x="207" y="400" type="curve" smooth="yes"/>
      <point x="175" y="400"/>
      <point x="104" y="319"/>
      <point x="88" y="293" type="curve" smooth="yes"/>
      <point x="44" y="222"/>
      <point x="25" y="185"/>
      <point x="25" y="99" type="curve" smooth="yes"/>
    </contour>
    <contour>
      <point x="76" y="235"/>
      <point x="149" y="355"/>
      <point x="184" y="355" type="curve" smooth="yes"/>
      <point x="204" y="355"/>
      <point x="245" y="321"/>
      <point x="245" y="290" type="curve" smooth="yes"/>
      <point x="245" y="230"/>
      <point x="152" y="59"/>
      <point x="113" y="59" type="curve" smooth="yes"/>
      <point x="98" y="59"/>
      <point x="76" y="86"/>
      <point x="76" y="131" type="curve" smooth="yes"/>
    </contour>
  </outline>
</glyph>
<glyph name="atilde" format="1">
  <advance width="371"/>
  <unicode hex="00E3"/>
  <outline>
    <contour>
      <point x="148" y="479" type="line"/>
      <point x="148" y="479"/>
      <point x="157" y="531"/>
      <point x="185" y="531" type="curve" smooth="yes"/>
      <point x="198" y="531"/>
      <point x="211" y="526"/>
      <point x="219" y="521" type="curve" smooth="yes"/>
      <point x="244" y="505" type="line"/>
      <point x="253" y="500"/>
      <point x="263" y="497"/>
      <point x="274" y="497" type="curve" smooth="yes"/>
      <point x="319" y="497"/>
      <point x="334" y="586"/>
      <point x="335" y="591" type="curve"/>
      <point x="323" y="594" type="line"/>
      <point x="323" y="594"/>
      <point x="311" y="550"/>
      <point x="285" y="550" type="curve" smooth="yes"/>
      <point x="276" y="550"/>
      <point x="267" y="554"/>
      <point x="258" y="560" type="curve" smooth="yes"/>
      <point x="233" y="576" type="line"/>
      <point x="223" y="583"/>
      <point x="211" y="587"/>
      <point x="198" y="587" type="curve" smooth="yes"/>
      <point x="152" y="587"/>
      <point x="137" y="482"/>
      <point x="137" y="482" type="curve"/>
    </contour>
    <contour>
      <point x="25" y="7"/>
      <point x="54" y="-11"/>
      <point x="74" y="-11" type="curve" smooth="yes"/>
      <point x="90" y="-11"/>
      <point x="131" y="14"/>
      <point x="156" y="44" type="curve" smooth="yes"/>
      <point x="186" y="81"/>
      <point x="211" y="126"/>
      <point x="223" y="149" type="curve"/>
      <point x="220" y="111"/>
      <point x="218" y="83"/>
      <point x="218" y="61" type="curve" smooth="yes"/>
      <point x="218" y="0"/>
      <point x="229" y="-11"/>
      <point x="240" y="-11" type="curve" smooth="yes"/>
      <point x="280" y="-11"/>
      <point x="351" y="93"/>
      <point x="351" y="93" type="curve"/>
      <point x="333" y="107" type="line"/>
      <point x="313" y="84"/>
      <point x="305" y="72"/>
      <point x="296" y="72" type="curve" smooth="yes"/>
      <point x="288" y="72"/>
      <point x="284" y="90"/>
      <point x="284" y="121" type="curve" smooth="yes"/>
      <point x="284" y="189"/>
      <point x="319" y="391"/>
      <point x="319" y="400" type="curve" smooth="yes"/>
      <point x="319" y="411"/>
      <point x="316" y="412"/>
      <point x="301" y="412" type="curve" smooth="yes"/>
      <point x="291" y="412" type="line" smooth="yes"/>
      <point x="285" y="412"/>
      <point x="271" y="412"/>
      <point x="268" y="395" type="curve" smooth="yes"/>
      <point x="258" y="339" type="line"/>
      <point x="258" y="339"/>
      <point x="243" y="400"/>
      <point x="207" y="400" type="curve" smooth="yes"/>
      <point x="175" y="400"/>
      <point x="104" y="319"/>
      <point x="88" y="293" type="curve" smooth="yes"/>
      <point x="44" y="222"/>
      <point x="25" y="185"/>
      <point x="25" y="99" type="curve" smooth="yes"/>
    </contour>
    <contour>
      <point x="76" y="235"/>
      <point x="149" y="355"/>
      <point x="184" y="355" type="curve" smooth="yes"/>
      <point x="204" y="355"/>
      <point x="245" y="321"/>
      <point x="245" y="290" type="curve" smooth="yes"/>
      <point x="245" y="230"/>
      <point x="152" y="59"/>
      <point x="113" y="59" type="curve" smooth="yes"/>
      <point x="98" y="59"/>
      <point x="76" y="86"/>
      <point x="76" y="131" type="curve" smooth="yes"/>
    </contour>
  </outline>
</glyph>
<glyph name="ae" format="1">
  <advance width="489"/>
  <unicode hex="00E6"/>
  <outline>
    <contour>
      <point x="25" y="7"/>
      <point x="54" y="-11"/>
      <point x="74" y="-11" type="curve" smooth="yes"/>
      <point x="90" y="-11"/>
      <point x="131" y="14"/>
      <point x="156" y="44" type="curve" smooth="yes"/>
      <point x="188" y="84"/>
      <point x="215" y="130"/>
      <point x="235" y="177" type="curve"/>
      <point x="231" y="152"/>
      <point x="231" y="126"/>
      <point x="231" y="101" type="curve" smooth="yes"/>
      <point x="231" y="19"/>
      <point x="281" y="-4"/>
      <point x="302" y="-4" type="curve" smooth="yes"/>
      <point x="366" y="-4"/>
      <point x="474" y="100"/>
      <point x="474" y="100" type="curve"/>
      <point x="459" y="123" type="line"/>
      <point x="444" y="109"/>
      <point x="395" y="61"/>
      <point x="348" y="61" type="curve" smooth="yes"/>
      <point x="287" y="61"/>
      <point x="285" y="156"/>
      <point x="285" y="169" type="curve"/>
      <point x="369" y="232"/>
      <point x="468" y="342"/>
      <point x="468" y="353" type="curve" smooth="yes"/>
      <point x="468" y="369"/>
      <point x="419" y="398"/>
      <point x="402" y="398" type="curve" smooth="yes"/>
      <point x="372" y="398"/>
      <point x="322" y="361"/>
      <point x="295" y="325" type="curve"/>
      <point x="302" y="351"/>
      <point x="319" y="396"/>
      <point x="319" y="400" type="curve" smooth="yes"/>
      <point x="319" y="411"/>
      <point x="316" y="412"/>
      <point x="301" y="412" type="curve" smooth="yes"/>
      <point x="291" y="412" type="line" smooth="yes"/>
      <point x="285" y="412"/>
      <point x="271" y="412"/>
      <point x="268" y="395" type="curve" smooth="yes"/>
      <point x="256" y="327" type="line"/>
      <point x="256" y="327"/>
      <point x="236" y="400"/>
      <point x="207" y="400" type="curve" smooth="yes"/>
      <point x="175" y="400"/>
      <point x="104" y="319"/>
      <point x="88" y="293" type="curve" smooth="yes"/>
      <point x="44" y="222"/>
      <point x="25" y="185"/>
      <point x="25" y="99" type="curve" smooth="yes"/>
    </contour>
    <contour>
      <point x="76" y="235"/>
      <point x="149" y="355"/>
      <point x="184" y="355" type="curve" smooth="yes"/>
      <point x="204" y="355"/>
      <point x="245" y="321"/>
      <point x="245" y="290" type="curve" smooth="yes"/>
      <point x="245" y="230"/>
      <point x="152" y="59"/>
      <point x="113" y="59" type="curve" smooth="yes"/>
      <point x="98" y="59"/>
      <point x="76" y="86"/>
      <point x="76" y="131" type="curve" smooth="yes"/>
    </contour>
    <contour>
      <point x="284" y="199" type="line" smooth="yes"/>
      <point x="284" y="298"/>
      <point x="330" y="355"/>
      <point x="360" y="355" type="curve" smooth="yes"/>
      <point x="374" y="355"/>
      <point x="400" y="345"/>
      <point x="400" y="313" type="curve" smooth="yes"/>
      <point x="400" y="299"/>
      <point x="290" y="197"/>
      <point x="284" y="191" type="curve"/>
    </contour>
  </outline>
</glyph>
<glyph name="ccedilla" format="1">
  <advance width="277"/>
  <unicode hex="00E7"/>
  <outline>
    <contour>
      <point x="20" y="52"/>
      <point x="39" y="24"/>
      <point x="64" y="4" type="curve"/>
      <point x="67" y="2"/>
      <point x="74" y="-5"/>
      <point x="86" y="-7" type="curve"/>
      <point x="59" y="-79" type="line"/>
      <point x="69" y="-96" type="line"/>
      <point x="76" y="-95"/>
      <point x="81" y="-95"/>
      <point x="88" y="-95" type="curve" smooth="yes"/>
      <point x="119" y="-95"/>
      <point x="153" y="-105"/>
      <point x="153" y="-139" type="curve" smooth="yes"/>
      <point x="153" y="-173"/>
      <point x="133" y="-193"/>
      <point x="105" y="-193" type="curve" smooth="yes"/>
      <point x="87" y="-193"/>
      <point x="60" y="-183"/>
      <point x="60" y="-183" type="curve"/>
      <point x="39" y="-207" type="line"/>
      <point x="39" y="-207"/>
      <point x="53" y="-220"/>
      <point x="98" y="-220" type="curve" smooth="yes"/>
      <point x="147" y="-220"/>
      <point x="204" y="-193"/>
      <point x="204" y="-135" type="curve" smooth="yes"/>
      <point x="204" y="-83"/>
      <point x="153" y="-65"/>
      <point x="103" y="-65" type="curve" smooth="yes"/>
      <point x="97" y="-65"/>
      <point x="93" y="-66"/>
      <point x="87" y="-66" type="curve"/>
      <point x="107" y="-7" type="line"/>
      <point x="176" y="5"/>
      <point x="256" y="115"/>
      <point x="256" y="115" type="curve"/>
      <point x="242" y="127" type="line"/>
      <point x="231" y="116"/>
      <point x="178" y="58"/>
      <point x="130" y="58" type="curve" smooth="yes"/>
      <point x="107" y="58"/>
      <point x="72" y="93"/>
      <point x="72" y="170" type="curve" smooth="yes"/>
      <point x="72" y="253"/>
      <point x="112" y="358"/>
      <point x="148" y="358" type="curve" smooth="yes"/>
      <point x="192" y="358"/>
      <point x="218" y="330"/>
      <point x="239" y="330" type="curve" smooth="yes"/>
      <point x="253" y="330"/>
      <point x="262" y="343"/>
      <point x="262" y="368" type="curve" smooth="yes"/>
      <point x="262" y="381"/>
      <point x="250" y="400"/>
      <point x="211" y="400" type="curve" smooth="yes"/>
      <point x="126" y="400"/>
      <point x="76" y="340"/>
      <point x="51" y="272" type="curve" smooth="yes"/>
      <point x="31" y="217"/>
      <point x="20" y="169"/>
      <point x="20" y="110" type="curve" smooth="yes"/>
    </contour>
  </outline>
</glyph>
<glyph name="ecircumflex" format="1">
  <advance width="280"/>
  <unicode hex="00EA"/>
  <outline>
    <contour>
      <point x="149" y="468" type="line"/>
      <point x="160" y="487"/>
      <point x="175" y="513"/>
      <point x="197" y="559" type="curve"/>
      <point x="207" y="525"/>
      <point x="212" y="501"/>
      <point x="226" y="468" type="curve"/>
      <point x="273" y="468" type="line"/>
      <point x="256" y="509"/>
      <point x="236" y="564"/>
      <point x="223" y="608" type="curve"/>
      <point x="188" y="608" type="line"/>
      <point x="175" y="577"/>
      <point x="137" y="504"/>
      <point x="117" y="468" type="curve"/>
    </contour>
    <contour>
      <point x="20" y="19"/>
      <point x="72" y="-4"/>
      <point x="93" y="-4" type="curve" smooth="yes"/>
      <point x="157" y="-4"/>
      <point x="265" y="100"/>
      <point x="265" y="100" type="curve"/>
      <point x="250" y="123" type="line"/>
      <point x="235" y="109"/>
      <point x="186" y="61"/>
      <point x="139" y="61" type="curve" smooth="yes"/>
      <point x="78" y="61"/>
      <point x="76" y="156"/>
      <point x="76" y="169" type="curve"/>
      <point x="160" y="232"/>
      <point x="259" y="342"/>
      <point x="259" y="353" type="curve" smooth="yes"/>
      <point x="259" y="369"/>
      <point x="210" y="398"/>
      <point x="193" y="398" type="curve" smooth="yes"/>
      <point x="183" y="398"/>
      <point x="161" y="393"/>
      <point x="140" y="380" type="curve" smooth="yes"/>
      <point x="111" y="362"/>
      <point x="86" y="352"/>
      <point x="62" y="299" type="curve" smooth="yes"/>
      <point x="37" y="245"/>
      <point x="20" y="171"/>
      <point x="20" y="101" type="curve" smooth="yes"/>
    </contour>
    <contour>
      <point x="75" y="199" type="line" smooth="yes"/>
      <point x="75" y="298"/>
      <point x="121" y="355"/>
      <point x="151" y="355" type="curve" smooth="yes"/>
      <point x="165" y="355"/>
      <point x="191" y="345"/>
      <point x="191" y="313" type="curve" smooth="yes"/>
      <point x="191" y="299"/>
      <point x="81" y="197"/>
      <point x="75" y="191" type="curve"/>
    </contour>
  </outline>
</glyph>
<glyph name="edieresis" format="1">
  <advance width="280"/>
  <unicode hex="00EB"/>
  <outline>
    <contour>
      <point x="113" y="536"/>
      <point x="131" y="508"/>
      <point x="147" y="508" type="curve" smooth="yes"/>
      <point x="155" y="508"/>
      <point x="187" y="530"/>
      <point x="187" y="550" type="curve" smooth="yes"/>
      <point x="187" y="569"/>
      <point x="171" y="593"/>
      <point x="156" y="593" type="curve" smooth="yes"/>
      <point x="133" y="593"/>
      <point x="113" y="564"/>
      <point x="113" y="555" type="curve" smooth="yes"/>
    </contour>
    <contour>
      <point x="221" y="536"/>
      <point x="238" y="508"/>
      <point x="254" y="508" type="curve" smooth="yes"/>
      <point x="262" y="508"/>
      <point x="294" y="530"/>
      <point x="294" y="550" type="curve" smooth="yes"/>
      <point x="294" y="569"/>
      <point x="278" y="593"/>
      <point x="263" y="593" type="curve" smooth="yes"/>
      <point x="240" y="593"/>
      <point x="221" y="564"/>
      <point x="221" y="555" type="curve" smooth="yes"/>
    </contour>
    <contour>
      <point x="20" y="19"/>
      <point x="72" y="-4"/>
      <point x="93" y="-4" type="curve" smooth="yes"/>
      <point x="157" y="-4"/>
      <point x="265" y="100"/>
      <point x="265" y="100" type="curve"/>
      <point x="250" y="123" type="line"/>
      <point x="235" y="109"/>
      <point x="186" y="61"/>
      <point x="139" y="61" type="curve" smooth="yes"/>
      <point x="78" y="61"/>
      <point x="76" y="156"/>
      <point x="76" y="169" type="curve"/>
      <point x="160" y="232"/>
      <point x="259" y="342"/>
      <point x="259" y="353" type="curve" smooth="yes"/>
      <point x="259" y="369"/>
      <point x="210" y="398"/>
      <point x="193" y="398" type="curve" smooth="yes"/>
      <point x="183" y="398"/>
      <point x="161" y="393"/>
      <point x="140" y="380" type="curve" smooth="yes"/>
      <point x="111" y="362"/>
      <point x="86" y="352"/>
      <point x="62" y="299" type="curve" smooth="yes"/>
      <point x="37" y="245"/>
      <point x="20" y="171"/>
      <point x="20" y="101" type="curve" smooth="yes"/>
    </contour>
    <contour>
      <point x="75" y="199" type="line" smooth="yes"/>
      <point x="75" y="298"/>
      <point x="121" y="355"/>
      <point x="151" y="355" type="curve" smooth="yes"/>
      <point x="165" y="355"/>
      <point x="191" y="345"/>
      <point x="191" y="313" type="curve" smooth="yes"/>
      <point x="191" y="299"/>
      <point x="81" y="197"/>
      <point x="75" y="191" type="curve"/>
    </contour>
  </outline>
</glyph>
<glyph name="iacute" format="1">
  <advance width="244"/>
  <unicode hex="00ED"/>
  <outline>
    <contour>
      <point x="124" y="468" type="line"/>
      <point x="152" y="468" type="line"/>
      <point x="238" y="610" type="line"/>
      <point x="175" y="610" type="line"/>
    </contour>
    <contour>
      <point x="28" y="334" type="line"/>
      <point x="28" y="334"/>
      <point x="73" y="353"/>
      <point x="89" y="353" type="curve" smooth="yes"/>
      <point x="98" y="353"/>
      <point x="101" y="346"/>
      <point x="101" y="337" type="curve" smooth="yes"/>
      <point x="101" y="248"/>
      <point x="74" y="40"/>
      <point x="74" y="17" type="curve" smooth="yes"/>
      <point x="74" y="1"/>
      <point x="80" y="-5"/>
      <point x="91" y="-5" type="curve" smooth="yes"/>
      <point x="106" y="-5"/>
      <point x="153" y="38"/>
      <point x="173" y="59" type="curve" smooth="yes"/>
      <point x="216" y="104"/>
      <point x="234" y="148"/>
      <point x="234" y="148" type="curve"/>
      <point x="218" y="161" type="line"/>
      <point x="218" y="161"/>
      <point x="166" y="79"/>
      <point x="151" y="79" type="curve" smooth="yes"/>
      <point x="146" y="79"/>
      <point x="143" y="84"/>
      <point x="143" y="102" type="curve" smooth="yes"/>
      <point x="143" y="130"/>
      <point x="166" y="353"/>
      <point x="166" y="385" type="curve" smooth="yes"/>
      <point x="166" y="396"/>
      <point x="162" y="400"/>
      <point x="155" y="400" type="curve" smooth="yes"/>
      <point x="135" y="400"/>
      <point x="20" y="359"/>
      <point x="20" y="359" type="curve"/>
    </contour>
  </outline>
</glyph>
<glyph name="icircumflex" format="1">
  <advance width="244"/>
  <unicode hex="00EE"/>
  <outline>
    <contour>
      <point x="95" y="468" type="line"/>
      <point x="106" y="487"/>
      <point x="121" y="513"/>
      <point x="143" y="559" type="curve"/>
      <point x="153" y="525"/>
      <point x="158" y="501"/>
      <point x="172" y="468" type="curve"/>
      <point x="219" y="468" type="line"/>
      <point x="202" y="509"/>
      <point x="182" y="564"/>
      <point x="169" y="608" type="curve"/>
      <point x="134" y="608" type="line"/>
      <point x="121" y="577"/>
      <point x="83" y="504"/>
      <point x="63" y="468" type="curve"/>
    </contour>
    <contour>
      <point x="28" y="334" type="line"/>
      <point x="28" y="334"/>
      <point x="73" y="353"/>
      <point x="89" y="353" type="curve" smooth="yes"/>
      <point x="98" y="353"/>
      <point x="101" y="346"/>
      <point x="101" y="337" type="curve" smooth="yes"/>
      <point x="101" y="248"/>
      <point x="74" y="40"/>
      <point x="74" y="17" type="curve" smooth="yes"/>
      <point x="74" y="1"/>
      <point x="80" y="-5"/>
      <point x="91" y="-5" type="curve" smooth="yes"/>
      <point x="106" y="-5"/>
      <point x="153" y="38"/>
      <point x="173" y="59" type="curve" smooth="yes"/>
      <point x="216" y="104"/>
      <point x="234" y="148"/>
      <point x="234" y="148" type="curve"/>
      <point x="218" y="161" type="line"/>
      <point x="218" y="161"/>
      <point x="166" y="79"/>
      <point x="151" y="79" type="curve" smooth="yes"/>
      <point x="146" y="79"/>
      <point x="143" y="84"/>
      <point x="143" y="102" type="curve" smooth="yes"/>
      <point x="143" y="130"/>
      <point x="166" y="353"/>
      <point x="166" y="385" type="curve" smooth="yes"/>
      <point x="166" y="396"/>
      <point x="162" y="400"/>
      <point x="155" y="400" type="curve" smooth="yes"/>
      <point x="135" y="400"/>
      <point x="20" y="359"/>
      <point x="20" y="359" type="curve"/>
    </contour>
  </outline>
</glyph>
